<mxfile host="app.diagrams.net" agent="Mozilla/5.0 (Windows NT 10.0; Win64; x64) AppleWebKit/537.36 (KHTML, like Gecko) Chrome/138.0.0.0 Whale/4.33.325.17 Safari/537.36" version="28.1.2" pages="2">
  <diagram name="Diagram" id="VBNBfHUcX8HRNurn-MSd">
    <mxGraphModel grid="1" page="1" gridSize="10" guides="1" tooltips="1" connect="1" arrows="1" fold="1" pageScale="1" pageWidth="827" pageHeight="1169" math="0" shadow="0">
      <root>
        <mxCell id="0" />
        <mxCell id="1" parent="0" />
        <mxCell id="74IvplzY6ALWcZYi9SfG-242" value="&lt;b&gt;Client&lt;/b&gt;" style="verticalAlign=top;align=center;shape=cube;size=10;direction=south;fontStyle=0;html=1;boundedLbl=1;spacingLeft=5;whiteSpace=wrap;fontSize=22;fillColor=#ffcc99;strokeColor=#36393d;" vertex="1" parent="1">
          <mxGeometry x="416" y="80" width="920" height="260" as="geometry" />
        </mxCell>
        <mxCell id="74IvplzY6ALWcZYi9SfG-59" value="&lt;b&gt;&lt;font style=&quot;font-size: 21px;&quot;&gt;User Phone&lt;/font&gt;&lt;/b&gt;" style="verticalAlign=top;align=center;shape=cube;size=10;direction=south;fontStyle=0;html=1;boundedLbl=1;spacingLeft=5;whiteSpace=wrap;fontSize=15;fillColor=#ffe6cc;strokeColor=#d79b00;fontColor=#000000;" vertex="1" parent="1">
          <mxGeometry x="447" y="123" width="410" height="210" as="geometry" />
        </mxCell>
        <mxCell id="74IvplzY6ALWcZYi9SfG-60" value="&amp;lt;&amp;lt;executionEnvironment&amp;gt;&amp;gt;&lt;div&gt;&lt;b&gt;Android&lt;/b&gt;&lt;/div&gt;" style="verticalAlign=top;align=center;shape=cube;size=10;direction=south;html=1;boundedLbl=1;spacingLeft=5;whiteSpace=wrap;fillColor=#f5f5f5;fontColor=#000000;strokeColor=#666666;fontSize=14;" vertex="1" parent="74IvplzY6ALWcZYi9SfG-59">
          <mxGeometry width="170" height="110" relative="1" as="geometry">
            <mxPoint x="22" y="70" as="offset" />
          </mxGeometry>
        </mxCell>
        <mxCell id="74IvplzY6ALWcZYi9SfG-88" value="&amp;lt;&amp;lt;executionEnvironment&amp;gt;&amp;gt;&lt;div&gt;&lt;b&gt;iOS&lt;/b&gt;&lt;/div&gt;" style="verticalAlign=top;align=center;shape=cube;size=10;direction=south;html=1;boundedLbl=1;spacingLeft=5;whiteSpace=wrap;fillColor=#f5f5f5;fontColor=#000000;strokeColor=#666666;fontSize=14;" vertex="1" parent="74IvplzY6ALWcZYi9SfG-59">
          <mxGeometry x="212" y="70.5" width="170" height="105" as="geometry" />
        </mxCell>
        <mxCell id="74IvplzY6ALWcZYi9SfG-93" value="&amp;lt;&amp;lt;artifact&amp;gt;&amp;gt;&lt;div&gt;CustomerUI.apk&lt;/div&gt;" style="html=1;whiteSpace=wrap;strokeColor=default;align=center;verticalAlign=middle;spacingLeft=5;fontFamily=Helvetica;fontSize=14;fontColor=#000000;fontStyle=1;fillColor=default;" vertex="1" parent="74IvplzY6ALWcZYi9SfG-59">
          <mxGeometry x="32" y="123.75" width="130" height="43.75" as="geometry" />
        </mxCell>
        <mxCell id="74IvplzY6ALWcZYi9SfG-94" value="&amp;lt;&amp;lt;artifact&amp;gt;&amp;gt;&lt;div&gt;CustomerUI.ipa&lt;/div&gt;" style="html=1;whiteSpace=wrap;strokeColor=default;align=center;verticalAlign=middle;spacingLeft=5;fontFamily=Helvetica;fontSize=14;fontColor=#000000;fontStyle=1;fillColor=default;" vertex="1" parent="74IvplzY6ALWcZYi9SfG-59">
          <mxGeometry x="228" y="117.75" width="130" height="43.75" as="geometry" />
        </mxCell>
        <mxCell id="74IvplzY6ALWcZYi9SfG-63" value="&lt;div&gt;&lt;b&gt;&lt;font style=&quot;font-size: 20px;&quot;&gt;&amp;lt;&amp;lt;device&amp;gt;&amp;gt;&lt;/font&gt;&lt;/b&gt;&lt;/div&gt;&lt;b&gt;&lt;font style=&quot;font-size: 20px;&quot;&gt;HomeGateway&lt;/font&gt;&lt;/b&gt;" style="verticalAlign=top;align=center;shape=cube;size=10;direction=south;fontStyle=0;html=1;boundedLbl=1;spacingLeft=5;whiteSpace=wrap;fontSize=15;fillColor=#e1d5e7;strokeColor=#9673a6;fontColor=#000000;" vertex="1" parent="1">
          <mxGeometry x="950" y="1609" width="430" height="321" as="geometry" />
        </mxCell>
        <mxCell id="74IvplzY6ALWcZYi9SfG-72" value="&lt;div&gt;&lt;b&gt;&lt;font style=&quot;font-size: 20px;&quot;&gt;&amp;lt;&amp;lt;cloud service&amp;gt;&amp;gt;&lt;/font&gt;&lt;/b&gt;&lt;/div&gt;&lt;b&gt;&lt;font style=&quot;font-size: 20px;&quot;&gt;Database Server&lt;/font&gt;&lt;/b&gt;" style="verticalAlign=top;align=center;shape=cube;size=10;direction=south;fontStyle=0;html=1;boundedLbl=1;spacingLeft=5;whiteSpace=wrap;fontSize=15;fillColor=#dae8fc;strokeColor=#6c8ebf;fontColor=#000000;" vertex="1" parent="1">
          <mxGeometry x="960" y="1400" width="423" height="190" as="geometry" />
        </mxCell>
        <mxCell id="74IvplzY6ALWcZYi9SfG-73" value="&lt;font style=&quot;font-size: 15px;&quot;&gt;&amp;lt;&amp;lt;executionEnvironment&amp;gt;&amp;gt;&lt;/font&gt;&lt;div&gt;&lt;b&gt;&lt;font style=&quot;font-size: 15px;&quot;&gt;MYSQLServer&lt;/font&gt;&lt;/b&gt;&lt;/div&gt;" style="verticalAlign=top;align=center;shape=cube;size=10;direction=south;html=1;boundedLbl=1;spacingLeft=5;whiteSpace=wrap;fillColor=#eeeeee;strokeColor=#36393d;" vertex="1" parent="74IvplzY6ALWcZYi9SfG-72">
          <mxGeometry width="290" height="120" relative="1" as="geometry">
            <mxPoint x="67" y="63" as="offset" />
          </mxGeometry>
        </mxCell>
        <mxCell id="74IvplzY6ALWcZYi9SfG-170" value="&amp;lt;&amp;lt;artifact&amp;gt;&amp;gt;&lt;div&gt;MainDBSchema.sql&lt;/div&gt;" style="html=1;whiteSpace=wrap;strokeColor=default;align=center;verticalAlign=middle;spacingLeft=5;fontFamily=Helvetica;fontSize=15;fontColor=#000000;fontStyle=1;fillColor=default;" vertex="1" parent="74IvplzY6ALWcZYi9SfG-72">
          <mxGeometry x="109.33" y="130" width="190.67" height="39.93" as="geometry" />
        </mxCell>
        <mxCell id="74IvplzY6ALWcZYi9SfG-74" value="&lt;div&gt;&lt;b&gt;&lt;font style=&quot;font-size: 20px;&quot;&gt;&amp;lt;&amp;lt;cloud service&amp;gt;&amp;gt;&lt;/font&gt;&lt;/b&gt;&lt;/div&gt;&lt;b&gt;&lt;font style=&quot;font-size: 20px;&quot;&gt;Cache Server&lt;/font&gt;&lt;/b&gt;" style="verticalAlign=top;align=center;shape=cube;size=10;direction=south;fontStyle=0;html=1;boundedLbl=1;spacingLeft=5;whiteSpace=wrap;fontSize=15;fillColor=#dae8fc;strokeColor=#6c8ebf;fontColor=#000000;" vertex="1" parent="1">
          <mxGeometry x="390" y="1400" width="430" height="180" as="geometry" />
        </mxCell>
        <mxCell id="74IvplzY6ALWcZYi9SfG-75" value="&lt;font style=&quot;font-size: 16px;&quot;&gt;&amp;lt;&amp;lt;executionEnvironment&amp;gt;&amp;gt;&lt;/font&gt;&lt;div&gt;&lt;b&gt;&lt;font style=&quot;font-size: 16px;&quot;&gt;RedisServer&lt;/font&gt;&lt;/b&gt;&lt;/div&gt;" style="verticalAlign=top;align=center;shape=cube;size=10;direction=south;html=1;boundedLbl=1;spacingLeft=5;whiteSpace=wrap;fillColor=#eeeeee;strokeColor=#36393d;" vertex="1" parent="74IvplzY6ALWcZYi9SfG-74">
          <mxGeometry width="240" height="110" relative="1" as="geometry">
            <mxPoint x="94" y="60" as="offset" />
          </mxGeometry>
        </mxCell>
        <mxCell id="74IvplzY6ALWcZYi9SfG-291" value="&amp;lt;&amp;lt;artifact&amp;gt;&amp;gt;&lt;br&gt;&lt;div&gt;&lt;span style=&quot;font-family: Arial, sans-serif; background-color: transparent; color: light-dark(rgb(0, 0, 0), rgb(237, 237, 237));&quot;&gt;Redis-config.conf&lt;/span&gt;&lt;/div&gt;" style="html=1;whiteSpace=wrap;strokeColor=default;align=center;verticalAlign=middle;spacingLeft=5;fontFamily=Helvetica;fontSize=17;fontColor=#000000;fontStyle=1;fillColor=default;" vertex="1" parent="74IvplzY6ALWcZYi9SfG-74">
          <mxGeometry x="108" y="120" width="212" height="40" as="geometry" />
        </mxCell>
        <mxCell id="74IvplzY6ALWcZYi9SfG-82" value="&lt;b&gt;&lt;font style=&quot;font-size: 20px;&quot;&gt;&amp;lt;&amp;lt;cloud service&amp;gt;&amp;gt;&lt;/font&gt;&lt;/b&gt;&lt;div&gt;&lt;b&gt;&lt;font style=&quot;font-size: 20px;&quot;&gt;AWS ApplicationLoad Balancer&lt;/font&gt;&lt;/b&gt;&lt;/div&gt;" style="verticalAlign=top;align=center;shape=cube;size=10;direction=south;fontStyle=0;html=1;boundedLbl=1;spacingLeft=5;whiteSpace=wrap;fontSize=15;fontColor=#000000;" vertex="1" parent="1">
          <mxGeometry x="391" y="481" width="989" height="115" as="geometry" />
        </mxCell>
        <mxCell id="74IvplzY6ALWcZYi9SfG-84" value="&lt;b&gt;&lt;font style=&quot;font-size: 20px;&quot;&gt;&amp;lt;&amp;lt;cloud service&amp;gt;&amp;gt;&lt;/font&gt;&lt;/b&gt;&lt;div&gt;&lt;b&gt;&lt;font style=&quot;font-size: 20px;&quot;&gt;AWS API Gateway&lt;/font&gt;&lt;/b&gt;&lt;/div&gt;" style="verticalAlign=top;align=center;shape=cube;size=10;direction=south;fontStyle=0;html=1;boundedLbl=1;spacingLeft=5;whiteSpace=wrap;fontSize=15;fontColor=#000000;" vertex="1" parent="1">
          <mxGeometry x="391" y="351" width="989" height="120" as="geometry" />
        </mxCell>
        <mxCell id="74IvplzY6ALWcZYi9SfG-87" value="&amp;lt;&amp;lt;artifact&amp;gt;&amp;gt;&lt;div&gt;GatewayConfig.yaml&lt;/div&gt;" style="html=1;whiteSpace=wrap;strokeColor=default;align=center;verticalAlign=middle;spacingLeft=5;fontFamily=Helvetica;fontSize=17;fontColor=#000000;fontStyle=1;fillColor=default;" vertex="1" parent="1">
          <mxGeometry x="778" y="415" width="192" height="50" as="geometry" />
        </mxCell>
        <mxCell id="74IvplzY6ALWcZYi9SfG-108" value="&lt;b&gt;&lt;font style=&quot;font-size: 21px;&quot;&gt;User PC&lt;/font&gt;&lt;/b&gt;" style="verticalAlign=top;align=center;shape=cube;size=10;direction=south;fontStyle=0;html=1;boundedLbl=1;spacingLeft=5;whiteSpace=wrap;fontSize=15;fillColor=#ffe6cc;strokeColor=#d79b00;fontColor=#000000;" vertex="1" parent="1">
          <mxGeometry x="878" y="123" width="429" height="210" as="geometry" />
        </mxCell>
        <mxCell id="74IvplzY6ALWcZYi9SfG-109" value="&amp;lt;&amp;lt;executionEnvironment&amp;gt;&amp;gt;&lt;div&gt;&lt;b&gt;Windows&lt;/b&gt;&lt;/div&gt;" style="verticalAlign=top;align=center;shape=cube;size=10;direction=south;html=1;boundedLbl=1;spacingLeft=5;whiteSpace=wrap;fillColor=#f5f5f5;fontColor=#000000;strokeColor=#666666;" vertex="1" parent="74IvplzY6ALWcZYi9SfG-108">
          <mxGeometry width="170" height="120" relative="1" as="geometry">
            <mxPoint x="24" y="56" as="offset" />
          </mxGeometry>
        </mxCell>
        <mxCell id="74IvplzY6ALWcZYi9SfG-110" value="&amp;lt;&amp;lt;artifact&amp;gt;&amp;gt;&lt;div&gt;WebAppBundle.js&lt;/div&gt;" style="html=1;whiteSpace=wrap;strokeColor=default;align=center;verticalAlign=middle;spacingLeft=5;fontFamily=Helvetica;fontSize=14;fontColor=#000000;fontStyle=1;fillColor=default;" vertex="1" parent="74IvplzY6ALWcZYi9SfG-108">
          <mxGeometry x="34" y="107.505" width="130" height="50" as="geometry" />
        </mxCell>
        <mxCell id="74IvplzY6ALWcZYi9SfG-111" value="&amp;lt;&amp;lt;executionEnvironment&amp;gt;&amp;gt;&lt;div&gt;&lt;b&gt;iOS&lt;/b&gt;&lt;/div&gt;" style="verticalAlign=top;align=center;shape=cube;size=10;direction=south;html=1;boundedLbl=1;spacingLeft=5;whiteSpace=wrap;fillColor=#f5f5f5;fontColor=#000000;strokeColor=#666666;" vertex="1" parent="74IvplzY6ALWcZYi9SfG-108">
          <mxGeometry x="225" y="50.005" width="170" height="127.49625" as="geometry" />
        </mxCell>
        <mxCell id="74IvplzY6ALWcZYi9SfG-112" value="&amp;lt;&amp;lt;artifact&amp;gt;&amp;gt;&lt;div&gt;WebAppBundle.js&lt;/div&gt;" style="html=1;whiteSpace=wrap;strokeColor=default;align=center;verticalAlign=middle;spacingLeft=5;fontFamily=Helvetica;fontSize=14;fontColor=#000000;fontStyle=1;fillColor=default;" vertex="1" parent="74IvplzY6ALWcZYi9SfG-108">
          <mxGeometry x="245" y="107.505" width="130" height="50" as="geometry" />
        </mxCell>
        <mxCell id="74IvplzY6ALWcZYi9SfG-154" value="&lt;div&gt;&lt;b&gt;&lt;font style=&quot;font-size: 23px;&quot;&gt;&amp;lt;&amp;lt;cloud service&amp;gt;&amp;gt;&lt;/font&gt;&lt;/b&gt;&lt;/div&gt;&lt;b&gt;&lt;font style=&quot;font-size: 23px;&quot;&gt;Application Server&lt;/font&gt;&lt;/b&gt;" style="verticalAlign=top;align=center;shape=cube;size=10;direction=south;fontStyle=0;html=1;boundedLbl=1;spacingLeft=5;whiteSpace=wrap;fontSize=19;fillColor=#d5e8d4;strokeColor=#82b366;fontColor=#000000;" vertex="1" parent="1">
          <mxGeometry x="390" y="620" width="990" height="760" as="geometry" />
        </mxCell>
        <mxCell id="74IvplzY6ALWcZYi9SfG-177" value="&lt;font style=&quot;font-size: 18px;&quot;&gt;&amp;lt;&amp;lt;executionEnvironment&amp;gt;&amp;gt;&lt;/font&gt;&lt;div style=&quot;&quot;&gt;&lt;b style=&quot;&quot;&gt;&lt;font style=&quot;font-size: 18px;&quot;&gt;Embedded Linux&lt;/font&gt;&lt;/b&gt;&lt;/div&gt;" style="verticalAlign=top;align=center;shape=cube;size=10;direction=south;fontStyle=0;html=1;boundedLbl=1;spacingLeft=5;whiteSpace=wrap;strokeColor=default;fontFamily=Helvetica;fontSize=15;fontColor=default;fillColor=default;" vertex="1" parent="1">
          <mxGeometry x="970" y="1675" width="388.92" height="246.24228971962617" as="geometry" />
        </mxCell>
        <mxCell id="74IvplzY6ALWcZYi9SfG-180" value="&lt;div&gt;&lt;b&gt;&lt;font style=&quot;font-size: 20px;&quot;&gt;&amp;lt;&amp;lt;cloud service&amp;gt;&amp;gt;&lt;/font&gt;&lt;/b&gt;&lt;/div&gt;&lt;span style=&quot;font-size: 20px;&quot;&gt;&lt;b&gt;MessageBroker Server&lt;/b&gt;&lt;/span&gt;" style="verticalAlign=top;align=center;shape=cube;size=10;direction=south;fontStyle=0;html=1;boundedLbl=1;spacingLeft=5;whiteSpace=wrap;fontSize=15;fillColor=#dae8fc;strokeColor=#6c8ebf;fontColor=#000000;" vertex="1" parent="1">
          <mxGeometry x="390" y="1600" width="430" height="140" as="geometry" />
        </mxCell>
        <mxCell id="74IvplzY6ALWcZYi9SfG-182" value="&amp;lt;&amp;lt;artifact&amp;gt;&amp;gt;&lt;br&gt;&lt;div&gt;&lt;span style=&quot;font-family: Arial, sans-serif; background-color: transparent; color: light-dark(rgb(0, 0, 0), rgb(237, 237, 237));&quot;&gt;MQTT-Broker-config.yaml&lt;/span&gt;&lt;/div&gt;" style="html=1;whiteSpace=wrap;strokeColor=default;align=center;verticalAlign=middle;spacingLeft=5;fontFamily=Helvetica;fontSize=17;fontColor=#000000;fontStyle=1;fillColor=default;" vertex="1" parent="1">
          <mxGeometry x="470" y="1680" width="250" height="50" as="geometry" />
        </mxCell>
        <mxCell id="74IvplzY6ALWcZYi9SfG-139" value="&lt;div&gt;&lt;b&gt;&lt;font style=&quot;font-size: 20px;&quot;&gt;&amp;lt;&amp;lt;executionEnvironment&amp;gt;&amp;gt;&lt;/font&gt;&lt;/b&gt;&lt;/div&gt;&lt;b&gt;&lt;font style=&quot;font-size: 20px;&quot;&gt;Kubernetes Cluster&lt;/font&gt;&lt;/b&gt;" style="verticalAlign=top;align=center;shape=cube;size=10;direction=south;fontStyle=0;html=1;boundedLbl=1;spacingLeft=5;whiteSpace=wrap;fontSize=15;fontColor=#000000;" vertex="1" parent="1">
          <mxGeometry x="411" y="690" width="950" height="650" as="geometry" />
        </mxCell>
        <mxCell id="74IvplzY6ALWcZYi9SfG-140" value="&lt;font style=&quot;font-size: 14px;&quot;&gt;&amp;lt;&amp;lt;executionEnvironment&amp;gt;&amp;gt;&lt;/font&gt;&lt;div&gt;&lt;b&gt;&lt;font style=&quot;font-size: 14px;&quot;&gt;PredictionService Container&lt;/font&gt;&lt;/b&gt;&lt;/div&gt;" style="verticalAlign=top;align=center;shape=cube;size=10;direction=south;html=1;boundedLbl=1;spacingLeft=5;whiteSpace=wrap;fontSize=13;fontColor=#000000;fillColor=#f5f5f5;strokeColor=#666666;" vertex="1" parent="74IvplzY6ALWcZYi9SfG-139">
          <mxGeometry width="260" height="260" relative="1" as="geometry">
            <mxPoint x="20" y="60" as="offset" />
          </mxGeometry>
        </mxCell>
        <mxCell id="74IvplzY6ALWcZYi9SfG-141" value="&amp;lt;&amp;lt;executionEnvironment&amp;gt;&amp;gt;&lt;div&gt;&lt;b&gt;Python Runtime&lt;/b&gt;&lt;/div&gt;" style="verticalAlign=top;align=center;shape=cube;size=10;direction=south;html=1;boundedLbl=1;spacingLeft=5;whiteSpace=wrap;fontSize=14;fontColor=#000000;" vertex="1" parent="74IvplzY6ALWcZYi9SfG-139">
          <mxGeometry x="32" y="115" width="230" height="200" as="geometry" />
        </mxCell>
        <mxCell id="74IvplzY6ALWcZYi9SfG-142" value="&amp;lt;&amp;lt;artifact&amp;gt;&amp;gt;&lt;div&gt;PredictionService.py&lt;/div&gt;" style="html=1;whiteSpace=wrap;strokeColor=default;align=center;verticalAlign=middle;spacingLeft=5;fontFamily=Helvetica;fontSize=15;fontColor=#000000;fontStyle=1;fillColor=default;" vertex="1" parent="74IvplzY6ALWcZYi9SfG-139">
          <mxGeometry x="50" y="170" width="194" height="40" as="geometry" />
        </mxCell>
        <mxCell id="74IvplzY6ALWcZYi9SfG-146" value="&lt;font style=&quot;font-size: 14px;&quot;&gt;&amp;lt;&amp;lt;executionEnvironment&amp;gt;&amp;gt;&lt;/font&gt;&lt;div&gt;&lt;b&gt;&lt;font style=&quot;font-size: 14px;&quot;&gt;NotificationService Container&lt;/font&gt;&lt;/b&gt;&lt;/div&gt;" style="verticalAlign=top;align=center;shape=cube;size=10;direction=south;html=1;boundedLbl=1;spacingLeft=5;whiteSpace=wrap;fontSize=13;fontColor=#000000;fillColor=#f5f5f5;strokeColor=#666666;" vertex="1" parent="74IvplzY6ALWcZYi9SfG-139">
          <mxGeometry x="650" y="60" width="260" height="230" as="geometry" />
        </mxCell>
        <mxCell id="74IvplzY6ALWcZYi9SfG-147" value="&amp;lt;&amp;lt;executionEnvironment&amp;gt;&amp;gt;&lt;div&gt;&lt;b&gt;JVM&lt;/b&gt;&lt;/div&gt;" style="verticalAlign=top;align=center;shape=cube;size=10;direction=south;html=1;boundedLbl=1;spacingLeft=5;whiteSpace=wrap;fontSize=14;fontColor=#000000;" vertex="1" parent="74IvplzY6ALWcZYi9SfG-139">
          <mxGeometry x="662" y="120" width="230" height="120" as="geometry" />
        </mxCell>
        <mxCell id="74IvplzY6ALWcZYi9SfG-148" value="&amp;lt;&amp;lt;artifact&amp;gt;&amp;gt;&lt;div&gt;NotificationService.jar&lt;/div&gt;" style="html=1;whiteSpace=wrap;strokeColor=default;align=center;verticalAlign=middle;spacingLeft=5;fontFamily=Helvetica;fontSize=15;fontColor=#000000;fontStyle=1;fillColor=default;" vertex="1" parent="74IvplzY6ALWcZYi9SfG-139">
          <mxGeometry x="680" y="180" width="194" height="50" as="geometry" />
        </mxCell>
        <mxCell id="74IvplzY6ALWcZYi9SfG-167" value="&lt;font style=&quot;font-size: 14px;&quot;&gt;&amp;lt;&amp;lt;executionEnvironment&amp;gt;&amp;gt;&lt;/font&gt;&lt;div&gt;&lt;b&gt;&lt;font style=&quot;font-size: 14px;&quot;&gt;HeartbeatMonitorContainer&lt;/font&gt;&lt;/b&gt;&lt;/div&gt;" style="verticalAlign=top;align=center;shape=cube;size=10;direction=south;html=1;boundedLbl=1;spacingLeft=5;whiteSpace=wrap;fontSize=13;fontColor=#000000;fillColor=#f5f5f5;strokeColor=#666666;" vertex="1" parent="74IvplzY6ALWcZYi9SfG-139">
          <mxGeometry x="340" y="240" width="260" height="230" as="geometry" />
        </mxCell>
        <mxCell id="74IvplzY6ALWcZYi9SfG-184" value="" style="group" vertex="1" connectable="0" parent="74IvplzY6ALWcZYi9SfG-139">
          <mxGeometry x="351" y="292" width="230" height="168" as="geometry" />
        </mxCell>
        <mxCell id="74IvplzY6ALWcZYi9SfG-168" value="&amp;lt;&amp;lt;executionEnvironment&amp;gt;&amp;gt;&lt;div&gt;&lt;b&gt;JVM&lt;/b&gt;&lt;/div&gt;" style="verticalAlign=top;align=center;shape=cube;size=10;direction=south;html=1;boundedLbl=1;spacingLeft=5;whiteSpace=wrap;fontSize=14;fontColor=#000000;" vertex="1" parent="74IvplzY6ALWcZYi9SfG-184">
          <mxGeometry width="230" height="168" as="geometry" />
        </mxCell>
        <mxCell id="74IvplzY6ALWcZYi9SfG-169" value="&amp;lt;&amp;lt;artifact&amp;gt;&amp;gt;&lt;div&gt;HeartbeatMonitor.jar&lt;/div&gt;" style="html=1;whiteSpace=wrap;strokeColor=default;align=center;verticalAlign=middle;spacingLeft=5;fontFamily=Helvetica;fontSize=15;fontColor=#000000;fontStyle=1;fillColor=default;" vertex="1" parent="74IvplzY6ALWcZYi9SfG-184">
          <mxGeometry x="9" y="51" width="194" height="36" as="geometry" />
        </mxCell>
        <mxCell id="74IvplzY6ALWcZYi9SfG-190" style="edgeStyle=orthogonalEdgeStyle;shape=connector;rounded=0;orthogonalLoop=1;jettySize=auto;html=1;exitX=0;exitY=0;exitDx=120;exitDy=260;exitPerimeter=0;entryX=0.216;entryY=0.011;entryDx=0;entryDy=0;entryPerimeter=0;strokeColor=#FF1C10;align=center;verticalAlign=middle;fontFamily=Helvetica;fontSize=15;fontColor=default;fontStyle=0;labelBackgroundColor=default;endArrow=none;endFill=0;strokeWidth=2;" edge="1" parent="74IvplzY6ALWcZYi9SfG-139" source="74IvplzY6ALWcZYi9SfG-146" target="74IvplzY6ALWcZYi9SfG-167">
          <mxGeometry relative="1" as="geometry" />
        </mxCell>
        <mxCell id="74IvplzY6ALWcZYi9SfG-259" value="&amp;lt;&amp;lt;gRPC&amp;gt;&amp;gt;" style="edgeLabel;html=1;align=center;verticalAlign=middle;resizable=0;points=[];strokeColor=default;spacingLeft=5;fontFamily=Helvetica;fontSize=16;fontColor=default;fontStyle=0;labelBackgroundColor=default;fillColor=default;gradientColor=none;" vertex="1" connectable="0" parent="74IvplzY6ALWcZYi9SfG-190">
          <mxGeometry x="-0.152" y="-1" relative="1" as="geometry">
            <mxPoint y="1" as="offset" />
          </mxGeometry>
        </mxCell>
        <mxCell id="74IvplzY6ALWcZYi9SfG-279" value="*" style="edgeLabel;html=1;align=center;verticalAlign=middle;resizable=0;points=[];strokeColor=default;spacingLeft=5;fontFamily=Helvetica;fontSize=16;fontColor=default;fontStyle=0;labelBackgroundColor=default;fillColor=default;gradientColor=none;" vertex="1" connectable="0" parent="74IvplzY6ALWcZYi9SfG-190">
          <mxGeometry x="-0.8711" relative="1" as="geometry">
            <mxPoint as="offset" />
          </mxGeometry>
        </mxCell>
        <mxCell id="74IvplzY6ALWcZYi9SfG-280" value="1" style="edgeLabel;html=1;align=center;verticalAlign=middle;resizable=0;points=[];strokeColor=default;spacingLeft=5;fontFamily=Helvetica;fontSize=16;fontColor=default;fontStyle=0;labelBackgroundColor=default;fillColor=default;gradientColor=none;" vertex="1" connectable="0" parent="74IvplzY6ALWcZYi9SfG-190">
          <mxGeometry x="0.8662" relative="1" as="geometry">
            <mxPoint as="offset" />
          </mxGeometry>
        </mxCell>
        <mxCell id="74IvplzY6ALWcZYi9SfG-192" style="edgeStyle=orthogonalEdgeStyle;shape=connector;rounded=0;orthogonalLoop=1;jettySize=auto;html=1;exitX=0;exitY=0;exitDx=110;exitDy=0;exitPerimeter=0;entryX=0.277;entryY=0.996;entryDx=0;entryDy=0;entryPerimeter=0;strokeColor=#FF1C10;align=center;verticalAlign=middle;fontFamily=Helvetica;fontSize=15;fontColor=default;fontStyle=0;labelBackgroundColor=default;endArrow=none;endFill=0;strokeWidth=2;" edge="1" parent="74IvplzY6ALWcZYi9SfG-139" source="74IvplzY6ALWcZYi9SfG-140" target="74IvplzY6ALWcZYi9SfG-167">
          <mxGeometry relative="1" as="geometry" />
        </mxCell>
        <mxCell id="74IvplzY6ALWcZYi9SfG-260" value="&amp;lt;&amp;lt;gRPC&amp;gt;&amp;gt;" style="edgeLabel;html=1;align=center;verticalAlign=middle;resizable=0;points=[];strokeColor=default;spacingLeft=5;fontFamily=Helvetica;fontSize=16;fontColor=default;fontStyle=0;labelBackgroundColor=default;fillColor=default;gradientColor=none;" vertex="1" connectable="0" parent="74IvplzY6ALWcZYi9SfG-192">
          <mxGeometry x="-0.1699" y="-1" relative="1" as="geometry">
            <mxPoint as="offset" />
          </mxGeometry>
        </mxCell>
        <mxCell id="74IvplzY6ALWcZYi9SfG-273" value="*" style="edgeLabel;html=1;align=center;verticalAlign=middle;resizable=0;points=[];strokeColor=default;spacingLeft=5;fontFamily=Helvetica;fontSize=16;fontColor=default;fontStyle=0;labelBackgroundColor=default;fillColor=default;gradientColor=none;" vertex="1" connectable="0" parent="74IvplzY6ALWcZYi9SfG-192">
          <mxGeometry x="-0.9217" relative="1" as="geometry">
            <mxPoint as="offset" />
          </mxGeometry>
        </mxCell>
        <mxCell id="74IvplzY6ALWcZYi9SfG-283" value="1" style="edgeLabel;html=1;align=center;verticalAlign=middle;resizable=0;points=[];strokeColor=default;spacingLeft=5;fontFamily=Helvetica;fontSize=16;fontColor=default;fontStyle=0;labelBackgroundColor=default;fillColor=default;gradientColor=none;" vertex="1" connectable="0" parent="74IvplzY6ALWcZYi9SfG-192">
          <mxGeometry x="0.8437" y="1" relative="1" as="geometry">
            <mxPoint as="offset" />
          </mxGeometry>
        </mxCell>
        <mxCell id="74IvplzY6ALWcZYi9SfG-206" value="" style="group" vertex="1" connectable="0" parent="74IvplzY6ALWcZYi9SfG-139">
          <mxGeometry x="649" y="380" width="260" height="230" as="geometry" />
        </mxCell>
        <mxCell id="74IvplzY6ALWcZYi9SfG-143" value="&lt;font style=&quot;font-size: 14px;&quot;&gt;&amp;lt;&amp;lt;executionEnvironment&amp;gt;&amp;gt;&lt;/font&gt;&lt;div&gt;&lt;b&gt;&lt;font style=&quot;font-size: 14px;&quot;&gt;deviceControlService Container&lt;/font&gt;&lt;/b&gt;&lt;/div&gt;" style="verticalAlign=top;align=center;shape=cube;size=10;direction=south;html=1;boundedLbl=1;spacingLeft=5;whiteSpace=wrap;fontSize=13;fontColor=#000000;fillColor=#f5f5f5;strokeColor=#666666;" vertex="1" parent="74IvplzY6ALWcZYi9SfG-206">
          <mxGeometry width="260" height="230" as="geometry" />
        </mxCell>
        <mxCell id="74IvplzY6ALWcZYi9SfG-144" value="&amp;lt;&amp;lt;executionEnvironment&amp;gt;&amp;gt;&lt;div&gt;&lt;b&gt;JVM&lt;/b&gt;&lt;/div&gt;" style="verticalAlign=top;align=center;shape=cube;size=10;direction=south;html=1;boundedLbl=1;spacingLeft=5;whiteSpace=wrap;fontSize=14;fontColor=#000000;" vertex="1" parent="74IvplzY6ALWcZYi9SfG-206">
          <mxGeometry x="12" y="60" width="230" height="120" as="geometry" />
        </mxCell>
        <mxCell id="74IvplzY6ALWcZYi9SfG-145" value="&amp;lt;&amp;lt;artifact&amp;gt;&amp;gt;&lt;div&gt;DeviceControlService.jar&lt;/div&gt;" style="html=1;whiteSpace=wrap;strokeColor=default;align=center;verticalAlign=middle;spacingLeft=5;fontFamily=Helvetica;fontSize=15;fontColor=#000000;fontStyle=1;fillColor=default;" vertex="1" parent="74IvplzY6ALWcZYi9SfG-206">
          <mxGeometry x="30" y="120" width="194" height="50" as="geometry" />
        </mxCell>
        <mxCell id="74IvplzY6ALWcZYi9SfG-207" value="" style="group" vertex="1" connectable="0" parent="74IvplzY6ALWcZYi9SfG-139">
          <mxGeometry x="19" y="380" width="260" height="230" as="geometry" />
        </mxCell>
        <mxCell id="74IvplzY6ALWcZYi9SfG-149" value="&lt;font style=&quot;font-size: 14px;&quot;&gt;&amp;lt;&amp;lt;executionEnvironment&amp;gt;&amp;gt;&lt;/font&gt;&lt;div&gt;&lt;b&gt;&lt;font style=&quot;font-size: 14px;&quot;&gt;DataService Container&lt;/font&gt;&lt;/b&gt;&lt;/div&gt;" style="verticalAlign=top;align=center;shape=cube;size=10;direction=south;html=1;boundedLbl=1;spacingLeft=5;whiteSpace=wrap;fontSize=13;fontColor=#000000;fillColor=#f5f5f5;strokeColor=#666666;" vertex="1" parent="74IvplzY6ALWcZYi9SfG-207">
          <mxGeometry width="260" height="230" as="geometry" />
        </mxCell>
        <mxCell id="74IvplzY6ALWcZYi9SfG-150" value="&amp;lt;&amp;lt;executionEnvironment&amp;gt;&amp;gt;&lt;div&gt;&lt;b&gt;JVM&lt;/b&gt;&lt;/div&gt;" style="verticalAlign=top;align=center;shape=cube;size=10;direction=south;html=1;boundedLbl=1;spacingLeft=5;whiteSpace=wrap;fontSize=14;fontColor=#000000;" vertex="1" parent="74IvplzY6ALWcZYi9SfG-207">
          <mxGeometry x="12" y="60" width="230" height="120" as="geometry" />
        </mxCell>
        <mxCell id="74IvplzY6ALWcZYi9SfG-151" value="&amp;lt;&amp;lt;artifact&amp;gt;&amp;gt;&lt;div&gt;DataService.jar&lt;/div&gt;" style="html=1;whiteSpace=wrap;strokeColor=default;align=center;verticalAlign=middle;spacingLeft=5;fontFamily=Helvetica;fontSize=15;fontColor=#000000;fontStyle=1;fillColor=default;" vertex="1" parent="74IvplzY6ALWcZYi9SfG-207">
          <mxGeometry x="30" y="120" width="194" height="50" as="geometry" />
        </mxCell>
        <mxCell id="74IvplzY6ALWcZYi9SfG-209" style="edgeStyle=orthogonalEdgeStyle;shape=connector;rounded=0;orthogonalLoop=1;jettySize=auto;html=1;exitX=0;exitY=0;exitDx=120;exitDy=260;exitPerimeter=0;entryX=0;entryY=0;entryDx=110;entryDy=0;entryPerimeter=0;strokeColor=#FF1C10;align=center;verticalAlign=middle;fontFamily=Helvetica;fontSize=15;fontColor=default;fontStyle=0;labelBackgroundColor=default;endArrow=none;endFill=0;strokeWidth=2;" edge="1" parent="74IvplzY6ALWcZYi9SfG-139" source="74IvplzY6ALWcZYi9SfG-167" target="74IvplzY6ALWcZYi9SfG-149">
          <mxGeometry relative="1" as="geometry" />
        </mxCell>
        <mxCell id="74IvplzY6ALWcZYi9SfG-261" value="&amp;lt;&amp;lt;gRPC&amp;gt;&amp;gt;" style="edgeLabel;html=1;align=center;verticalAlign=middle;resizable=0;points=[];strokeColor=default;spacingLeft=5;fontFamily=Helvetica;fontSize=16;fontColor=default;fontStyle=0;labelBackgroundColor=default;fillColor=default;gradientColor=none;" vertex="1" connectable="0" parent="74IvplzY6ALWcZYi9SfG-209">
          <mxGeometry x="0.0006" y="-1" relative="1" as="geometry">
            <mxPoint as="offset" />
          </mxGeometry>
        </mxCell>
        <mxCell id="74IvplzY6ALWcZYi9SfG-274" value="*" style="edgeLabel;html=1;align=center;verticalAlign=middle;resizable=0;points=[];strokeColor=default;spacingLeft=5;fontFamily=Helvetica;fontSize=16;fontColor=default;fontStyle=0;labelBackgroundColor=default;fillColor=default;gradientColor=none;" vertex="1" connectable="0" parent="74IvplzY6ALWcZYi9SfG-209">
          <mxGeometry x="0.916" y="1" relative="1" as="geometry">
            <mxPoint as="offset" />
          </mxGeometry>
        </mxCell>
        <mxCell id="74IvplzY6ALWcZYi9SfG-286" value="1" style="edgeLabel;html=1;align=center;verticalAlign=middle;resizable=0;points=[];strokeColor=default;spacingLeft=5;fontFamily=Helvetica;fontSize=16;fontColor=default;fontStyle=0;labelBackgroundColor=default;fillColor=default;gradientColor=none;" vertex="1" connectable="0" parent="74IvplzY6ALWcZYi9SfG-209">
          <mxGeometry x="-0.9067" y="-1" relative="1" as="geometry">
            <mxPoint x="-5" as="offset" />
          </mxGeometry>
        </mxCell>
        <mxCell id="74IvplzY6ALWcZYi9SfG-210" style="edgeStyle=orthogonalEdgeStyle;shape=connector;rounded=0;orthogonalLoop=1;jettySize=auto;html=1;exitX=0;exitY=0;exitDx=120;exitDy=260;exitPerimeter=0;entryX=0;entryY=0;entryDx=110;entryDy=0;entryPerimeter=0;strokeColor=#FF1C10;align=center;verticalAlign=middle;fontFamily=Helvetica;fontSize=15;fontColor=default;fontStyle=0;labelBackgroundColor=default;endArrow=none;endFill=0;strokeWidth=2;" edge="1" parent="74IvplzY6ALWcZYi9SfG-139" source="74IvplzY6ALWcZYi9SfG-143" target="74IvplzY6ALWcZYi9SfG-167">
          <mxGeometry relative="1" as="geometry" />
        </mxCell>
        <mxCell id="74IvplzY6ALWcZYi9SfG-278" value="*" style="edgeLabel;html=1;align=center;verticalAlign=middle;resizable=0;points=[];strokeColor=default;spacingLeft=5;fontFamily=Helvetica;fontSize=16;fontColor=default;fontStyle=0;labelBackgroundColor=default;fillColor=default;gradientColor=none;" vertex="1" connectable="0" parent="74IvplzY6ALWcZYi9SfG-210">
          <mxGeometry x="-0.8926" y="-1" relative="1" as="geometry">
            <mxPoint as="offset" />
          </mxGeometry>
        </mxCell>
        <mxCell id="74IvplzY6ALWcZYi9SfG-285" value="1" style="edgeLabel;html=1;align=center;verticalAlign=middle;resizable=0;points=[];strokeColor=default;spacingLeft=5;fontFamily=Helvetica;fontSize=16;fontColor=default;fontStyle=0;labelBackgroundColor=default;fillColor=default;gradientColor=none;" vertex="1" connectable="0" parent="74IvplzY6ALWcZYi9SfG-210">
          <mxGeometry x="0.8463" relative="1" as="geometry">
            <mxPoint x="-3" as="offset" />
          </mxGeometry>
        </mxCell>
        <mxCell id="74IvplzY6ALWcZYi9SfG-238" style="edgeStyle=orthogonalEdgeStyle;shape=connector;rounded=0;orthogonalLoop=1;jettySize=auto;html=1;entryX=0.788;entryY=-0.004;entryDx=0;entryDy=0;entryPerimeter=0;strokeColor=#FF1C10;align=center;verticalAlign=middle;fontFamily=Helvetica;fontSize=16;fontColor=default;fontStyle=0;labelBackgroundColor=default;resizable=0;endArrow=none;endFill=0;strokeWidth=2;" edge="1" parent="74IvplzY6ALWcZYi9SfG-139" target="74IvplzY6ALWcZYi9SfG-149">
          <mxGeometry relative="1" as="geometry">
            <mxPoint x="649" y="560" as="sourcePoint" />
            <mxPoint x="449" y="590" as="targetPoint" />
            <Array as="points">
              <mxPoint x="649" y="561" />
            </Array>
          </mxGeometry>
        </mxCell>
        <mxCell id="74IvplzY6ALWcZYi9SfG-263" value="&amp;lt;&amp;lt;gRPC&amp;gt;&amp;gt;" style="edgeLabel;html=1;align=center;verticalAlign=middle;resizable=0;points=[];strokeColor=default;spacingLeft=5;fontFamily=Helvetica;fontSize=16;fontColor=default;fontStyle=0;labelBackgroundColor=default;fillColor=default;gradientColor=none;" vertex="1" connectable="0" parent="74IvplzY6ALWcZYi9SfG-238">
          <mxGeometry x="-0.0657" y="-5" relative="1" as="geometry">
            <mxPoint as="offset" />
          </mxGeometry>
        </mxCell>
        <mxCell id="74IvplzY6ALWcZYi9SfG-275" value="1" style="edgeLabel;html=1;align=center;verticalAlign=middle;resizable=0;points=[];strokeColor=default;spacingLeft=5;fontFamily=Helvetica;fontSize=16;fontColor=default;fontStyle=0;labelBackgroundColor=default;fillColor=default;gradientColor=none;" vertex="1" connectable="0" parent="74IvplzY6ALWcZYi9SfG-238">
          <mxGeometry x="0.9263" relative="1" as="geometry">
            <mxPoint as="offset" />
          </mxGeometry>
        </mxCell>
        <mxCell id="74IvplzY6ALWcZYi9SfG-277" value="1" style="edgeLabel;html=1;align=center;verticalAlign=middle;resizable=0;points=[];strokeColor=default;spacingLeft=5;fontFamily=Helvetica;fontSize=16;fontColor=default;fontStyle=0;labelBackgroundColor=default;fillColor=default;gradientColor=none;" vertex="1" connectable="0" parent="74IvplzY6ALWcZYi9SfG-238">
          <mxGeometry x="-0.9585" y="-2" relative="1" as="geometry">
            <mxPoint x="-7" as="offset" />
          </mxGeometry>
        </mxCell>
        <mxCell id="74IvplzY6ALWcZYi9SfG-239" style="edgeStyle=orthogonalEdgeStyle;shape=connector;rounded=0;orthogonalLoop=1;jettySize=auto;html=1;exitX=0;exitY=0;exitDx=0;exitDy=125;exitPerimeter=0;strokeColor=#FF1C10;align=center;verticalAlign=middle;fontFamily=Helvetica;fontSize=16;fontColor=default;fontStyle=0;labelBackgroundColor=default;resizable=0;endArrow=none;endFill=0;strokeWidth=2;" edge="1" parent="74IvplzY6ALWcZYi9SfG-139" source="74IvplzY6ALWcZYi9SfG-149">
          <mxGeometry relative="1" as="geometry">
            <mxPoint x="145" y="320" as="targetPoint" />
          </mxGeometry>
        </mxCell>
        <mxCell id="74IvplzY6ALWcZYi9SfG-262" value="&amp;lt;&amp;lt;gRPC&amp;gt;&amp;gt;" style="edgeLabel;html=1;align=center;verticalAlign=middle;resizable=0;points=[];strokeColor=default;spacingLeft=5;fontFamily=Helvetica;fontSize=16;fontColor=default;fontStyle=0;labelBackgroundColor=default;fillColor=default;gradientColor=none;" vertex="1" connectable="0" parent="74IvplzY6ALWcZYi9SfG-239">
          <mxGeometry x="0.1846" relative="1" as="geometry">
            <mxPoint as="offset" />
          </mxGeometry>
        </mxCell>
        <mxCell id="74IvplzY6ALWcZYi9SfG-271" value="1" style="edgeLabel;html=1;align=center;verticalAlign=middle;resizable=0;points=[];strokeColor=default;spacingLeft=5;fontFamily=Helvetica;fontSize=16;fontColor=default;fontStyle=0;labelBackgroundColor=default;fillColor=default;gradientColor=none;" vertex="1" connectable="0" parent="74IvplzY6ALWcZYi9SfG-239">
          <mxGeometry x="0.7888" y="2" relative="1" as="geometry">
            <mxPoint x="-14" y="-7" as="offset" />
          </mxGeometry>
        </mxCell>
        <mxCell id="74IvplzY6ALWcZYi9SfG-272" value="1" style="edgeLabel;html=1;align=center;verticalAlign=middle;resizable=0;points=[];strokeColor=default;spacingLeft=5;fontFamily=Helvetica;fontSize=16;fontColor=default;fontStyle=0;labelBackgroundColor=default;fillColor=default;gradientColor=none;" vertex="1" connectable="0" parent="74IvplzY6ALWcZYi9SfG-239">
          <mxGeometry x="-0.8499" y="1" relative="1" as="geometry">
            <mxPoint as="offset" />
          </mxGeometry>
        </mxCell>
        <mxCell id="74IvplzY6ALWcZYi9SfG-289" value="&amp;lt;&amp;lt;artifact&amp;gt;&amp;gt;&lt;div&gt;OptimizationEngine.py&lt;/div&gt;" style="html=1;whiteSpace=wrap;strokeColor=default;align=center;verticalAlign=middle;spacingLeft=5;fontFamily=Helvetica;fontSize=15;fontColor=#000000;fontStyle=1;fillColor=default;" vertex="1" parent="74IvplzY6ALWcZYi9SfG-139">
          <mxGeometry x="50" y="220" width="194" height="40" as="geometry" />
        </mxCell>
        <mxCell id="74IvplzY6ALWcZYi9SfG-200" value="&amp;lt;&amp;lt;artifact&amp;gt;&amp;gt;&lt;div&gt;LoadBalancerConfig.yaml&lt;/div&gt;" style="html=1;whiteSpace=wrap;strokeColor=default;align=center;verticalAlign=middle;spacingLeft=5;fontFamily=Helvetica;fontSize=15;fontColor=#000000;fontStyle=1;fillColor=default;" vertex="1" parent="1">
          <mxGeometry x="780" y="550" width="192" height="42" as="geometry" />
        </mxCell>
        <mxCell id="74IvplzY6ALWcZYi9SfG-218" style="edgeStyle=orthogonalEdgeStyle;shape=connector;rounded=0;orthogonalLoop=1;jettySize=auto;html=1;exitX=0;exitY=0;exitDx=65;exitDy=989;exitPerimeter=0;entryX=0;entryY=0;entryDx=62.5;entryDy=989;entryPerimeter=0;strokeColor=#7F00FF;align=center;verticalAlign=middle;fontFamily=Helvetica;fontSize=15;fontColor=default;fontStyle=0;labelBackgroundColor=default;endArrow=none;endFill=0;strokeWidth=2;" edge="1" parent="1" source="74IvplzY6ALWcZYi9SfG-84" target="74IvplzY6ALWcZYi9SfG-82">
          <mxGeometry relative="1" as="geometry" />
        </mxCell>
        <mxCell id="74IvplzY6ALWcZYi9SfG-219" value="1" style="text;html=1;align=center;verticalAlign=middle;resizable=0;points=[];autosize=1;strokeColor=none;fillColor=none;fontFamily=Helvetica;fontSize=15;fontColor=default;fontStyle=0;labelBackgroundColor=default;" vertex="1" parent="1">
          <mxGeometry x="365" y="398" width="30" height="30" as="geometry" />
        </mxCell>
        <mxCell id="74IvplzY6ALWcZYi9SfG-220" value="1" style="text;html=1;align=center;verticalAlign=middle;resizable=0;points=[];autosize=1;strokeColor=none;fillColor=none;fontFamily=Helvetica;fontSize=15;fontColor=default;fontStyle=0;labelBackgroundColor=default;" vertex="1" parent="1">
          <mxGeometry x="365" y="518" width="30" height="30" as="geometry" />
        </mxCell>
        <mxCell id="74IvplzY6ALWcZYi9SfG-221" style="edgeStyle=orthogonalEdgeStyle;shape=connector;rounded=0;orthogonalLoop=1;jettySize=auto;html=1;exitX=0;exitY=0;exitDx=385;exitDy=990;exitPerimeter=0;entryX=0.707;entryY=1;entryDx=0;entryDy=0;entryPerimeter=0;strokeColor=#FF1C10;align=center;verticalAlign=middle;fontFamily=Helvetica;fontSize=15;fontColor=default;fontStyle=0;labelBackgroundColor=default;endArrow=none;endFill=0;strokeWidth=2;" edge="1" parent="1" source="74IvplzY6ALWcZYi9SfG-154" target="74IvplzY6ALWcZYi9SfG-82">
          <mxGeometry relative="1" as="geometry" />
        </mxCell>
        <mxCell id="74IvplzY6ALWcZYi9SfG-222" value="1" style="text;html=1;align=center;verticalAlign=middle;resizable=0;points=[];autosize=1;strokeColor=none;fillColor=none;fontFamily=Helvetica;fontSize=15;fontColor=default;fontStyle=0;labelBackgroundColor=default;" vertex="1" parent="1">
          <mxGeometry x="365" y="558" width="30" height="30" as="geometry" />
        </mxCell>
        <mxCell id="74IvplzY6ALWcZYi9SfG-223" value="&lt;font style=&quot;font-size: 20px;&quot;&gt;&lt;b&gt;*&lt;/b&gt;&lt;/font&gt;" style="text;html=1;align=center;verticalAlign=middle;resizable=0;points=[];autosize=1;strokeColor=none;fillColor=none;fontFamily=Helvetica;fontSize=15;fontColor=default;fontStyle=0;labelBackgroundColor=default;" vertex="1" parent="1">
          <mxGeometry x="365" y="973" width="30" height="40" as="geometry" />
        </mxCell>
        <mxCell id="74IvplzY6ALWcZYi9SfG-234" style="edgeStyle=orthogonalEdgeStyle;shape=connector;rounded=0;orthogonalLoop=1;jettySize=auto;html=1;exitX=0;exitY=0;exitDx=230.00000000000003;exitDy=135;exitPerimeter=0;entryX=0;entryY=0;entryDx=0;entryDy=210;entryPerimeter=0;strokeColor=#000000;align=center;verticalAlign=middle;fontFamily=Helvetica;fontSize=16;fontColor=default;fontStyle=0;labelBackgroundColor=default;resizable=0;endArrow=none;endFill=0;strokeWidth=2;" edge="1" parent="1" source="74IvplzY6ALWcZYi9SfG-149" target="74IvplzY6ALWcZYi9SfG-74">
          <mxGeometry relative="1" as="geometry" />
        </mxCell>
        <mxCell id="74IvplzY6ALWcZYi9SfG-240" value="&amp;lt;&amp;lt;Redis&amp;gt;&amp;gt;" style="edgeLabel;html=1;align=center;verticalAlign=middle;resizable=0;points=[];strokeColor=default;spacingLeft=5;fontFamily=Helvetica;fontSize=16;fontColor=default;fontStyle=0;labelBackgroundColor=default;fillColor=default;gradientColor=none;" vertex="1" connectable="0" parent="74IvplzY6ALWcZYi9SfG-234">
          <mxGeometry x="0.1388" y="-3" relative="1" as="geometry">
            <mxPoint x="-33" as="offset" />
          </mxGeometry>
        </mxCell>
        <mxCell id="74IvplzY6ALWcZYi9SfG-269" value="1" style="edgeLabel;html=1;align=center;verticalAlign=middle;resizable=0;points=[];strokeColor=default;spacingLeft=5;fontFamily=Helvetica;fontSize=16;fontColor=default;fontStyle=0;labelBackgroundColor=default;fillColor=default;gradientColor=none;" vertex="1" connectable="0" parent="74IvplzY6ALWcZYi9SfG-234">
          <mxGeometry x="0.8045" y="-3" relative="1" as="geometry">
            <mxPoint as="offset" />
          </mxGeometry>
        </mxCell>
        <mxCell id="74IvplzY6ALWcZYi9SfG-270" value="1" style="edgeLabel;html=1;align=center;verticalAlign=middle;resizable=0;points=[];strokeColor=default;spacingLeft=5;fontFamily=Helvetica;fontSize=16;fontColor=default;fontStyle=0;labelBackgroundColor=default;fillColor=default;gradientColor=none;" vertex="1" connectable="0" parent="74IvplzY6ALWcZYi9SfG-234">
          <mxGeometry x="-0.7339" y="2" relative="1" as="geometry">
            <mxPoint as="offset" />
          </mxGeometry>
        </mxCell>
        <mxCell id="74IvplzY6ALWcZYi9SfG-235" style="edgeStyle=orthogonalEdgeStyle;shape=connector;rounded=0;orthogonalLoop=1;jettySize=auto;html=1;exitX=0;exitY=0;exitDx=0;exitDy=206.5;exitPerimeter=0;entryX=1.008;entryY=0.211;entryDx=0;entryDy=0;entryPerimeter=0;strokeColor=light-dark(#FF8000,#CDCDFF);align=center;verticalAlign=middle;fontFamily=Helvetica;fontSize=16;fontColor=default;fontStyle=0;labelBackgroundColor=default;resizable=0;endArrow=none;endFill=0;strokeWidth=2;" edge="1" parent="1" source="74IvplzY6ALWcZYi9SfG-72" target="74IvplzY6ALWcZYi9SfG-149">
          <mxGeometry relative="1" as="geometry" />
        </mxCell>
        <mxCell id="74IvplzY6ALWcZYi9SfG-258" value="&amp;lt;&amp;lt;JDBC&amp;gt;&amp;gt;" style="edgeLabel;html=1;align=center;verticalAlign=middle;resizable=0;points=[];strokeColor=default;spacingLeft=5;fontFamily=Helvetica;fontSize=16;fontColor=default;fontStyle=0;labelBackgroundColor=default;fillColor=default;gradientColor=none;" vertex="1" connectable="0" parent="74IvplzY6ALWcZYi9SfG-235">
          <mxGeometry x="0.0903" y="4" relative="1" as="geometry">
            <mxPoint as="offset" />
          </mxGeometry>
        </mxCell>
        <mxCell id="74IvplzY6ALWcZYi9SfG-268" value="1(Master) + *(Slave)" style="edgeLabel;html=1;align=center;verticalAlign=middle;resizable=0;points=[];strokeColor=default;spacingLeft=5;fontFamily=Helvetica;fontSize=16;fontColor=default;fontStyle=0;labelBackgroundColor=default;fillColor=default;gradientColor=none;" vertex="1" connectable="0" parent="74IvplzY6ALWcZYi9SfG-235">
          <mxGeometry x="-0.9505" relative="1" as="geometry">
            <mxPoint as="offset" />
          </mxGeometry>
        </mxCell>
        <mxCell id="74IvplzY6ALWcZYi9SfG-276" value="1" style="edgeLabel;html=1;align=center;verticalAlign=middle;resizable=0;points=[];strokeColor=default;spacingLeft=5;fontFamily=Helvetica;fontSize=16;fontColor=default;fontStyle=0;labelBackgroundColor=default;fillColor=default;gradientColor=none;" vertex="1" connectable="0" parent="74IvplzY6ALWcZYi9SfG-235">
          <mxGeometry x="0.9641" y="1" relative="1" as="geometry">
            <mxPoint as="offset" />
          </mxGeometry>
        </mxCell>
        <mxCell id="74IvplzY6ALWcZYi9SfG-236" style="edgeStyle=orthogonalEdgeStyle;shape=connector;rounded=0;orthogonalLoop=1;jettySize=auto;html=1;exitX=0;exitY=0;exitDx=150;exitDy=430;exitPerimeter=0;entryX=0;entryY=0;entryDx=65;entryDy=0;entryPerimeter=0;strokeColor=#0000FF;align=center;verticalAlign=middle;fontFamily=Helvetica;fontSize=16;fontColor=default;fontStyle=0;labelBackgroundColor=default;resizable=0;endArrow=none;endFill=0;strokeWidth=2;" edge="1" parent="1" source="74IvplzY6ALWcZYi9SfG-63" target="74IvplzY6ALWcZYi9SfG-180">
          <mxGeometry relative="1" as="geometry" />
        </mxCell>
        <mxCell id="74IvplzY6ALWcZYi9SfG-253" value="&amp;lt;&amp;lt;MQTT&amp;gt;&amp;gt;" style="edgeLabel;html=1;align=center;verticalAlign=middle;resizable=0;points=[];strokeColor=default;spacingLeft=5;fontFamily=Helvetica;fontSize=16;fontColor=default;fontStyle=0;labelBackgroundColor=default;fillColor=default;gradientColor=none;" vertex="1" connectable="0" parent="74IvplzY6ALWcZYi9SfG-236">
          <mxGeometry x="0.0404" y="2" relative="1" as="geometry">
            <mxPoint as="offset" />
          </mxGeometry>
        </mxCell>
        <mxCell id="74IvplzY6ALWcZYi9SfG-255" value="*" style="edgeLabel;html=1;align=center;verticalAlign=middle;resizable=0;points=[];strokeColor=default;spacingLeft=5;fontFamily=Helvetica;fontSize=22;fontColor=default;fontStyle=1;labelBackgroundColor=default;fillColor=default;gradientColor=none;" vertex="1" connectable="0" parent="74IvplzY6ALWcZYi9SfG-236">
          <mxGeometry x="-0.8992" y="2" relative="1" as="geometry">
            <mxPoint as="offset" />
          </mxGeometry>
        </mxCell>
        <mxCell id="74IvplzY6ALWcZYi9SfG-237" style="edgeStyle=orthogonalEdgeStyle;shape=connector;rounded=0;orthogonalLoop=1;jettySize=auto;html=1;exitX=0;exitY=0;exitDx=140;exitDy=0;exitPerimeter=0;entryX=0;entryY=0;entryDx=110.00000000000001;entryDy=0;entryPerimeter=0;strokeColor=#0000FF;align=center;verticalAlign=middle;fontFamily=Helvetica;fontSize=16;fontColor=default;fontStyle=0;labelBackgroundColor=default;resizable=0;endArrow=none;endFill=0;strokeWidth=2;" edge="1" parent="1" source="74IvplzY6ALWcZYi9SfG-63" target="74IvplzY6ALWcZYi9SfG-143">
          <mxGeometry relative="1" as="geometry" />
        </mxCell>
        <mxCell id="74IvplzY6ALWcZYi9SfG-256" value="&amp;lt;&amp;lt;MQTT&amp;gt;&amp;gt;" style="edgeLabel;html=1;align=center;verticalAlign=middle;resizable=0;points=[];strokeColor=default;spacingLeft=5;fontFamily=Helvetica;fontSize=16;fontColor=default;fontStyle=0;labelBackgroundColor=default;fillColor=default;gradientColor=none;" vertex="1" connectable="0" parent="74IvplzY6ALWcZYi9SfG-237">
          <mxGeometry x="0.1534" y="-1" relative="1" as="geometry">
            <mxPoint as="offset" />
          </mxGeometry>
        </mxCell>
        <mxCell id="74IvplzY6ALWcZYi9SfG-264" value="&lt;font style=&quot;font-size: 21px;&quot;&gt;&lt;b&gt;*&lt;/b&gt;&lt;/font&gt;" style="edgeLabel;html=1;align=center;verticalAlign=middle;resizable=0;points=[];strokeColor=default;spacingLeft=5;fontFamily=Helvetica;fontSize=16;fontColor=default;fontStyle=0;labelBackgroundColor=default;fillColor=default;gradientColor=none;" vertex="1" connectable="0" parent="74IvplzY6ALWcZYi9SfG-237">
          <mxGeometry x="-0.9275" relative="1" as="geometry">
            <mxPoint as="offset" />
          </mxGeometry>
        </mxCell>
        <mxCell id="74IvplzY6ALWcZYi9SfG-265" value="&lt;font style=&quot;font-size: 21px;&quot;&gt;&lt;b&gt;1&lt;/b&gt;&lt;/font&gt;" style="edgeLabel;html=1;align=center;verticalAlign=middle;resizable=0;points=[];strokeColor=default;spacingLeft=5;fontFamily=Helvetica;fontSize=16;fontColor=default;fontStyle=0;labelBackgroundColor=default;fillColor=default;gradientColor=none;" vertex="1" connectable="0" parent="74IvplzY6ALWcZYi9SfG-237">
          <mxGeometry x="0.9453" relative="1" as="geometry">
            <mxPoint x="1" as="offset" />
          </mxGeometry>
        </mxCell>
        <mxCell id="74IvplzY6ALWcZYi9SfG-241" style="edgeStyle=orthogonalEdgeStyle;shape=connector;rounded=0;orthogonalLoop=1;jettySize=auto;html=1;exitX=0;exitY=0;exitDx=85;exitDy=0;exitPerimeter=0;entryX=0;entryY=0;entryDx=100;entryDy=423;entryPerimeter=0;strokeColor=#FFB570;align=center;verticalAlign=middle;fontFamily=Helvetica;fontSize=16;fontColor=default;fontStyle=0;labelBackgroundColor=default;resizable=0;endArrow=none;endFill=0;strokeWidth=2;" edge="1" parent="1" source="74IvplzY6ALWcZYi9SfG-74" target="74IvplzY6ALWcZYi9SfG-72">
          <mxGeometry relative="1" as="geometry" />
        </mxCell>
        <mxCell id="74IvplzY6ALWcZYi9SfG-257" value="&amp;lt;&amp;lt;JDBC&amp;gt;&amp;gt;" style="edgeLabel;html=1;align=center;verticalAlign=middle;resizable=0;points=[];strokeColor=default;spacingLeft=5;fontFamily=Helvetica;fontSize=16;fontColor=default;fontStyle=0;labelBackgroundColor=default;fillColor=default;gradientColor=none;" vertex="1" connectable="0" parent="74IvplzY6ALWcZYi9SfG-241">
          <mxGeometry x="-0.1732" relative="1" as="geometry">
            <mxPoint as="offset" />
          </mxGeometry>
        </mxCell>
        <mxCell id="74IvplzY6ALWcZYi9SfG-266" value="1(Master)&lt;div&gt;+ *(Slave)&lt;/div&gt;" style="edgeLabel;html=1;align=center;verticalAlign=middle;resizable=0;points=[];strokeColor=default;spacingLeft=5;fontFamily=Helvetica;fontSize=16;fontColor=default;fontStyle=0;labelBackgroundColor=default;fillColor=default;gradientColor=none;" vertex="1" connectable="0" parent="74IvplzY6ALWcZYi9SfG-241">
          <mxGeometry x="0.8097" y="-1" relative="1" as="geometry">
            <mxPoint x="25" y="29" as="offset" />
          </mxGeometry>
        </mxCell>
        <mxCell id="74IvplzY6ALWcZYi9SfG-267" value="1" style="edgeLabel;html=1;align=center;verticalAlign=middle;resizable=0;points=[];strokeColor=default;spacingLeft=5;fontFamily=Helvetica;fontSize=16;fontColor=default;fontStyle=0;labelBackgroundColor=default;fillColor=default;gradientColor=none;" vertex="1" connectable="0" parent="74IvplzY6ALWcZYi9SfG-241">
          <mxGeometry x="-0.9064" y="2" relative="1" as="geometry">
            <mxPoint y="-13" as="offset" />
          </mxGeometry>
        </mxCell>
        <mxCell id="74IvplzY6ALWcZYi9SfG-247" style="edgeStyle=orthogonalEdgeStyle;shape=connector;rounded=0;orthogonalLoop=1;jettySize=auto;html=1;exitX=0;exitY=0;exitDx=135;exitDy=920;exitPerimeter=0;entryX=0.885;entryY=0.071;entryDx=0;entryDy=0;entryPerimeter=0;strokeColor=#7F00FF;align=center;verticalAlign=middle;fontFamily=Helvetica;fontSize=16;fontColor=default;fontStyle=0;labelBackgroundColor=default;resizable=0;endArrow=none;endFill=0;strokeWidth=2;" edge="1" parent="1" source="74IvplzY6ALWcZYi9SfG-242" target="74IvplzY6ALWcZYi9SfG-219">
          <mxGeometry relative="1" as="geometry">
            <Array as="points">
              <mxPoint x="370" y="215" />
              <mxPoint x="370" y="390" />
            </Array>
          </mxGeometry>
        </mxCell>
        <mxCell id="74IvplzY6ALWcZYi9SfG-248" value="1" style="text;html=1;align=center;verticalAlign=middle;resizable=0;points=[];autosize=1;strokeColor=none;fillColor=none;fontFamily=Helvetica;fontSize=16;fontColor=default;fontStyle=0;labelBackgroundColor=default;" vertex="1" parent="1">
          <mxGeometry x="365" y="368" width="30" height="30" as="geometry" />
        </mxCell>
        <mxCell id="74IvplzY6ALWcZYi9SfG-249" value="1" style="text;html=1;align=center;verticalAlign=middle;resizable=0;points=[];autosize=1;strokeColor=none;fillColor=none;fontFamily=Helvetica;fontSize=16;fontColor=default;fontStyle=0;labelBackgroundColor=default;" vertex="1" parent="1">
          <mxGeometry x="395" y="198" width="30" height="30" as="geometry" />
        </mxCell>
        <mxCell id="74IvplzY6ALWcZYi9SfG-250" style="edgeStyle=orthogonalEdgeStyle;shape=connector;rounded=0;orthogonalLoop=1;jettySize=auto;html=1;exitX=0;exitY=0;exitDx=75;exitDy=430;exitPerimeter=0;strokeColor=#7F00FF;align=center;verticalAlign=middle;fontFamily=Helvetica;fontSize=16;fontColor=default;fontStyle=0;labelBackgroundColor=default;resizable=0;endArrow=none;endFill=0;strokeWidth=2;" edge="1" parent="1" source="74IvplzY6ALWcZYi9SfG-180">
          <mxGeometry relative="1" as="geometry">
            <mxPoint x="416" y="171" as="targetPoint" />
            <Array as="points">
              <mxPoint x="360" y="1675" />
              <mxPoint x="360" y="171" />
            </Array>
          </mxGeometry>
        </mxCell>
        <mxCell id="74IvplzY6ALWcZYi9SfG-251" value="*" style="edgeLabel;html=1;align=center;verticalAlign=middle;resizable=0;points=[];strokeColor=default;spacingLeft=5;fontFamily=Helvetica;fontSize=25;fontColor=default;fontStyle=1;labelBackgroundColor=default;fillColor=default;gradientColor=none;" vertex="1" connectable="0" parent="74IvplzY6ALWcZYi9SfG-250">
          <mxGeometry x="0.9844" y="-3" relative="1" as="geometry">
            <mxPoint as="offset" />
          </mxGeometry>
        </mxCell>
        <mxCell id="74IvplzY6ALWcZYi9SfG-252" value="1" style="text;html=1;align=center;verticalAlign=middle;resizable=0;points=[];autosize=1;strokeColor=none;fillColor=none;fontFamily=Helvetica;fontSize=16;fontColor=default;fontStyle=0;labelBackgroundColor=default;" vertex="1" parent="1">
          <mxGeometry x="365" y="1658" width="30" height="30" as="geometry" />
        </mxCell>
        <mxCell id="74IvplzY6ALWcZYi9SfG-254" value="1" style="text;html=1;align=center;verticalAlign=middle;resizable=0;points=[];autosize=1;strokeColor=none;fillColor=none;fontFamily=Helvetica;fontSize=16;fontColor=default;fontStyle=0;labelBackgroundColor=default;" vertex="1" parent="1">
          <mxGeometry x="815" y="1648" width="30" height="30" as="geometry" />
        </mxCell>
        <mxCell id="74IvplzY6ALWcZYi9SfG-299" value="&lt;font style=&quot;font-size: 17px;&quot;&gt;&amp;lt;&amp;lt;executionEnvironment&amp;gt;&amp;gt;&lt;/font&gt;&lt;div style=&quot;font-size: 17px;&quot;&gt;&lt;b&gt;Python Runtime&lt;/b&gt;&lt;/div&gt;" style="verticalAlign=top;align=center;shape=cube;size=10;direction=south;html=1;boundedLbl=1;spacingLeft=5;whiteSpace=wrap;fillColor=#eeeeee;strokeColor=#36393d;" vertex="1" parent="1">
          <mxGeometry x="999.46" y="1740" width="330" height="170" as="geometry" />
        </mxCell>
        <mxCell id="74IvplzY6ALWcZYi9SfG-300" value="&amp;lt;&amp;lt;artifact&amp;gt;&amp;gt;&lt;div&gt;HomeGatewayApp.py&lt;/div&gt;" style="html=1;whiteSpace=wrap;strokeColor=default;align=center;verticalAlign=middle;spacingLeft=5;fontFamily=Helvetica;fontSize=16;fontColor=#000000;fontStyle=1;fillColor=default;" vertex="1" parent="1">
          <mxGeometry x="1004.31" y="1800" width="165.74" height="38.62" as="geometry" />
        </mxCell>
        <mxCell id="74IvplzY6ALWcZYi9SfG-301" value="&amp;lt;&amp;lt;artifact&amp;gt;&amp;gt;&lt;div&gt;DeviceMonitor.py&lt;/div&gt;" style="html=1;whiteSpace=wrap;strokeColor=default;align=center;verticalAlign=middle;spacingLeft=5;fontFamily=Helvetica;fontSize=16;fontColor=#000000;fontStyle=1;fillColor=default;" vertex="1" parent="1">
          <mxGeometry x="1183.23" y="1800" width="136.23" height="38.62" as="geometry" />
        </mxCell>
        <mxCell id="74IvplzY6ALWcZYi9SfG-302" value="&amp;lt;&amp;lt;artifact&amp;gt;&amp;gt;&lt;div&gt;HomeAssistant.pyz&lt;/div&gt;" style="html=1;whiteSpace=wrap;strokeColor=default;align=center;verticalAlign=middle;spacingLeft=5;fontFamily=Helvetica;fontSize=16;fontColor=#000000;fontStyle=1;fillColor=default;" vertex="1" parent="1">
          <mxGeometry x="1004.31" y="1849.9963850000004" width="178.92" height="45.35" as="geometry" />
        </mxCell>
      </root>
    </mxGraphModel>
  </diagram>
  <diagram id="YSjeId2q28tDUSY8OJud" name="Artifact">
    <mxGraphModel dx="1628" dy="1712" grid="1" gridSize="10" guides="1" tooltips="1" connect="1" arrows="1" fold="1" page="1" pageScale="1" pageWidth="827" pageHeight="1169" math="0" shadow="0">
      <root>
        <mxCell id="0" />
        <mxCell id="1" parent="0" />
        <mxCell id="6dHN_h9EE64nun_4hgVf-197" value="&lt;span&gt;CustomerUI&lt;/span&gt;" style="html=1;dropTarget=0;whiteSpace=wrap;strokeColor=default;align=center;verticalAlign=middle;spacingLeft=5;fontFamily=Helvetica;fontSize=16;fontColor=default;fontStyle=1;labelBackgroundColor=default;resizable=0;fillColor=default;gradientColor=none;" vertex="1" parent="1">
          <mxGeometry x="20" y="200" width="180" height="90" as="geometry" />
        </mxCell>
        <mxCell id="6dHN_h9EE64nun_4hgVf-198" value="" style="shape=module;jettyWidth=8;jettyHeight=4;strokeColor=default;align=center;verticalAlign=middle;spacingLeft=5;fontFamily=Helvetica;fontSize=16;fontColor=default;fontStyle=1;labelBackgroundColor=default;resizable=0;fillColor=default;gradientColor=none;" vertex="1" parent="6dHN_h9EE64nun_4hgVf-197">
          <mxGeometry x="1" width="20" height="20" relative="1" as="geometry">
            <mxPoint x="-27" y="7" as="offset" />
          </mxGeometry>
        </mxCell>
        <mxCell id="6dHN_h9EE64nun_4hgVf-214" style="shape=connector;rounded=0;orthogonalLoop=1;jettySize=auto;html=1;exitX=0;exitY=0.5;exitDx=0;exitDy=0;entryX=1;entryY=0.5;entryDx=0;entryDy=0;dashed=1;strokeColor=#000000;strokeWidth=1;align=center;verticalAlign=middle;fontFamily=Helvetica;fontSize=16;fontColor=default;fontStyle=1;labelBackgroundColor=default;resizable=0;endArrow=open;endFill=0;" edge="1" parent="1" source="6dHN_h9EE64nun_4hgVf-199" target="6dHN_h9EE64nun_4hgVf-197">
          <mxGeometry relative="1" as="geometry" />
        </mxCell>
        <mxCell id="6dHN_h9EE64nun_4hgVf-228" value="&amp;lt;&amp;lt;manifest&amp;gt;&amp;gt;" style="edgeLabel;html=1;align=center;verticalAlign=middle;resizable=0;points=[];strokeColor=default;spacingLeft=5;fontFamily=Helvetica;fontSize=16;fontColor=default;fontStyle=1;labelBackgroundColor=default;fillColor=default;gradientColor=none;" vertex="1" connectable="0" parent="6dHN_h9EE64nun_4hgVf-214">
          <mxGeometry x="0.1117" y="-3" relative="1" as="geometry">
            <mxPoint x="7" y="-12" as="offset" />
          </mxGeometry>
        </mxCell>
        <mxCell id="6dHN_h9EE64nun_4hgVf-272" style="shape=connector;rounded=0;orthogonalLoop=1;jettySize=auto;html=1;exitX=0;exitY=0.5;exitDx=0;exitDy=0;entryX=1;entryY=0.5;entryDx=0;entryDy=0;dashed=1;strokeColor=#000000;strokeWidth=1;align=center;verticalAlign=middle;fontFamily=Helvetica;fontSize=16;fontColor=default;fontStyle=1;labelBackgroundColor=default;resizable=0;endArrow=open;endFill=0;" edge="1" parent="1" source="6dHN_h9EE64nun_4hgVf-199" target="6dHN_h9EE64nun_4hgVf-217">
          <mxGeometry relative="1" as="geometry" />
        </mxCell>
        <mxCell id="6dHN_h9EE64nun_4hgVf-273" value="&amp;lt;&amp;lt;manifest&amp;gt;&amp;gt;" style="edgeLabel;html=1;align=center;verticalAlign=middle;resizable=0;points=[];strokeColor=default;spacingLeft=5;fontFamily=Helvetica;fontSize=16;fontColor=default;fontStyle=1;labelBackgroundColor=default;fillColor=default;gradientColor=none;" vertex="1" connectable="0" parent="6dHN_h9EE64nun_4hgVf-272">
          <mxGeometry x="-0.014" y="-3" relative="1" as="geometry">
            <mxPoint as="offset" />
          </mxGeometry>
        </mxCell>
        <mxCell id="6dHN_h9EE64nun_4hgVf-199" value="&amp;lt;&amp;lt;artifact&amp;gt;&amp;gt;&lt;div&gt;CustomerUI.apk&lt;/div&gt;" style="html=1;align=center;verticalAlign=middle;dashed=0;whiteSpace=wrap;strokeColor=default;spacingLeft=5;fontFamily=Helvetica;fontSize=16;fontColor=default;fontStyle=1;labelBackgroundColor=default;resizable=0;fillColor=default;gradientColor=none;" vertex="1" parent="1">
          <mxGeometry x="330" y="255" width="180" height="60" as="geometry" />
        </mxCell>
        <mxCell id="6dHN_h9EE64nun_4hgVf-223" style="shape=connector;rounded=0;orthogonalLoop=1;jettySize=auto;html=1;exitX=0;exitY=0.5;exitDx=0;exitDy=0;entryX=1;entryY=0.5;entryDx=0;entryDy=0;dashed=1;strokeColor=#000000;strokeWidth=1;align=center;verticalAlign=middle;fontFamily=Helvetica;fontSize=16;fontColor=default;fontStyle=1;labelBackgroundColor=default;resizable=0;endArrow=none;endFill=0;startArrow=open;startFill=0;" edge="1" parent="1" source="6dHN_h9EE64nun_4hgVf-215" target="6dHN_h9EE64nun_4hgVf-199">
          <mxGeometry relative="1" as="geometry">
            <mxPoint x="541" y="285" as="targetPoint" />
          </mxGeometry>
        </mxCell>
        <mxCell id="6dHN_h9EE64nun_4hgVf-230" value="&amp;lt;&amp;lt;depends on&amp;gt;&amp;gt;" style="edgeLabel;html=1;align=center;verticalAlign=middle;resizable=0;points=[];strokeColor=default;spacingLeft=5;fontFamily=Helvetica;fontSize=16;fontColor=default;fontStyle=1;labelBackgroundColor=default;fillColor=default;gradientColor=none;" vertex="1" connectable="0" parent="6dHN_h9EE64nun_4hgVf-223">
          <mxGeometry x="0.1543" relative="1" as="geometry">
            <mxPoint x="15" y="-15" as="offset" />
          </mxGeometry>
        </mxCell>
        <mxCell id="6dHN_h9EE64nun_4hgVf-215" value="&amp;lt;&amp;lt;artifact&amp;gt;&amp;gt;&lt;div&gt;HTTPS&lt;/div&gt;" style="html=1;align=center;verticalAlign=middle;dashed=0;whiteSpace=wrap;strokeColor=default;spacingLeft=5;fontFamily=Helvetica;fontSize=16;fontColor=default;fontStyle=1;labelBackgroundColor=default;resizable=0;fillColor=default;gradientColor=none;" vertex="1" parent="1">
          <mxGeometry x="660" y="210" width="180" height="60" as="geometry" />
        </mxCell>
        <mxCell id="6dHN_h9EE64nun_4hgVf-227" style="shape=connector;rounded=0;orthogonalLoop=1;jettySize=auto;html=1;exitX=0;exitY=0.5;exitDx=0;exitDy=0;dashed=1;strokeColor=#000000;strokeWidth=1;align=center;verticalAlign=middle;fontFamily=Helvetica;fontSize=16;fontColor=default;fontStyle=1;labelBackgroundColor=default;resizable=0;endArrow=none;endFill=0;entryX=1;entryY=0.5;entryDx=0;entryDy=0;startArrow=open;startFill=0;" edge="1" parent="1" source="6dHN_h9EE64nun_4hgVf-216" target="6dHN_h9EE64nun_4hgVf-199">
          <mxGeometry relative="1" as="geometry">
            <mxPoint x="510" y="437" as="targetPoint" />
          </mxGeometry>
        </mxCell>
        <mxCell id="6dHN_h9EE64nun_4hgVf-231" value="&amp;lt;&amp;lt;depends on&amp;gt;&amp;gt;" style="edgeLabel;html=1;align=center;verticalAlign=middle;resizable=0;points=[];strokeColor=default;spacingLeft=5;fontFamily=Helvetica;fontSize=16;fontColor=default;fontStyle=1;labelBackgroundColor=default;fillColor=default;gradientColor=none;" vertex="1" connectable="0" parent="6dHN_h9EE64nun_4hgVf-227">
          <mxGeometry x="-0.0254" y="-1" relative="1" as="geometry">
            <mxPoint x="1" y="-9" as="offset" />
          </mxGeometry>
        </mxCell>
        <mxCell id="6dHN_h9EE64nun_4hgVf-216" value="&amp;lt;&amp;lt;artifact&amp;gt;&amp;gt;&lt;div&gt;MQTT&lt;/div&gt;" style="html=1;align=center;verticalAlign=middle;dashed=0;whiteSpace=wrap;strokeColor=default;spacingLeft=5;fontFamily=Helvetica;fontSize=16;fontColor=default;fontStyle=1;labelBackgroundColor=default;resizable=0;fillColor=default;gradientColor=none;" vertex="1" parent="1">
          <mxGeometry x="660" y="280" width="180" height="60" as="geometry" />
        </mxCell>
        <mxCell id="6dHN_h9EE64nun_4hgVf-217" value="&lt;span&gt;AppCache&lt;/span&gt;" style="html=1;dropTarget=0;whiteSpace=wrap;strokeColor=default;align=center;verticalAlign=middle;spacingLeft=5;fontFamily=Helvetica;fontSize=16;fontColor=default;fontStyle=1;labelBackgroundColor=default;resizable=0;fillColor=default;gradientColor=none;" vertex="1" parent="1">
          <mxGeometry x="20" y="300" width="180" height="90" as="geometry" />
        </mxCell>
        <mxCell id="6dHN_h9EE64nun_4hgVf-218" value="" style="shape=module;jettyWidth=8;jettyHeight=4;strokeColor=default;align=center;verticalAlign=middle;spacingLeft=5;fontFamily=Helvetica;fontSize=16;fontColor=default;fontStyle=1;labelBackgroundColor=default;resizable=0;fillColor=default;gradientColor=none;" vertex="1" parent="6dHN_h9EE64nun_4hgVf-217">
          <mxGeometry x="1" width="20" height="20" relative="1" as="geometry">
            <mxPoint x="-30" y="15" as="offset" />
          </mxGeometry>
        </mxCell>
        <mxCell id="6dHN_h9EE64nun_4hgVf-232" value="&lt;span&gt;APIGateway&lt;/span&gt;" style="html=1;dropTarget=0;whiteSpace=wrap;strokeColor=default;align=center;verticalAlign=middle;spacingLeft=5;fontFamily=Helvetica;fontSize=16;fontColor=default;fontStyle=1;labelBackgroundColor=default;resizable=0;fillColor=default;gradientColor=none;" vertex="1" parent="1">
          <mxGeometry x="29" y="850" width="180" height="90" as="geometry" />
        </mxCell>
        <mxCell id="6dHN_h9EE64nun_4hgVf-233" value="" style="shape=module;jettyWidth=8;jettyHeight=4;strokeColor=default;align=center;verticalAlign=middle;spacingLeft=5;fontFamily=Helvetica;fontSize=16;fontColor=default;fontStyle=1;labelBackgroundColor=default;resizable=0;fillColor=default;gradientColor=none;" vertex="1" parent="6dHN_h9EE64nun_4hgVf-232">
          <mxGeometry x="1" width="20" height="20" relative="1" as="geometry">
            <mxPoint x="-27" y="7" as="offset" />
          </mxGeometry>
        </mxCell>
        <mxCell id="6dHN_h9EE64nun_4hgVf-234" style="edgeStyle=orthogonalEdgeStyle;shape=connector;rounded=0;orthogonalLoop=1;jettySize=auto;html=1;exitX=0;exitY=0.5;exitDx=0;exitDy=0;entryX=1;entryY=0.5;entryDx=0;entryDy=0;dashed=1;strokeColor=#000000;strokeWidth=1;align=center;verticalAlign=middle;fontFamily=Helvetica;fontSize=16;fontColor=default;fontStyle=1;labelBackgroundColor=default;resizable=0;endArrow=open;endFill=0;" edge="1" parent="1" source="6dHN_h9EE64nun_4hgVf-236" target="6dHN_h9EE64nun_4hgVf-232">
          <mxGeometry relative="1" as="geometry" />
        </mxCell>
        <mxCell id="6dHN_h9EE64nun_4hgVf-235" value="&amp;lt;&amp;lt;manifest&amp;gt;&amp;gt;" style="edgeLabel;html=1;align=center;verticalAlign=middle;resizable=0;points=[];strokeColor=default;spacingLeft=5;fontFamily=Helvetica;fontSize=16;fontColor=default;fontStyle=1;labelBackgroundColor=default;fillColor=default;gradientColor=none;" vertex="1" connectable="0" parent="6dHN_h9EE64nun_4hgVf-234">
          <mxGeometry x="0.1117" y="-3" relative="1" as="geometry">
            <mxPoint x="7" y="-11" as="offset" />
          </mxGeometry>
        </mxCell>
        <mxCell id="6dHN_h9EE64nun_4hgVf-236" value="&amp;lt;&amp;lt;artifact&amp;gt;&amp;gt;&lt;div&gt;GatewayConfig.yaml&lt;/div&gt;" style="html=1;align=center;verticalAlign=middle;dashed=0;whiteSpace=wrap;strokeColor=default;spacingLeft=5;fontFamily=Helvetica;fontSize=16;fontColor=default;fontStyle=1;labelBackgroundColor=default;resizable=0;fillColor=default;gradientColor=none;" vertex="1" parent="1">
          <mxGeometry x="330" y="865" width="180" height="60" as="geometry" />
        </mxCell>
        <mxCell id="6dHN_h9EE64nun_4hgVf-237" style="edgeStyle=orthogonalEdgeStyle;shape=connector;rounded=0;orthogonalLoop=1;jettySize=auto;html=1;exitX=0;exitY=0.5;exitDx=0;exitDy=0;entryX=1;entryY=0.5;entryDx=0;entryDy=0;dashed=1;strokeColor=#000000;strokeWidth=1;align=center;verticalAlign=middle;fontFamily=Helvetica;fontSize=16;fontColor=default;fontStyle=1;labelBackgroundColor=default;resizable=0;endArrow=none;endFill=0;startArrow=open;startFill=0;" edge="1" parent="1" source="6dHN_h9EE64nun_4hgVf-239" target="6dHN_h9EE64nun_4hgVf-236">
          <mxGeometry relative="1" as="geometry">
            <mxPoint x="541" y="895" as="targetPoint" />
          </mxGeometry>
        </mxCell>
        <mxCell id="6dHN_h9EE64nun_4hgVf-238" value="&amp;lt;&amp;lt;depends on&amp;gt;&amp;gt;" style="edgeLabel;html=1;align=center;verticalAlign=middle;resizable=0;points=[];strokeColor=default;spacingLeft=5;fontFamily=Helvetica;fontSize=16;fontColor=default;fontStyle=1;labelBackgroundColor=default;fillColor=default;gradientColor=none;" vertex="1" connectable="0" parent="6dHN_h9EE64nun_4hgVf-237">
          <mxGeometry x="0.1543" relative="1" as="geometry">
            <mxPoint x="15" y="-15" as="offset" />
          </mxGeometry>
        </mxCell>
        <mxCell id="6dHN_h9EE64nun_4hgVf-239" value="&amp;lt;&amp;lt;artifact&amp;gt;&amp;gt;&lt;div&gt;HTTPS&lt;/div&gt;" style="html=1;align=center;verticalAlign=middle;dashed=0;whiteSpace=wrap;strokeColor=default;spacingLeft=5;fontFamily=Helvetica;fontSize=16;fontColor=default;fontStyle=1;labelBackgroundColor=default;resizable=0;fillColor=default;gradientColor=none;" vertex="1" parent="1">
          <mxGeometry x="660" y="865" width="180" height="60" as="geometry" />
        </mxCell>
        <mxCell id="6dHN_h9EE64nun_4hgVf-240" value="&lt;span&gt;LoadBalancer&lt;/span&gt;" style="html=1;dropTarget=0;whiteSpace=wrap;strokeColor=default;align=center;verticalAlign=middle;spacingLeft=5;fontFamily=Helvetica;fontSize=16;fontColor=default;fontStyle=1;labelBackgroundColor=default;resizable=0;fillColor=default;gradientColor=none;" vertex="1" parent="1">
          <mxGeometry x="29" y="1000" width="180" height="90" as="geometry" />
        </mxCell>
        <mxCell id="6dHN_h9EE64nun_4hgVf-241" value="" style="shape=module;jettyWidth=8;jettyHeight=4;strokeColor=default;align=center;verticalAlign=middle;spacingLeft=5;fontFamily=Helvetica;fontSize=16;fontColor=default;fontStyle=1;labelBackgroundColor=default;resizable=0;fillColor=default;gradientColor=none;" vertex="1" parent="6dHN_h9EE64nun_4hgVf-240">
          <mxGeometry x="1" width="20" height="20" relative="1" as="geometry">
            <mxPoint x="-27" y="7" as="offset" />
          </mxGeometry>
        </mxCell>
        <mxCell id="6dHN_h9EE64nun_4hgVf-242" style="edgeStyle=orthogonalEdgeStyle;shape=connector;rounded=0;orthogonalLoop=1;jettySize=auto;html=1;exitX=0;exitY=0.5;exitDx=0;exitDy=0;entryX=1;entryY=0.5;entryDx=0;entryDy=0;dashed=1;strokeColor=#000000;strokeWidth=1;align=center;verticalAlign=middle;fontFamily=Helvetica;fontSize=16;fontColor=default;fontStyle=1;labelBackgroundColor=default;resizable=0;endArrow=open;endFill=0;" edge="1" parent="1" source="6dHN_h9EE64nun_4hgVf-244" target="6dHN_h9EE64nun_4hgVf-240">
          <mxGeometry relative="1" as="geometry" />
        </mxCell>
        <mxCell id="6dHN_h9EE64nun_4hgVf-243" value="&amp;lt;&amp;lt;manifest&amp;gt;&amp;gt;" style="edgeLabel;html=1;align=center;verticalAlign=middle;resizable=0;points=[];strokeColor=default;spacingLeft=5;fontFamily=Helvetica;fontSize=16;fontColor=default;fontStyle=1;labelBackgroundColor=default;fillColor=default;gradientColor=none;" vertex="1" connectable="0" parent="6dHN_h9EE64nun_4hgVf-242">
          <mxGeometry x="0.1117" y="-3" relative="1" as="geometry">
            <mxPoint x="7" y="-11" as="offset" />
          </mxGeometry>
        </mxCell>
        <mxCell id="6dHN_h9EE64nun_4hgVf-244" value="&amp;lt;&amp;lt;artifact&amp;gt;&amp;gt;&lt;div&gt;LoadBalancerConfig.yaml&lt;/div&gt;" style="html=1;align=center;verticalAlign=middle;dashed=0;whiteSpace=wrap;strokeColor=default;spacingLeft=5;fontFamily=Helvetica;fontSize=16;fontColor=default;fontStyle=1;labelBackgroundColor=default;resizable=0;fillColor=default;gradientColor=none;" vertex="1" parent="1">
          <mxGeometry x="330" y="1015" width="180" height="60" as="geometry" />
        </mxCell>
        <mxCell id="6dHN_h9EE64nun_4hgVf-248" value="&lt;span&gt;APIGateway&lt;/span&gt;" style="html=1;dropTarget=0;whiteSpace=wrap;strokeColor=default;align=center;verticalAlign=middle;spacingLeft=5;fontFamily=Helvetica;fontSize=16;fontColor=default;fontStyle=1;labelBackgroundColor=default;resizable=0;fillColor=default;gradientColor=none;" vertex="1" parent="1">
          <mxGeometry x="29" y="1150" width="180" height="90" as="geometry" />
        </mxCell>
        <mxCell id="6dHN_h9EE64nun_4hgVf-249" value="" style="shape=module;jettyWidth=8;jettyHeight=4;strokeColor=default;align=center;verticalAlign=middle;spacingLeft=5;fontFamily=Helvetica;fontSize=16;fontColor=default;fontStyle=1;labelBackgroundColor=default;resizable=0;fillColor=default;gradientColor=none;" vertex="1" parent="6dHN_h9EE64nun_4hgVf-248">
          <mxGeometry x="1" width="20" height="20" relative="1" as="geometry">
            <mxPoint x="-27" y="7" as="offset" />
          </mxGeometry>
        </mxCell>
        <mxCell id="6dHN_h9EE64nun_4hgVf-250" style="edgeStyle=orthogonalEdgeStyle;shape=connector;rounded=0;orthogonalLoop=1;jettySize=auto;html=1;exitX=0;exitY=0.5;exitDx=0;exitDy=0;entryX=1;entryY=0.5;entryDx=0;entryDy=0;dashed=1;strokeColor=#000000;strokeWidth=1;align=center;verticalAlign=middle;fontFamily=Helvetica;fontSize=16;fontColor=default;fontStyle=1;labelBackgroundColor=default;resizable=0;endArrow=open;endFill=0;" edge="1" parent="1" source="6dHN_h9EE64nun_4hgVf-252" target="6dHN_h9EE64nun_4hgVf-248">
          <mxGeometry relative="1" as="geometry" />
        </mxCell>
        <mxCell id="6dHN_h9EE64nun_4hgVf-251" value="&amp;lt;&amp;lt;manifest&amp;gt;&amp;gt;" style="edgeLabel;html=1;align=center;verticalAlign=middle;resizable=0;points=[];strokeColor=default;spacingLeft=5;fontFamily=Helvetica;fontSize=16;fontColor=default;fontStyle=1;labelBackgroundColor=default;fillColor=default;gradientColor=none;" vertex="1" connectable="0" parent="6dHN_h9EE64nun_4hgVf-250">
          <mxGeometry x="0.1117" y="-3" relative="1" as="geometry">
            <mxPoint x="7" y="-11" as="offset" />
          </mxGeometry>
        </mxCell>
        <mxCell id="6dHN_h9EE64nun_4hgVf-252" value="&amp;lt;&amp;lt;artifact&amp;gt;&amp;gt;&lt;div&gt;GatewayConfig.yaml&lt;/div&gt;" style="html=1;align=center;verticalAlign=middle;dashed=0;whiteSpace=wrap;strokeColor=default;spacingLeft=5;fontFamily=Helvetica;fontSize=16;fontColor=default;fontStyle=1;labelBackgroundColor=default;resizable=0;fillColor=default;gradientColor=none;" vertex="1" parent="1">
          <mxGeometry x="330" y="1165" width="180" height="60" as="geometry" />
        </mxCell>
        <mxCell id="6dHN_h9EE64nun_4hgVf-253" style="edgeStyle=orthogonalEdgeStyle;shape=connector;rounded=0;orthogonalLoop=1;jettySize=auto;html=1;exitX=0;exitY=0.5;exitDx=0;exitDy=0;entryX=1;entryY=0.5;entryDx=0;entryDy=0;dashed=1;strokeColor=#000000;strokeWidth=1;align=center;verticalAlign=middle;fontFamily=Helvetica;fontSize=16;fontColor=default;fontStyle=1;labelBackgroundColor=default;resizable=0;endArrow=none;endFill=0;startArrow=open;startFill=0;" edge="1" parent="1" source="6dHN_h9EE64nun_4hgVf-255" target="6dHN_h9EE64nun_4hgVf-252">
          <mxGeometry relative="1" as="geometry">
            <mxPoint x="541" y="1195" as="targetPoint" />
          </mxGeometry>
        </mxCell>
        <mxCell id="6dHN_h9EE64nun_4hgVf-254" value="&amp;lt;&amp;lt;depends on&amp;gt;&amp;gt;" style="edgeLabel;html=1;align=center;verticalAlign=middle;resizable=0;points=[];strokeColor=default;spacingLeft=5;fontFamily=Helvetica;fontSize=16;fontColor=default;fontStyle=1;labelBackgroundColor=default;fillColor=default;gradientColor=none;" vertex="1" connectable="0" parent="6dHN_h9EE64nun_4hgVf-253">
          <mxGeometry x="0.1543" relative="1" as="geometry">
            <mxPoint x="15" y="-15" as="offset" />
          </mxGeometry>
        </mxCell>
        <mxCell id="6dHN_h9EE64nun_4hgVf-255" value="&amp;lt;&amp;lt;artifact&amp;gt;&amp;gt;&lt;div&gt;HTTPS&lt;/div&gt;" style="html=1;align=center;verticalAlign=middle;dashed=0;whiteSpace=wrap;strokeColor=default;spacingLeft=5;fontFamily=Helvetica;fontSize=16;fontColor=default;fontStyle=1;labelBackgroundColor=default;resizable=0;fillColor=default;gradientColor=none;" vertex="1" parent="1">
          <mxGeometry x="660" y="1165" width="180" height="60" as="geometry" />
        </mxCell>
        <mxCell id="6dHN_h9EE64nun_4hgVf-275" value="&lt;span&gt;CustomerUI&lt;/span&gt;" style="html=1;dropTarget=0;whiteSpace=wrap;strokeColor=default;align=center;verticalAlign=middle;spacingLeft=5;fontFamily=Helvetica;fontSize=16;fontColor=default;fontStyle=1;labelBackgroundColor=default;resizable=0;fillColor=default;gradientColor=none;" vertex="1" parent="1">
          <mxGeometry x="20" y="495" width="180" height="90" as="geometry" />
        </mxCell>
        <mxCell id="6dHN_h9EE64nun_4hgVf-276" value="" style="shape=module;jettyWidth=8;jettyHeight=4;strokeColor=default;align=center;verticalAlign=middle;spacingLeft=5;fontFamily=Helvetica;fontSize=16;fontColor=default;fontStyle=1;labelBackgroundColor=default;resizable=0;fillColor=default;gradientColor=none;" vertex="1" parent="6dHN_h9EE64nun_4hgVf-275">
          <mxGeometry x="1" width="20" height="20" relative="1" as="geometry">
            <mxPoint x="-27" y="7" as="offset" />
          </mxGeometry>
        </mxCell>
        <mxCell id="6dHN_h9EE64nun_4hgVf-277" style="shape=connector;rounded=0;orthogonalLoop=1;jettySize=auto;html=1;exitX=0;exitY=0.5;exitDx=0;exitDy=0;entryX=1;entryY=0.5;entryDx=0;entryDy=0;dashed=1;strokeColor=#000000;strokeWidth=1;align=center;verticalAlign=middle;fontFamily=Helvetica;fontSize=16;fontColor=default;fontStyle=1;labelBackgroundColor=default;resizable=0;endArrow=open;endFill=0;" edge="1" parent="1" source="6dHN_h9EE64nun_4hgVf-281" target="6dHN_h9EE64nun_4hgVf-275">
          <mxGeometry relative="1" as="geometry" />
        </mxCell>
        <mxCell id="6dHN_h9EE64nun_4hgVf-278" value="&amp;lt;&amp;lt;manifest&amp;gt;&amp;gt;" style="edgeLabel;html=1;align=center;verticalAlign=middle;resizable=0;points=[];strokeColor=default;spacingLeft=5;fontFamily=Helvetica;fontSize=16;fontColor=default;fontStyle=1;labelBackgroundColor=default;fillColor=default;gradientColor=none;" vertex="1" connectable="0" parent="6dHN_h9EE64nun_4hgVf-277">
          <mxGeometry x="0.1117" y="-3" relative="1" as="geometry">
            <mxPoint x="7" y="-12" as="offset" />
          </mxGeometry>
        </mxCell>
        <mxCell id="6dHN_h9EE64nun_4hgVf-279" style="shape=connector;rounded=0;orthogonalLoop=1;jettySize=auto;html=1;exitX=0;exitY=0.5;exitDx=0;exitDy=0;entryX=1;entryY=0.5;entryDx=0;entryDy=0;dashed=1;strokeColor=#000000;strokeWidth=1;align=center;verticalAlign=middle;fontFamily=Helvetica;fontSize=16;fontColor=default;fontStyle=1;labelBackgroundColor=default;resizable=0;endArrow=open;endFill=0;" edge="1" parent="1" source="6dHN_h9EE64nun_4hgVf-281" target="6dHN_h9EE64nun_4hgVf-288">
          <mxGeometry relative="1" as="geometry" />
        </mxCell>
        <mxCell id="6dHN_h9EE64nun_4hgVf-280" value="&amp;lt;&amp;lt;manifest&amp;gt;&amp;gt;" style="edgeLabel;html=1;align=center;verticalAlign=middle;resizable=0;points=[];strokeColor=default;spacingLeft=5;fontFamily=Helvetica;fontSize=16;fontColor=default;fontStyle=1;labelBackgroundColor=default;fillColor=default;gradientColor=none;" vertex="1" connectable="0" parent="6dHN_h9EE64nun_4hgVf-279">
          <mxGeometry x="-0.014" y="-3" relative="1" as="geometry">
            <mxPoint as="offset" />
          </mxGeometry>
        </mxCell>
        <mxCell id="6dHN_h9EE64nun_4hgVf-281" value="&amp;lt;&amp;lt;artifact&amp;gt;&amp;gt;&lt;div&gt;WebAppBundle.js&lt;/div&gt;" style="html=1;align=center;verticalAlign=middle;dashed=0;whiteSpace=wrap;strokeColor=default;spacingLeft=5;fontFamily=Helvetica;fontSize=16;fontColor=default;fontStyle=1;labelBackgroundColor=default;resizable=0;fillColor=default;gradientColor=none;" vertex="1" parent="1">
          <mxGeometry x="330" y="547" width="180" height="60" as="geometry" />
        </mxCell>
        <mxCell id="6dHN_h9EE64nun_4hgVf-282" style="shape=connector;rounded=0;orthogonalLoop=1;jettySize=auto;html=1;exitX=0;exitY=0.5;exitDx=0;exitDy=0;entryX=1;entryY=0.5;entryDx=0;entryDy=0;dashed=1;strokeColor=#000000;strokeWidth=1;align=center;verticalAlign=middle;fontFamily=Helvetica;fontSize=16;fontColor=default;fontStyle=1;labelBackgroundColor=default;resizable=0;endArrow=none;endFill=0;startArrow=open;startFill=0;" edge="1" parent="1" source="6dHN_h9EE64nun_4hgVf-284" target="6dHN_h9EE64nun_4hgVf-281">
          <mxGeometry relative="1" as="geometry">
            <mxPoint x="541" y="577" as="targetPoint" />
          </mxGeometry>
        </mxCell>
        <mxCell id="6dHN_h9EE64nun_4hgVf-283" value="&amp;lt;&amp;lt;depends on&amp;gt;&amp;gt;" style="edgeLabel;html=1;align=center;verticalAlign=middle;resizable=0;points=[];strokeColor=default;spacingLeft=5;fontFamily=Helvetica;fontSize=16;fontColor=default;fontStyle=1;labelBackgroundColor=default;fillColor=default;gradientColor=none;" vertex="1" connectable="0" parent="6dHN_h9EE64nun_4hgVf-282">
          <mxGeometry x="0.1543" relative="1" as="geometry">
            <mxPoint x="15" y="-15" as="offset" />
          </mxGeometry>
        </mxCell>
        <mxCell id="6dHN_h9EE64nun_4hgVf-284" value="&amp;lt;&amp;lt;artifact&amp;gt;&amp;gt;&lt;div&gt;HTTPS&lt;/div&gt;" style="html=1;align=center;verticalAlign=middle;dashed=0;whiteSpace=wrap;strokeColor=default;spacingLeft=5;fontFamily=Helvetica;fontSize=16;fontColor=default;fontStyle=1;labelBackgroundColor=default;resizable=0;fillColor=default;gradientColor=none;" vertex="1" parent="1">
          <mxGeometry x="660" y="510" width="180" height="60" as="geometry" />
        </mxCell>
        <mxCell id="6dHN_h9EE64nun_4hgVf-285" style="shape=connector;rounded=0;orthogonalLoop=1;jettySize=auto;html=1;exitX=0;exitY=0.5;exitDx=0;exitDy=0;dashed=1;strokeColor=#000000;strokeWidth=1;align=center;verticalAlign=middle;fontFamily=Helvetica;fontSize=16;fontColor=default;fontStyle=1;labelBackgroundColor=default;resizable=0;endArrow=none;endFill=0;entryX=1;entryY=0.5;entryDx=0;entryDy=0;startArrow=open;startFill=0;" edge="1" parent="1" source="6dHN_h9EE64nun_4hgVf-287" target="6dHN_h9EE64nun_4hgVf-281">
          <mxGeometry relative="1" as="geometry">
            <mxPoint x="510" y="729" as="targetPoint" />
          </mxGeometry>
        </mxCell>
        <mxCell id="6dHN_h9EE64nun_4hgVf-286" value="&amp;lt;&amp;lt;depends on&amp;gt;&amp;gt;" style="edgeLabel;html=1;align=center;verticalAlign=middle;resizable=0;points=[];strokeColor=default;spacingLeft=5;fontFamily=Helvetica;fontSize=16;fontColor=default;fontStyle=1;labelBackgroundColor=default;fillColor=default;gradientColor=none;" vertex="1" connectable="0" parent="6dHN_h9EE64nun_4hgVf-285">
          <mxGeometry x="-0.0254" y="-1" relative="1" as="geometry">
            <mxPoint x="1" y="-9" as="offset" />
          </mxGeometry>
        </mxCell>
        <mxCell id="6dHN_h9EE64nun_4hgVf-287" value="&amp;lt;&amp;lt;artifact&amp;gt;&amp;gt;&lt;div&gt;MQTT&lt;/div&gt;" style="html=1;align=center;verticalAlign=middle;dashed=0;whiteSpace=wrap;strokeColor=default;spacingLeft=5;fontFamily=Helvetica;fontSize=16;fontColor=default;fontStyle=1;labelBackgroundColor=default;resizable=0;fillColor=default;gradientColor=none;" vertex="1" parent="1">
          <mxGeometry x="660" y="582" width="180" height="60" as="geometry" />
        </mxCell>
        <mxCell id="6dHN_h9EE64nun_4hgVf-288" value="&lt;span&gt;AppCache&lt;/span&gt;" style="html=1;dropTarget=0;whiteSpace=wrap;strokeColor=default;align=center;verticalAlign=middle;spacingLeft=5;fontFamily=Helvetica;fontSize=16;fontColor=default;fontStyle=1;labelBackgroundColor=default;resizable=0;fillColor=default;gradientColor=none;" vertex="1" parent="1">
          <mxGeometry x="20" y="592" width="180" height="90" as="geometry" />
        </mxCell>
        <mxCell id="6dHN_h9EE64nun_4hgVf-289" value="" style="shape=module;jettyWidth=8;jettyHeight=4;strokeColor=default;align=center;verticalAlign=middle;spacingLeft=5;fontFamily=Helvetica;fontSize=16;fontColor=default;fontStyle=1;labelBackgroundColor=default;resizable=0;fillColor=default;gradientColor=none;" vertex="1" parent="6dHN_h9EE64nun_4hgVf-288">
          <mxGeometry x="1" width="20" height="20" relative="1" as="geometry">
            <mxPoint x="-30" y="15" as="offset" />
          </mxGeometry>
        </mxCell>
        <mxCell id="6dHN_h9EE64nun_4hgVf-314" value="&lt;div&gt;&lt;span&gt;&amp;lt;&amp;lt;process&amp;gt;&amp;gt;&lt;/span&gt;&lt;/div&gt;&lt;span&gt;GatewayController&lt;/span&gt;" style="html=1;dropTarget=0;whiteSpace=wrap;strokeColor=default;align=center;verticalAlign=middle;spacingLeft=5;fontFamily=Helvetica;fontSize=16;fontColor=default;fontStyle=1;labelBackgroundColor=default;resizable=0;fillColor=default;gradientColor=none;" vertex="1" parent="1">
          <mxGeometry x="40" y="1380" width="180" height="90" as="geometry" />
        </mxCell>
        <mxCell id="6dHN_h9EE64nun_4hgVf-315" value="" style="shape=module;jettyWidth=8;jettyHeight=4;strokeColor=default;align=center;verticalAlign=middle;spacingLeft=5;fontFamily=Helvetica;fontSize=16;fontColor=default;fontStyle=1;labelBackgroundColor=default;resizable=0;fillColor=default;gradientColor=none;" vertex="1" parent="6dHN_h9EE64nun_4hgVf-314">
          <mxGeometry x="1" width="20" height="20" relative="1" as="geometry">
            <mxPoint x="-27" y="7" as="offset" />
          </mxGeometry>
        </mxCell>
        <mxCell id="6dHN_h9EE64nun_4hgVf-316" style="shape=connector;rounded=0;orthogonalLoop=1;jettySize=auto;html=1;exitX=0;exitY=0.5;exitDx=0;exitDy=0;entryX=1;entryY=0.5;entryDx=0;entryDy=0;dashed=1;strokeColor=#000000;strokeWidth=1;align=center;verticalAlign=middle;fontFamily=Helvetica;fontSize=16;fontColor=default;fontStyle=1;labelBackgroundColor=default;resizable=0;endArrow=open;endFill=0;" edge="1" parent="1" source="6dHN_h9EE64nun_4hgVf-320" target="6dHN_h9EE64nun_4hgVf-314">
          <mxGeometry relative="1" as="geometry" />
        </mxCell>
        <mxCell id="6dHN_h9EE64nun_4hgVf-317" value="&amp;lt;&amp;lt;manifest&amp;gt;&amp;gt;" style="edgeLabel;html=1;align=center;verticalAlign=middle;resizable=0;points=[];strokeColor=default;spacingLeft=5;fontFamily=Helvetica;fontSize=16;fontColor=default;fontStyle=1;labelBackgroundColor=default;fillColor=default;gradientColor=none;" vertex="1" connectable="0" parent="6dHN_h9EE64nun_4hgVf-316">
          <mxGeometry x="0.1117" y="-3" relative="1" as="geometry">
            <mxPoint x="7" y="-12" as="offset" />
          </mxGeometry>
        </mxCell>
        <mxCell id="6dHN_h9EE64nun_4hgVf-318" style="shape=connector;rounded=0;orthogonalLoop=1;jettySize=auto;html=1;exitX=0;exitY=0.5;exitDx=0;exitDy=0;entryX=1;entryY=0.5;entryDx=0;entryDy=0;dashed=1;strokeColor=#000000;strokeWidth=1;align=center;verticalAlign=middle;fontFamily=Helvetica;fontSize=16;fontColor=default;fontStyle=1;labelBackgroundColor=default;resizable=0;endArrow=open;endFill=0;" edge="1" parent="1" source="6dHN_h9EE64nun_4hgVf-320" target="6dHN_h9EE64nun_4hgVf-327">
          <mxGeometry relative="1" as="geometry" />
        </mxCell>
        <mxCell id="6dHN_h9EE64nun_4hgVf-319" value="&amp;lt;&amp;lt;manifest&amp;gt;&amp;gt;" style="edgeLabel;html=1;align=center;verticalAlign=middle;resizable=0;points=[];strokeColor=default;spacingLeft=5;fontFamily=Helvetica;fontSize=16;fontColor=default;fontStyle=1;labelBackgroundColor=default;fillColor=default;gradientColor=none;" vertex="1" connectable="0" parent="6dHN_h9EE64nun_4hgVf-318">
          <mxGeometry x="-0.014" y="-3" relative="1" as="geometry">
            <mxPoint as="offset" />
          </mxGeometry>
        </mxCell>
        <mxCell id="6dHN_h9EE64nun_4hgVf-320" value="&amp;lt;&amp;lt;artifact&amp;gt;&amp;gt;&lt;div&gt;HomeGatewayApp.py&lt;/div&gt;" style="html=1;align=center;verticalAlign=middle;dashed=0;whiteSpace=wrap;strokeColor=default;spacingLeft=5;fontFamily=Helvetica;fontSize=16;fontColor=default;fontStyle=1;labelBackgroundColor=default;resizable=0;fillColor=default;gradientColor=none;" vertex="1" parent="1">
          <mxGeometry x="350" y="1435" width="180" height="60" as="geometry" />
        </mxCell>
        <mxCell id="6dHN_h9EE64nun_4hgVf-321" style="shape=connector;rounded=0;orthogonalLoop=1;jettySize=auto;html=1;exitX=0;exitY=0.5;exitDx=0;exitDy=0;entryX=1;entryY=0.5;entryDx=0;entryDy=0;dashed=1;strokeColor=#000000;strokeWidth=1;align=center;verticalAlign=middle;fontFamily=Helvetica;fontSize=16;fontColor=default;fontStyle=1;labelBackgroundColor=default;resizable=0;endArrow=none;endFill=0;startArrow=open;startFill=0;" edge="1" parent="1" source="6dHN_h9EE64nun_4hgVf-323" target="6dHN_h9EE64nun_4hgVf-320">
          <mxGeometry relative="1" as="geometry">
            <mxPoint x="561" y="1465" as="targetPoint" />
          </mxGeometry>
        </mxCell>
        <mxCell id="6dHN_h9EE64nun_4hgVf-322" value="&amp;lt;&amp;lt;depends on&amp;gt;&amp;gt;" style="edgeLabel;html=1;align=center;verticalAlign=middle;resizable=0;points=[];strokeColor=default;spacingLeft=5;fontFamily=Helvetica;fontSize=16;fontColor=default;fontStyle=1;labelBackgroundColor=default;fillColor=default;gradientColor=none;" vertex="1" connectable="0" parent="6dHN_h9EE64nun_4hgVf-321">
          <mxGeometry x="0.1543" relative="1" as="geometry">
            <mxPoint x="15" y="-15" as="offset" />
          </mxGeometry>
        </mxCell>
        <mxCell id="6dHN_h9EE64nun_4hgVf-323" value="&amp;lt;&amp;lt;artifact&amp;gt;&amp;gt;&lt;div&gt;HTTPS&lt;/div&gt;" style="html=1;align=center;verticalAlign=middle;dashed=0;whiteSpace=wrap;strokeColor=default;spacingLeft=5;fontFamily=Helvetica;fontSize=16;fontColor=default;fontStyle=1;labelBackgroundColor=default;resizable=0;fillColor=default;gradientColor=none;" vertex="1" parent="1">
          <mxGeometry x="680" y="1395" width="180" height="60" as="geometry" />
        </mxCell>
        <mxCell id="6dHN_h9EE64nun_4hgVf-324" style="shape=connector;rounded=0;orthogonalLoop=1;jettySize=auto;html=1;exitX=0;exitY=0.5;exitDx=0;exitDy=0;dashed=1;strokeColor=#000000;strokeWidth=1;align=center;verticalAlign=middle;fontFamily=Helvetica;fontSize=16;fontColor=default;fontStyle=1;labelBackgroundColor=default;resizable=0;endArrow=none;endFill=0;entryX=1;entryY=0.5;entryDx=0;entryDy=0;startArrow=open;startFill=0;" edge="1" parent="1" source="6dHN_h9EE64nun_4hgVf-326" target="6dHN_h9EE64nun_4hgVf-320">
          <mxGeometry relative="1" as="geometry">
            <mxPoint x="530" y="1617" as="targetPoint" />
          </mxGeometry>
        </mxCell>
        <mxCell id="6dHN_h9EE64nun_4hgVf-325" value="&amp;lt;&amp;lt;depends on&amp;gt;&amp;gt;" style="edgeLabel;html=1;align=center;verticalAlign=middle;resizable=0;points=[];strokeColor=default;spacingLeft=5;fontFamily=Helvetica;fontSize=16;fontColor=default;fontStyle=1;labelBackgroundColor=default;fillColor=default;gradientColor=none;" vertex="1" connectable="0" parent="6dHN_h9EE64nun_4hgVf-324">
          <mxGeometry x="-0.0254" y="-1" relative="1" as="geometry">
            <mxPoint x="1" y="-9" as="offset" />
          </mxGeometry>
        </mxCell>
        <mxCell id="6dHN_h9EE64nun_4hgVf-326" value="&amp;lt;&amp;lt;artifact&amp;gt;&amp;gt;&lt;div&gt;MQTT&lt;/div&gt;" style="html=1;align=center;verticalAlign=middle;dashed=0;whiteSpace=wrap;strokeColor=default;spacingLeft=5;fontFamily=Helvetica;fontSize=16;fontColor=default;fontStyle=1;labelBackgroundColor=default;resizable=0;fillColor=default;gradientColor=none;" vertex="1" parent="1">
          <mxGeometry x="680" y="1470" width="180" height="60" as="geometry" />
        </mxCell>
        <mxCell id="6dHN_h9EE64nun_4hgVf-327" value="&lt;span&gt;&amp;lt;&amp;lt;data store&amp;gt;&amp;gt;&lt;/span&gt;&lt;div&gt;&lt;span&gt;LocalMemory&lt;/span&gt;&lt;/div&gt;" style="html=1;dropTarget=0;whiteSpace=wrap;strokeColor=default;align=center;verticalAlign=middle;spacingLeft=5;fontFamily=Helvetica;fontSize=16;fontColor=default;fontStyle=1;labelBackgroundColor=default;resizable=0;fillColor=default;gradientColor=none;" vertex="1" parent="1">
          <mxGeometry x="40" y="1480" width="180" height="90" as="geometry" />
        </mxCell>
        <mxCell id="6dHN_h9EE64nun_4hgVf-328" value="" style="shape=module;jettyWidth=8;jettyHeight=4;strokeColor=default;align=center;verticalAlign=middle;spacingLeft=5;fontFamily=Helvetica;fontSize=16;fontColor=default;fontStyle=1;labelBackgroundColor=default;resizable=0;fillColor=default;gradientColor=none;" vertex="1" parent="6dHN_h9EE64nun_4hgVf-327">
          <mxGeometry x="1" width="20" height="20" relative="1" as="geometry">
            <mxPoint x="-30" y="15" as="offset" />
          </mxGeometry>
        </mxCell>
        <mxCell id="6dHN_h9EE64nun_4hgVf-329" value="&lt;span&gt;HomeAssistant&lt;/span&gt;" style="html=1;dropTarget=0;whiteSpace=wrap;strokeColor=default;align=center;verticalAlign=middle;spacingLeft=5;fontFamily=Helvetica;fontSize=16;fontColor=default;fontStyle=1;labelBackgroundColor=default;resizable=0;fillColor=default;gradientColor=none;" vertex="1" parent="1">
          <mxGeometry x="40" y="1630" width="180" height="90" as="geometry" />
        </mxCell>
        <mxCell id="6dHN_h9EE64nun_4hgVf-330" value="" style="shape=module;jettyWidth=8;jettyHeight=4;strokeColor=default;align=center;verticalAlign=middle;spacingLeft=5;fontFamily=Helvetica;fontSize=16;fontColor=default;fontStyle=1;labelBackgroundColor=default;resizable=0;fillColor=default;gradientColor=none;" vertex="1" parent="6dHN_h9EE64nun_4hgVf-329">
          <mxGeometry x="1" width="20" height="20" relative="1" as="geometry">
            <mxPoint x="-27" y="7" as="offset" />
          </mxGeometry>
        </mxCell>
        <mxCell id="6dHN_h9EE64nun_4hgVf-331" style="edgeStyle=orthogonalEdgeStyle;shape=connector;rounded=0;orthogonalLoop=1;jettySize=auto;html=1;exitX=0;exitY=0.5;exitDx=0;exitDy=0;entryX=1;entryY=0.5;entryDx=0;entryDy=0;dashed=1;strokeColor=#000000;strokeWidth=1;align=center;verticalAlign=middle;fontFamily=Helvetica;fontSize=16;fontColor=default;fontStyle=1;labelBackgroundColor=default;resizable=0;endArrow=open;endFill=0;" edge="1" parent="1" source="6dHN_h9EE64nun_4hgVf-333" target="6dHN_h9EE64nun_4hgVf-329">
          <mxGeometry relative="1" as="geometry" />
        </mxCell>
        <mxCell id="6dHN_h9EE64nun_4hgVf-332" value="&amp;lt;&amp;lt;manifest&amp;gt;&amp;gt;" style="edgeLabel;html=1;align=center;verticalAlign=middle;resizable=0;points=[];strokeColor=default;spacingLeft=5;fontFamily=Helvetica;fontSize=16;fontColor=default;fontStyle=1;labelBackgroundColor=default;fillColor=default;gradientColor=none;" vertex="1" connectable="0" parent="6dHN_h9EE64nun_4hgVf-331">
          <mxGeometry x="0.1117" y="-3" relative="1" as="geometry">
            <mxPoint x="7" y="-11" as="offset" />
          </mxGeometry>
        </mxCell>
        <mxCell id="6dHN_h9EE64nun_4hgVf-338" style="shape=connector;rounded=0;orthogonalLoop=1;jettySize=auto;html=1;exitX=1;exitY=0.5;exitDx=0;exitDy=0;entryX=0;entryY=0.5;entryDx=0;entryDy=0;dashed=1;strokeColor=#000000;strokeWidth=1;align=center;verticalAlign=middle;fontFamily=Helvetica;fontSize=16;fontColor=default;fontStyle=0;labelBackgroundColor=default;resizable=0;endArrow=open;endFill=0;" edge="1" parent="1" source="6dHN_h9EE64nun_4hgVf-333" target="6dHN_h9EE64nun_4hgVf-337">
          <mxGeometry relative="1" as="geometry" />
        </mxCell>
        <mxCell id="6dHN_h9EE64nun_4hgVf-339" value="&amp;lt;&amp;lt;depends on&amp;gt;&amp;gt;" style="edgeLabel;html=1;align=center;verticalAlign=middle;resizable=0;points=[];strokeColor=default;spacingLeft=5;fontFamily=Helvetica;fontSize=16;fontColor=default;fontStyle=0;labelBackgroundColor=default;fillColor=default;gradientColor=none;" vertex="1" connectable="0" parent="6dHN_h9EE64nun_4hgVf-338">
          <mxGeometry x="-0.0252" y="2" relative="1" as="geometry">
            <mxPoint as="offset" />
          </mxGeometry>
        </mxCell>
        <mxCell id="6dHN_h9EE64nun_4hgVf-333" value="&amp;lt;&amp;lt;artifact&amp;gt;&amp;gt;&lt;div&gt;HomeAssistant.pyz&lt;/div&gt;" style="html=1;align=center;verticalAlign=middle;dashed=0;whiteSpace=wrap;strokeColor=default;spacingLeft=5;fontFamily=Helvetica;fontSize=16;fontColor=default;fontStyle=1;labelBackgroundColor=default;resizable=0;fillColor=default;gradientColor=none;" vertex="1" parent="1">
          <mxGeometry x="341" y="1645" width="180" height="60" as="geometry" />
        </mxCell>
        <mxCell id="6dHN_h9EE64nun_4hgVf-334" style="shape=connector;rounded=0;orthogonalLoop=1;jettySize=auto;html=1;exitX=0;exitY=0.5;exitDx=0;exitDy=0;entryX=1;entryY=0.5;entryDx=0;entryDy=0;dashed=1;strokeColor=#000000;strokeWidth=1;align=center;verticalAlign=middle;fontFamily=Helvetica;fontSize=16;fontColor=default;fontStyle=1;labelBackgroundColor=default;resizable=0;endArrow=none;endFill=0;startArrow=open;startFill=0;" edge="1" parent="1" source="6dHN_h9EE64nun_4hgVf-336" target="6dHN_h9EE64nun_4hgVf-333">
          <mxGeometry relative="1" as="geometry">
            <mxPoint x="552" y="1675" as="targetPoint" />
          </mxGeometry>
        </mxCell>
        <mxCell id="6dHN_h9EE64nun_4hgVf-335" value="&amp;lt;&amp;lt;depends on&amp;gt;&amp;gt;" style="edgeLabel;html=1;align=center;verticalAlign=middle;resizable=0;points=[];strokeColor=default;spacingLeft=5;fontFamily=Helvetica;fontSize=16;fontColor=default;fontStyle=1;labelBackgroundColor=default;fillColor=default;gradientColor=none;" vertex="1" connectable="0" parent="6dHN_h9EE64nun_4hgVf-334">
          <mxGeometry x="0.1543" relative="1" as="geometry">
            <mxPoint x="15" y="-15" as="offset" />
          </mxGeometry>
        </mxCell>
        <mxCell id="6dHN_h9EE64nun_4hgVf-336" value="&amp;lt;&amp;lt;artifact&amp;gt;&amp;gt;&lt;div&gt;MQTT&lt;/div&gt;" style="html=1;align=center;verticalAlign=middle;dashed=0;whiteSpace=wrap;strokeColor=default;spacingLeft=5;fontFamily=Helvetica;fontSize=16;fontColor=default;fontStyle=1;labelBackgroundColor=default;resizable=0;fillColor=default;gradientColor=none;" vertex="1" parent="1">
          <mxGeometry x="671" y="1605.5" width="180" height="60" as="geometry" />
        </mxCell>
        <mxCell id="6dHN_h9EE64nun_4hgVf-337" value="&amp;lt;&amp;lt;artifact&amp;gt;&amp;gt;&lt;div&gt;HomeAssistantLib&lt;/div&gt;" style="html=1;align=center;verticalAlign=middle;dashed=0;whiteSpace=wrap;strokeColor=default;spacingLeft=5;fontFamily=Helvetica;fontSize=16;fontColor=default;fontStyle=1;labelBackgroundColor=default;resizable=0;fillColor=default;gradientColor=none;" vertex="1" parent="1">
          <mxGeometry x="671" y="1670" width="180" height="60" as="geometry" />
        </mxCell>
        <mxCell id="6dHN_h9EE64nun_4hgVf-348" value="&lt;div&gt;&lt;span&gt;&amp;lt;&amp;lt;process&amp;gt;&amp;gt;&lt;/span&gt;&lt;/div&gt;&lt;span&gt;DeviceMonitor&lt;/span&gt;" style="html=1;dropTarget=0;whiteSpace=wrap;strokeColor=default;align=center;verticalAlign=middle;spacingLeft=5;fontFamily=Helvetica;fontSize=16;fontColor=default;fontStyle=1;labelBackgroundColor=default;resizable=0;fillColor=default;gradientColor=none;" vertex="1" parent="1">
          <mxGeometry x="40" y="1800" width="180" height="90" as="geometry" />
        </mxCell>
        <mxCell id="6dHN_h9EE64nun_4hgVf-349" value="" style="shape=module;jettyWidth=8;jettyHeight=4;strokeColor=default;align=center;verticalAlign=middle;spacingLeft=5;fontFamily=Helvetica;fontSize=16;fontColor=default;fontStyle=1;labelBackgroundColor=default;resizable=0;fillColor=default;gradientColor=none;" vertex="1" parent="6dHN_h9EE64nun_4hgVf-348">
          <mxGeometry x="1" width="20" height="20" relative="1" as="geometry">
            <mxPoint x="-27" y="7" as="offset" />
          </mxGeometry>
        </mxCell>
        <mxCell id="6dHN_h9EE64nun_4hgVf-350" style="shape=connector;rounded=0;orthogonalLoop=1;jettySize=auto;html=1;exitX=0;exitY=0.5;exitDx=0;exitDy=0;entryX=1;entryY=0.5;entryDx=0;entryDy=0;dashed=1;strokeColor=#000000;strokeWidth=1;align=center;verticalAlign=middle;fontFamily=Helvetica;fontSize=16;fontColor=default;fontStyle=1;labelBackgroundColor=default;resizable=0;endArrow=open;endFill=0;" edge="1" parent="1" source="6dHN_h9EE64nun_4hgVf-354" target="6dHN_h9EE64nun_4hgVf-348">
          <mxGeometry relative="1" as="geometry" />
        </mxCell>
        <mxCell id="6dHN_h9EE64nun_4hgVf-351" value="&amp;lt;&amp;lt;manifest&amp;gt;&amp;gt;" style="edgeLabel;html=1;align=center;verticalAlign=middle;resizable=0;points=[];strokeColor=default;spacingLeft=5;fontFamily=Helvetica;fontSize=16;fontColor=default;fontStyle=1;labelBackgroundColor=default;fillColor=default;gradientColor=none;" vertex="1" connectable="0" parent="6dHN_h9EE64nun_4hgVf-350">
          <mxGeometry x="0.1117" y="-3" relative="1" as="geometry">
            <mxPoint x="7" y="-12" as="offset" />
          </mxGeometry>
        </mxCell>
        <mxCell id="6dHN_h9EE64nun_4hgVf-352" style="shape=connector;rounded=0;orthogonalLoop=1;jettySize=auto;html=1;exitX=0;exitY=0.5;exitDx=0;exitDy=0;entryX=1;entryY=0.5;entryDx=0;entryDy=0;dashed=1;strokeColor=#000000;strokeWidth=1;align=center;verticalAlign=middle;fontFamily=Helvetica;fontSize=16;fontColor=default;fontStyle=1;labelBackgroundColor=default;resizable=0;endArrow=open;endFill=0;" edge="1" parent="1" source="6dHN_h9EE64nun_4hgVf-354" target="6dHN_h9EE64nun_4hgVf-361">
          <mxGeometry relative="1" as="geometry" />
        </mxCell>
        <mxCell id="6dHN_h9EE64nun_4hgVf-353" value="&amp;lt;&amp;lt;manifest&amp;gt;&amp;gt;" style="edgeLabel;html=1;align=center;verticalAlign=middle;resizable=0;points=[];strokeColor=default;spacingLeft=5;fontFamily=Helvetica;fontSize=16;fontColor=default;fontStyle=1;labelBackgroundColor=default;fillColor=default;gradientColor=none;" vertex="1" connectable="0" parent="6dHN_h9EE64nun_4hgVf-352">
          <mxGeometry x="-0.014" y="-3" relative="1" as="geometry">
            <mxPoint as="offset" />
          </mxGeometry>
        </mxCell>
        <mxCell id="6dHN_h9EE64nun_4hgVf-354" value="&amp;lt;&amp;lt;artifact&amp;gt;&amp;gt;&lt;div&gt;DeviceMonitor.py&lt;/div&gt;" style="html=1;align=center;verticalAlign=middle;dashed=0;whiteSpace=wrap;strokeColor=default;spacingLeft=5;fontFamily=Helvetica;fontSize=16;fontColor=default;fontStyle=1;labelBackgroundColor=default;resizable=0;fillColor=default;gradientColor=none;" vertex="1" parent="1">
          <mxGeometry x="350" y="1865" width="180" height="60" as="geometry" />
        </mxCell>
        <mxCell id="6dHN_h9EE64nun_4hgVf-355" style="shape=connector;rounded=0;orthogonalLoop=1;jettySize=auto;html=1;exitX=0;exitY=0.5;exitDx=0;exitDy=0;entryX=1;entryY=0.5;entryDx=0;entryDy=0;dashed=1;strokeColor=#000000;strokeWidth=1;align=center;verticalAlign=middle;fontFamily=Helvetica;fontSize=16;fontColor=default;fontStyle=1;labelBackgroundColor=default;resizable=0;endArrow=none;endFill=0;startArrow=open;startFill=0;" edge="1" parent="1" target="6dHN_h9EE64nun_4hgVf-354">
          <mxGeometry relative="1" as="geometry">
            <mxPoint x="561" y="1895" as="targetPoint" />
            <mxPoint x="680" y="1894.9999999999995" as="sourcePoint" />
          </mxGeometry>
        </mxCell>
        <mxCell id="6dHN_h9EE64nun_4hgVf-356" value="&amp;lt;&amp;lt;depends on&amp;gt;&amp;gt;" style="edgeLabel;html=1;align=center;verticalAlign=middle;resizable=0;points=[];strokeColor=default;spacingLeft=5;fontFamily=Helvetica;fontSize=16;fontColor=default;fontStyle=1;labelBackgroundColor=default;fillColor=default;gradientColor=none;" vertex="1" connectable="0" parent="6dHN_h9EE64nun_4hgVf-355">
          <mxGeometry x="0.1543" relative="1" as="geometry">
            <mxPoint x="7" y="-15" as="offset" />
          </mxGeometry>
        </mxCell>
        <mxCell id="6dHN_h9EE64nun_4hgVf-357" value="&amp;lt;&amp;lt;artifact&amp;gt;&amp;gt;&lt;div&gt;gRPC&lt;/div&gt;" style="html=1;align=center;verticalAlign=middle;dashed=0;whiteSpace=wrap;strokeColor=default;spacingLeft=5;fontFamily=Helvetica;fontSize=16;fontColor=default;fontStyle=1;labelBackgroundColor=default;resizable=0;fillColor=default;gradientColor=none;" vertex="1" parent="1">
          <mxGeometry x="671" y="1865" width="180" height="60" as="geometry" />
        </mxCell>
        <mxCell id="6dHN_h9EE64nun_4hgVf-361" value="&amp;lt;&amp;lt;thread&amp;gt;&amp;gt;&lt;div&gt;LocalAnomalyDetector&lt;/div&gt;" style="html=1;dropTarget=0;whiteSpace=wrap;strokeColor=default;align=center;verticalAlign=middle;spacingLeft=5;fontFamily=Helvetica;fontSize=16;fontColor=default;fontStyle=1;labelBackgroundColor=default;resizable=0;fillColor=default;gradientColor=none;" vertex="1" parent="1">
          <mxGeometry x="40" y="1900" width="180" height="90" as="geometry" />
        </mxCell>
        <mxCell id="6dHN_h9EE64nun_4hgVf-362" value="" style="shape=module;jettyWidth=8;jettyHeight=4;strokeColor=default;align=center;verticalAlign=middle;spacingLeft=5;fontFamily=Helvetica;fontSize=16;fontColor=default;fontStyle=1;labelBackgroundColor=default;resizable=0;fillColor=default;gradientColor=none;" vertex="1" parent="6dHN_h9EE64nun_4hgVf-361">
          <mxGeometry x="1" width="20" height="20" relative="1" as="geometry">
            <mxPoint x="-30" y="15" as="offset" />
          </mxGeometry>
        </mxCell>
        <mxCell id="6dHN_h9EE64nun_4hgVf-363" value="&lt;div&gt;&lt;span&gt;&amp;lt;&amp;lt;process&amp;gt;&amp;gt;&lt;/span&gt;&lt;/div&gt;&lt;span&gt;DeviceControlService&lt;/span&gt;" style="html=1;dropTarget=0;whiteSpace=wrap;strokeColor=default;align=center;verticalAlign=middle;spacingLeft=5;fontFamily=Helvetica;fontSize=16;fontColor=default;fontStyle=1;labelBackgroundColor=default;resizable=0;fillColor=default;gradientColor=none;" vertex="1" parent="1">
          <mxGeometry x="40" y="2130" width="180" height="90" as="geometry" />
        </mxCell>
        <mxCell id="6dHN_h9EE64nun_4hgVf-364" value="" style="shape=module;jettyWidth=8;jettyHeight=4;strokeColor=default;align=center;verticalAlign=middle;spacingLeft=5;fontFamily=Helvetica;fontSize=16;fontColor=default;fontStyle=1;labelBackgroundColor=default;resizable=0;fillColor=default;gradientColor=none;" vertex="1" parent="6dHN_h9EE64nun_4hgVf-363">
          <mxGeometry x="1" width="20" height="20" relative="1" as="geometry">
            <mxPoint x="-27" y="7" as="offset" />
          </mxGeometry>
        </mxCell>
        <mxCell id="6dHN_h9EE64nun_4hgVf-365" style="shape=connector;rounded=0;orthogonalLoop=1;jettySize=auto;html=1;exitX=0;exitY=0.5;exitDx=0;exitDy=0;entryX=1;entryY=0.5;entryDx=0;entryDy=0;dashed=1;strokeColor=#000000;strokeWidth=1;align=center;verticalAlign=middle;fontFamily=Helvetica;fontSize=16;fontColor=default;fontStyle=1;labelBackgroundColor=default;resizable=0;endArrow=open;endFill=0;" edge="1" parent="1" source="6dHN_h9EE64nun_4hgVf-369" target="6dHN_h9EE64nun_4hgVf-363">
          <mxGeometry relative="1" as="geometry" />
        </mxCell>
        <mxCell id="6dHN_h9EE64nun_4hgVf-366" value="&amp;lt;&amp;lt;manifest&amp;gt;&amp;gt;" style="edgeLabel;html=1;align=center;verticalAlign=middle;resizable=0;points=[];strokeColor=default;spacingLeft=5;fontFamily=Helvetica;fontSize=16;fontColor=default;fontStyle=1;labelBackgroundColor=default;fillColor=default;gradientColor=none;" vertex="1" connectable="0" parent="6dHN_h9EE64nun_4hgVf-365">
          <mxGeometry x="0.1117" y="-3" relative="1" as="geometry">
            <mxPoint x="7" y="-12" as="offset" />
          </mxGeometry>
        </mxCell>
        <mxCell id="6dHN_h9EE64nun_4hgVf-367" style="shape=connector;rounded=0;orthogonalLoop=1;jettySize=auto;html=1;exitX=0;exitY=0.5;exitDx=0;exitDy=0;entryX=1;entryY=0.5;entryDx=0;entryDy=0;dashed=1;strokeColor=#000000;strokeWidth=1;align=center;verticalAlign=middle;fontFamily=Helvetica;fontSize=16;fontColor=default;fontStyle=1;labelBackgroundColor=default;resizable=0;endArrow=open;endFill=0;" edge="1" parent="1" source="6dHN_h9EE64nun_4hgVf-369" target="6dHN_h9EE64nun_4hgVf-376">
          <mxGeometry relative="1" as="geometry" />
        </mxCell>
        <mxCell id="6dHN_h9EE64nun_4hgVf-368" value="&amp;lt;&amp;lt;manifest&amp;gt;&amp;gt;" style="edgeLabel;html=1;align=center;verticalAlign=middle;resizable=0;points=[];strokeColor=default;spacingLeft=5;fontFamily=Helvetica;fontSize=16;fontColor=default;fontStyle=1;labelBackgroundColor=default;fillColor=default;gradientColor=none;" vertex="1" connectable="0" parent="6dHN_h9EE64nun_4hgVf-367">
          <mxGeometry x="-0.014" y="-3" relative="1" as="geometry">
            <mxPoint as="offset" />
          </mxGeometry>
        </mxCell>
        <mxCell id="miVMZqAtS1C6sNfraPWD-3" style="edgeStyle=none;shape=connector;rounded=0;orthogonalLoop=1;jettySize=auto;html=1;exitX=1;exitY=0.5;exitDx=0;exitDy=0;entryX=0;entryY=0.5;entryDx=0;entryDy=0;dashed=1;strokeColor=#000000;strokeWidth=1;align=center;verticalAlign=middle;fontFamily=Helvetica;fontSize=16;fontColor=default;fontStyle=0;labelBackgroundColor=default;resizable=0;endArrow=open;endFill=0;" edge="1" parent="1" source="6dHN_h9EE64nun_4hgVf-369" target="6dHN_h9EE64nun_4hgVf-379">
          <mxGeometry relative="1" as="geometry" />
        </mxCell>
        <mxCell id="miVMZqAtS1C6sNfraPWD-4" value="&amp;lt;&amp;lt;depends on&amp;gt;&amp;gt;" style="edgeLabel;html=1;align=center;verticalAlign=middle;resizable=0;points=[];strokeColor=default;spacingLeft=5;fontFamily=Helvetica;fontSize=16;fontColor=default;fontStyle=0;labelBackgroundColor=default;fillColor=default;gradientColor=none;" vertex="1" connectable="0" parent="miVMZqAtS1C6sNfraPWD-3">
          <mxGeometry x="-0.0505" y="-6" relative="1" as="geometry">
            <mxPoint as="offset" />
          </mxGeometry>
        </mxCell>
        <mxCell id="6dHN_h9EE64nun_4hgVf-369" value="&amp;lt;&amp;lt;artifact&amp;gt;&amp;gt;&lt;div&gt;DeviceControlService.jar&lt;span style=&quot;background-color: light-dark(rgb(236, 236, 236), rgb(34, 34, 34)); color: light-dark(rgba(0, 0, 0, 0), rgb(237, 237, 237)); font-family: monospace; font-size: 0px; font-weight: 400; text-align: start; text-wrap-mode: nowrap;&quot;&gt;dd3CmxGraphModel%3E%3Croot%3E%3CmxCell%20id%3D%220%22%2F%3E%3CmxCell%20id%3D%221%22%20parent%3D%220%22%2F%3E%3CmxCell%20id%3D%222%22%20value%3D%22%26lt%3Bdiv%26gt%3B%26lt%3Bspan%26gt%3B%26amp%3Blt%3B%26amp%3Blt%3Bprocess%26amp%3Bgt%3B%26amp%3Bgt%3B%26lt%3B%2Fspan%26gt%3B%26lt%3B%2Fdiv%26gt%3B%26lt%3Bspan%26gt%3BGatewayController%26lt%3B%2Fspan%26gt%3B%22%20style%3D%22html%3D1%3BdropTarget%3D0%3BwhiteSpace%3Dwrap%3BstrokeColor%3Ddefault%3Balign%3Dcenter%3BverticalAlign%3Dmiddle%3BspacingLeft%3D5%3BfontFamily%3DHelvetica%3BfontSize%3D16%3BfontColor%3Ddefault%3BfontStyle%3D1%3BlabelBackgroundColor%3Ddefault%3Bresizable%3D0%3BfillColor%3Ddefault%3BgradientColor%3Dnone%3B%22%20vertex%3D%221%22%20parent%3D%221%22%3E%3CmxGeometry%20x%3D%2240%22%20y%3D%221360%22%20width%3D%22180%22%20height%3D%2290%22%20as%3D%22geometry%22%2F%3E%3C%2FmxCell%3E%3CmxCell%20id%3D%223%22%20value%3D%22%22%20style%3D%22shape%3Dmodule%3BjettyWidth%3D8%3BjettyHeight%3D4%3BstrokeColor%3Ddefault%3Balign%3Dcenter%3BverticalAlign%3Dmiddle%3BspacingLeft%3D5%3BfontFamily%3DHelvetica%3BfontSize%3D16%3BfontColor%3Ddefault%3BfontStyle%3D1%3BlabelBackgroundColor%3Ddefault%3Bresizable%3D0%3BfillColor%3Ddefault%3BgradientColor%3Dnone%3B%22%20vertex%3D%221%22%20parent%3D%222%22%3E%3CmxGeometry%20x%3D%221%22%20width%3D%2220%22%20height%3D%2220%22%20relative%3D%221%22%20as%3D%22geometry%22%3E%3CmxPoint%20x%3D%22-27%22%20y%3D%227%22%20as%3D%22offset%22%2F%3E%3C%2FmxGeometry%3E%3C%2FmxCell%3E%3CmxCell%20id%3D%224%22%20style%3D%22shape%3Dconnector%3Brounded%3D0%3BorthogonalLoop%3D1%3BjettySize%3Dauto%3Bhtml%3D1%3BexitX%3D0%3BexitY%3D0.5%3BexitDx%3D0%3BexitDy%3D0%3BentryX%3D1%3BentryY%3D0.5%3BentryDx%3D0%3BentryDy%3D0%3Bdashed%3D1%3BstrokeColor%3D%23000000%3BstrokeWidth%3D1%3Balign%3Dcenter%3BverticalAlign%3Dmiddle%3BfontFamily%3DHelvetica%3BfontSize%3D16%3BfontColor%3Ddefault%3BfontStyle%3D1%3BlabelBackgroundColor%3Ddefault%3Bresizable%3D0%3BendArrow%3Dopen%3BendFill%3D0%3B%22%20edge%3D%221%22%20source%3D%228%22%20target%3D%222%22%20parent%3D%221%22%3E%3CmxGeometry%20relative%3D%221%22%20as%3D%22geometry%22%2F%3E%3C%2FmxCell%3E%3CmxCell%20id%3D%225%22%20value%3D%22%26amp%3Blt%3B%26amp%3Blt%3Bmanifest%26amp%3Bgt%3B%26amp%3Bgt%3B%22%20style%3D%22edgeLabel%3Bhtml%3D1%3Balign%3Dcenter%3BverticalAlign%3Dmiddle%3Bresizable%3D0%3Bpoints%3D%5B%5D%3BstrokeColor%3Ddefault%3BspacingLeft%3D5%3BfontFamily%3DHelvetica%3BfontSize%3D16%3BfontColor%3Ddefault%3BfontStyle%3D1%3BlabelBackgroundColor%3Ddefault%3BfillColor%3Ddefault%3BgradientColor%3Dnone%3B%22%20vertex%3D%221%22%20connectable%3D%220%22%20parent%3D%224%22%3E%3CmxGeometry%20x%3D%220.1117%22%20y%3D%22-3%22%20relative%3D%221%22%20as%3D%22geometry%22%3E%3CmxPoint%20x%3D%227%22%20y%3D%22-12%22%20as%3D%22offset%22%2F%3E%3C%2FmxGeometry%3E%3C%2FmxCell%3E%3CmxCell%20id%3D%226%22%20style%3D%22shape%3Dconnector%3Brounded%3D0%3BorthogonalLoop%3D1%3BjettySize%3Dauto%3Bhtml%3D1%3BexitX%3D0%3BexitY%3D0.5%3BexitDx%3D0%3BexitDy%3D0%3BentryX%3D1%3BentryY%3D0.5%3BentryDx%3D0%3BentryDy%3D0%3Bdashed%3D1%3BstrokeColor%3D%23000000%3BstrokeWidth%3D1%3Balign%3Dcenter%3BverticalAlign%3Dmiddle%3BfontFamily%3DHelvetica%3BfontSize%3D16%3BfontColor%3Ddefault%3BfontStyle%3D1%3BlabelBackgroundColor%3Ddefault%3Bresizable%3D0%3BendArrow%3Dopen%3BendFill%3D0%3B%22%20edge%3D%221%22%20source%3D%228%22%20target%3D%2215%22%20parent%3D%221%22%3E%3CmxGeometry%20relative%3D%221%22%20as%3D%22geometry%22%2F%3E%3C%2FmxCell%3E%3CmxCell%20id%3D%227%22%20value%3D%22%26amp%3Blt%3B%26amp%3Blt%3Bmanifest%26amp%3Bgt%3B%26amp%3Bgt%3B%22%20style%3D%22edgeLabel%3Bhtml%3D1%3Balign%3Dcenter%3BverticalAlign%3Dmiddle%3Bresizable%3D0%3Bpoints%3D%5B%5D%3BstrokeColor%3Ddefault%3BspacingLeft%3D5%3BfontFamily%3DHelvetica%3BfontSize%3D16%3BfontColor%3Ddefault%3BfontStyle%3D1%3BlabelBackgroundColor%3Ddefault%3BfillColor%3Ddefault%3BgradientColor%3Dnone%3B%22%20vertex%3D%221%22%20connectable%3D%220%22%20parent%3D%226%22%3E%3CmxGeometry%20x%3D%22-0.014%22%20y%3D%22-3%22%20relative%3D%221%22%20as%3D%22geometry%22%3E%3CmxPoint%20as%3D%22offset%22%2F%3E%3C%2FmxGeometry%3E%3C%2FmxCell%3E%3CmxCell%20id%3D%228%22%20value%3D%22%26amp%3Blt%3B%26amp%3Blt%3Bartifact%26amp%3Bgt%3B%26amp%3Bgt%3B%26lt%3Bdiv%26gt%3BHomeGatewayApp.py%26lt%3B%2Fdiv%26gt%3B%22%20style%3D%22html%3D1%3Balign%3Dcenter%3BverticalAlign%3Dmiddle%3Bdashed%3D0%3BwhiteSpace%3Dwrap%3BstrokeColor%3Ddefault%3BspacingLeft%3D5%3BfontFamily%3DHelvetica%3BfontSize%3D16%3BfontColor%3Ddefault%3BfontStyle%3D1%3BlabelBackgroundColor%3Ddefault%3Bresizable%3D0%3BfillColor%3Ddefault%3BgradientColor%3Dnone%3B%22%20vertex%3D%221%22%20parent%3D%221%22%3E%3CmxGeometry%20x%3D%22350%22%20y%3D%221435%22%20width%3D%22180%22%20height%3D%2260%22%20as%3D%22geometry%22%2F%3E%3C%2FmxCell%3E%3CmxCell%20id%3D%229%22%20style%3D%22shape%3Dconnector%3Brounded%3D0%3BorthogonalLoop%3D1%3BjettySize%3Dauto%3Bhtml%3D1%3BexitX%3D0%3BexitY%3D0.5%3BexitDx%3D0%3BexitDy%3D0%3BentryX%3D1%3BentryY%3D0.5%3BentryDx%3D0%3BentryDy%3D0%3Bdashed%3D1%3BstrokeColor%3D%23000000%3BstrokeWidth%3D1%3Balign%3Dcenter%3BverticalAlign%3Dmiddle%3BfontFamily%3DHelvetica%3BfontSize%3D16%3BfontColor%3Ddefault%3BfontStyle%3D1%3BlabelBackgroundColor%3Ddefault%3Bresizable%3D0%3BendArrow%3Dnone%3BendFill%3D0%3BstartArrow%3Dopen%3BstartFill%3D0%3B%22%20edge%3D%221%22%20source%3D%2211%22%20target%3D%228%22%20parent%3D%221%22%3E%3CmxGeometry%20relative%3D%221%22%20as%3D%22geometry%22%3E%3CmxPoint%20x%3D%22561%22%20y%3D%221465%22%20as%3D%22targetPoint%22%2F%3E%3C%2FmxGeometry%3E%3C%2FmxCell%3E%3CmxCell%20id%3D%2210%22%20value%3D%22%26amp%3Blt%3B%26amp%3Blt%3Bdepends%20on%26amp%3Bgt%3B%26amp%3Bgt%3B%22%20style%3D%22edgeLabel%3Bhtml%3D1%3Balign%3Dcenter%3BverticalAlign%3Dmiddle%3Bresizable%3D0%3Bpoints%3D%5B%5D%3BstrokeColor%3Ddefault%3BspacingLeft%3D5%3BfontFamily%3DHelvetica%3BfontSize%3D16%3BfontColor%3Ddefault%3BfontStyle%3D1%3BlabelBackgroundColor%3Ddefault%3BfillColor%3Ddefault%3BgradientColor%3Dnone%3B%22%20vertex%3D%221%22%20connectable%3D%220%22%20parent%3D%229%22%3E%3CmxGeometry%20x%3D%220.1543%22%20relative%3D%221%22%20as%3D%22geometry%22%3E%3CmxPoint%20x%3D%2215%22%20y%3D%22-15%22%20as%3D%22offset%22%2F%3E%3C%2FmxGeometry%3E%3C%2FmxCell%3E%3CmxCell%20id%3D%2211%22%20value%3D%22%26amp%3Blt%3B%26amp%3Blt%3Bartifact%26amp%3Bgt%3B%26amp%3Bgt%3B%26lt%3Bdiv%26gt%3BHTTPS%26lt%3B%2Fdiv%26gt%3B%22%20style%3D%22html%3D1%3Balign%3Dcenter%3BverticalAlign%3Dmiddle%3Bdashed%3D0%3BwhiteSpace%3Dwrap%3BstrokeColor%3Ddefault%3BspacingLeft%3D5%3BfontFamily%3DHelvetica%3BfontSize%3D16%3BfontColor%3Ddefault%3BfontStyle%3D1%3BlabelBackgroundColor%3Ddefault%3Bresizable%3D0%3BfillColor%3Ddefault%3BgradientColor%3Dnone%3B%22%20vertex%3D%221%22%20parent%3D%221%22%3E%3CmxGeometry%20x%3D%22680%22%20y%3D%221370%22%20width%3D%22180%22%20height%3D%2260%22%20as%3D%22geometry%22%2F%3E%3C%2FmxCell%3E%3CmxCell%20id%3D%2212%22%20style%3D%22shape%3Dconnector%3Brounded%3D0%3BorthogonalLoop%3D1%3BjettySize%3Dauto%3Bhtml%3D1%3BexitX%3D0%3BexitY%3D0.5%3BexitDx%3D0%3BexitDy%3D0%3Bdashed%3D1%3BstrokeColor%3D%23000000%3BstrokeWidth%3D1%3Balign%3Dcenter%3BverticalAlign%3Dmiddle%3BfontFamily%3DHelvetica%3BfontSize%3D16%3BfontColor%3Ddefault%3BfontStyle%3D1%3BlabelBackgroundColor%3Ddefault%3Bresizable%3D0%3BendArrow%3Dnone%3BendFill%3D0%3BentryX%3D1%3BentryY%3D0.5%3BentryDx%3D0%3BentryDy%3D0%3BstartArrow%3Dopen%3BstartFill%3D0%3B%22%20edge%3D%221%22%20source%3D%2214%22%20target%3D%228%22%20parent%3D%221%22%3E%3CmxGeometry%20relative%3D%221%22%20as%3D%22geometry%22%3E%3CmxPoint%20x%3D%22530%22%20y%3D%221617%22%20as%3D%22targetPoint%22%2F%3E%3C%2FmxGeometry%3E%3C%2FmxCell%3E%3CmxCell%20id%3D%2213%22%20value%3D%22%26amp%3Blt%3B%26amp%3Blt%3Bdepends%20on%26amp%3Bgt%3B%26amp%3Bgt%3B%22%20style%3D%22edgeLabel%3Bhtml%3D1%3Balign%3Dcenter%3BverticalAlign%3Dmiddle%3Bresizable%3D0%3Bpoints%3D%5B%5D%3BstrokeColor%3Ddefault%3BspacingLeft%3D5%3BfontFamily%3DHelvetica%3BfontSize%3D16%3BfontColor%3Ddefault%3BfontStyle%3D1%3BlabelBackgroundColor%3Ddefault%3BfillColor%3Ddefault%3BgradientColor%3Dnone%3B%22%20vertex%3D%221%22%20connectable%3D%220%22%20parent%3D%2212%22%3E%3CmxGeometry%20x%3D%22-0.0254%22%20y%3D%22-1%22%20relative%3D%221%22%20as%3D%22geometry%22%3E%3CmxPoint%20x%3D%221%22%20y%3D%22-9%22%20as%3D%22offset%22%2F%3E%3C%2FmxGeometry%3E%3C%2FmxCell%3E%3CmxCell%20id%3D%2214%22%20value%3D%22%26amp%3Blt%3B%26amp%3Blt%3Bartifact%26amp%3Bgt%3B%26amp%3Bgt%3B%26lt%3Bdiv%26gt%3BMQTT%26lt%3B%2Fdiv%26gt%3B%22%20style%3D%22html%3D1%3Balign%3Dcenter%3BverticalAlign%3Dmiddle%3Bdashed%3D0%3BwhiteSpace%3Dwrap%3BstrokeColor%3Ddefault%3BspacingLeft%3D5%3BfontFamily%3DHelvetica%3BfontSize%3D16%3BfontColor%3Ddefault%3BfontStyle%3D1%3BlabelBackgroundColor%3Ddefault%3Bresizable%3D0%3BfillColor%3Ddefault%3BgradientColor%3Dnone%3B%22%20vertex%3D%221%22%20parent%3D%221%22%3E%3CmxGeometry%20x%3D%22680%22%20y%3D%221495%22%20width%3D%22180%22%20height%3D%2260%22%20as%3D%22geometry%22%2F%3E%3C%2FmxCell%3E%3CmxCell%20id%3D%2215%22%20value%3D%22%26lt%3Bspan%26gt%3B%26amp%3Blt%3B%26amp%3Blt%3Bdata%20store%26amp%3Bgt%3B%26amp%3Bgt%3B%26lt%3B%2Fspan%26gt%3B%26lt%3Bdiv%26gt%3B%26lt%3Bspan%26gt%3BLocalMemory%26lt%3B%2Fspan%26gt%3B%26lt%3B%2Fdiv%26gt%3B%22%20style%3D%22html%3D1%3BdropTarget%3D0%3BwhiteSpace%3Dwrap%3BstrokeColor%3Ddefault%3Balign%3Dcenter%3BverticalAlign%3Dmiddle%3BspacingLeft%3D5%3BfontFamily%3DHelvetica%3BfontSize%3D16%3BfontColor%3Ddefault%3BfontStyle%3D1%3BlabelBackgroundColor%3Ddefault%3Bresizable%3D0%3BfillColor%3Ddefault%3BgradientColor%3Dnone%3B%22%20vertex%3D%221%22%20parent%3D%221%22%3E%3CmxGeometry%20x%3D%2240%22%20y%3D%221495%22%20width%3D%22180%22%20height%3D%2290%22%20as%3D%22geometry%22%2F%3E%3C%2FmxCell%3E%3CmxCell%20id%3D%2216%22%20value%3D%22%22%20style%3D%22shape%3Dmodule%3BjettyWidth%3D8%3BjettyHeight%3D4%3BstrokeColor%3Ddefault%3Balign%3Dcenter%3BverticalAlign%3Dmiddle%3BspacingLeft%3D5%3BfontFamily%3DHelvetica%3BfontSize%3D16%3BfontColor%3Ddefault%3BfontStyle%3D1%3BlabelBackgroundColor%3Ddefault%3Bresizable%3D0%3BfillColor%3Ddefault%3BgradientColor%3Dnone%3B%22%20vertex%3D%221%22%20parent%3D%2215%22%3E%3CmxGeometry%20x%3D%221%22%20width%3D%2220%22%20height%3D%2220%22%20relative%3D%221%22%20as%3D%22geometry%22%3E%3CmxPoint%20x%3D%22-30%22%20y%3D%2215%22%20as%3D%22offset%22%2F%3E%3C%2FmxGeometry%3E%3C%2FmxCell%3E%3C%2Froot%3E%3C%2FmxGraphModel%3E&lt;/span&gt;&lt;/div&gt;" style="html=1;align=center;verticalAlign=middle;dashed=0;whiteSpace=wrap;strokeColor=default;spacingLeft=5;fontFamily=Helvetica;fontSize=16;fontColor=default;fontStyle=1;labelBackgroundColor=default;resizable=0;fillColor=default;gradientColor=none;" vertex="1" parent="1">
          <mxGeometry x="350" y="2195" width="180" height="60" as="geometry" />
        </mxCell>
        <mxCell id="6dHN_h9EE64nun_4hgVf-370" style="shape=connector;rounded=0;orthogonalLoop=1;jettySize=auto;html=1;exitX=0;exitY=0.5;exitDx=0;exitDy=0;entryX=1;entryY=0.5;entryDx=0;entryDy=0;dashed=1;strokeColor=#000000;strokeWidth=1;align=center;verticalAlign=middle;fontFamily=Helvetica;fontSize=16;fontColor=default;fontStyle=1;labelBackgroundColor=default;resizable=0;endArrow=none;endFill=0;startArrow=open;startFill=0;" edge="1" parent="1" source="6dHN_h9EE64nun_4hgVf-372" target="6dHN_h9EE64nun_4hgVf-369">
          <mxGeometry relative="1" as="geometry">
            <mxPoint x="561" y="2225" as="targetPoint" />
          </mxGeometry>
        </mxCell>
        <mxCell id="6dHN_h9EE64nun_4hgVf-371" value="&amp;lt;&amp;lt;depends on&amp;gt;&amp;gt;" style="edgeLabel;html=1;align=center;verticalAlign=middle;resizable=0;points=[];strokeColor=default;spacingLeft=5;fontFamily=Helvetica;fontSize=16;fontColor=default;fontStyle=1;labelBackgroundColor=default;fillColor=default;gradientColor=none;" vertex="1" connectable="0" parent="6dHN_h9EE64nun_4hgVf-370">
          <mxGeometry x="0.1543" relative="1" as="geometry">
            <mxPoint x="15" y="-15" as="offset" />
          </mxGeometry>
        </mxCell>
        <mxCell id="6dHN_h9EE64nun_4hgVf-372" value="&amp;lt;&amp;lt;artifact&amp;gt;&amp;gt;&lt;div&gt;HTTPS&lt;/div&gt;" style="html=1;align=center;verticalAlign=middle;dashed=0;whiteSpace=wrap;strokeColor=default;spacingLeft=5;fontFamily=Helvetica;fontSize=16;fontColor=default;fontStyle=1;labelBackgroundColor=default;resizable=0;fillColor=default;gradientColor=none;" vertex="1" parent="1">
          <mxGeometry x="680" y="2120" width="180" height="60" as="geometry" />
        </mxCell>
        <mxCell id="6dHN_h9EE64nun_4hgVf-373" style="shape=connector;rounded=0;orthogonalLoop=1;jettySize=auto;html=1;exitX=0;exitY=0.5;exitDx=0;exitDy=0;dashed=1;strokeColor=#000000;strokeWidth=1;align=center;verticalAlign=middle;fontFamily=Helvetica;fontSize=16;fontColor=default;fontStyle=1;labelBackgroundColor=default;resizable=0;endArrow=none;endFill=0;entryX=1;entryY=0.5;entryDx=0;entryDy=0;startArrow=open;startFill=0;" edge="1" parent="1" source="6dHN_h9EE64nun_4hgVf-375" target="6dHN_h9EE64nun_4hgVf-369">
          <mxGeometry relative="1" as="geometry">
            <mxPoint x="530" y="2377" as="targetPoint" />
          </mxGeometry>
        </mxCell>
        <mxCell id="6dHN_h9EE64nun_4hgVf-374" value="&amp;lt;&amp;lt;depends on&amp;gt;&amp;gt;" style="edgeLabel;html=1;align=center;verticalAlign=middle;resizable=0;points=[];strokeColor=default;spacingLeft=5;fontFamily=Helvetica;fontSize=16;fontColor=default;fontStyle=1;labelBackgroundColor=default;fillColor=default;gradientColor=none;" vertex="1" connectable="0" parent="6dHN_h9EE64nun_4hgVf-373">
          <mxGeometry x="-0.0254" y="-1" relative="1" as="geometry">
            <mxPoint x="1" y="-9" as="offset" />
          </mxGeometry>
        </mxCell>
        <mxCell id="6dHN_h9EE64nun_4hgVf-375" value="&amp;lt;&amp;lt;artifact&amp;gt;&amp;gt;&lt;div&gt;MQTT&lt;/div&gt;" style="html=1;align=center;verticalAlign=middle;dashed=0;whiteSpace=wrap;strokeColor=default;spacingLeft=5;fontFamily=Helvetica;fontSize=16;fontColor=default;fontStyle=1;labelBackgroundColor=default;resizable=0;fillColor=default;gradientColor=none;" vertex="1" parent="1">
          <mxGeometry x="680" y="2195" width="180" height="60" as="geometry" />
        </mxCell>
        <mxCell id="6dHN_h9EE64nun_4hgVf-376" value="&lt;span&gt;&amp;lt;&amp;lt;process&amp;gt;&amp;gt;&lt;/span&gt;&lt;div&gt;&lt;span&gt;TaskScheduler&lt;/span&gt;&lt;/div&gt;" style="html=1;dropTarget=0;whiteSpace=wrap;strokeColor=default;align=center;verticalAlign=middle;spacingLeft=5;fontFamily=Helvetica;fontSize=16;fontColor=default;fontStyle=1;labelBackgroundColor=default;resizable=0;fillColor=default;gradientColor=none;" vertex="1" parent="1">
          <mxGeometry x="40" y="2240" width="180" height="90" as="geometry" />
        </mxCell>
        <mxCell id="6dHN_h9EE64nun_4hgVf-377" value="" style="shape=module;jettyWidth=8;jettyHeight=4;strokeColor=default;align=center;verticalAlign=middle;spacingLeft=5;fontFamily=Helvetica;fontSize=16;fontColor=default;fontStyle=1;labelBackgroundColor=default;resizable=0;fillColor=default;gradientColor=none;" vertex="1" parent="6dHN_h9EE64nun_4hgVf-376">
          <mxGeometry x="1" width="20" height="20" relative="1" as="geometry">
            <mxPoint x="-30" y="15" as="offset" />
          </mxGeometry>
        </mxCell>
        <mxCell id="6dHN_h9EE64nun_4hgVf-379" value="&amp;lt;&amp;lt;artifact&amp;gt;&amp;gt;&lt;div&gt;gRPC&lt;/div&gt;" style="html=1;align=center;verticalAlign=middle;dashed=0;whiteSpace=wrap;strokeColor=default;spacingLeft=5;fontFamily=Helvetica;fontSize=16;fontColor=default;fontStyle=1;labelBackgroundColor=default;resizable=0;fillColor=default;gradientColor=none;" vertex="1" parent="1">
          <mxGeometry x="680" y="2270" width="180" height="60" as="geometry" />
        </mxCell>
        <mxCell id="miVMZqAtS1C6sNfraPWD-5" value="&lt;div&gt;&lt;span&gt;&amp;lt;&amp;lt;process&amp;gt;&amp;gt;&lt;/span&gt;&lt;/div&gt;&lt;span&gt;OptimizationEngine&lt;/span&gt;" style="html=1;dropTarget=0;whiteSpace=wrap;strokeColor=default;align=center;verticalAlign=middle;spacingLeft=5;fontFamily=Helvetica;fontSize=16;fontColor=default;fontStyle=1;labelBackgroundColor=default;resizable=0;fillColor=default;gradientColor=none;" vertex="1" parent="1">
          <mxGeometry x="40" y="2400" width="180" height="90" as="geometry" />
        </mxCell>
        <mxCell id="miVMZqAtS1C6sNfraPWD-6" value="" style="shape=module;jettyWidth=8;jettyHeight=4;strokeColor=default;align=center;verticalAlign=middle;spacingLeft=5;fontFamily=Helvetica;fontSize=16;fontColor=default;fontStyle=1;labelBackgroundColor=default;resizable=0;fillColor=default;gradientColor=none;" vertex="1" parent="miVMZqAtS1C6sNfraPWD-5">
          <mxGeometry x="1" width="20" height="20" relative="1" as="geometry">
            <mxPoint x="-27" y="7" as="offset" />
          </mxGeometry>
        </mxCell>
        <mxCell id="miVMZqAtS1C6sNfraPWD-7" style="edgeStyle=orthogonalEdgeStyle;shape=connector;rounded=0;orthogonalLoop=1;jettySize=auto;html=1;exitX=0;exitY=0.5;exitDx=0;exitDy=0;entryX=1;entryY=0.5;entryDx=0;entryDy=0;dashed=1;strokeColor=#000000;strokeWidth=1;align=center;verticalAlign=middle;fontFamily=Helvetica;fontSize=16;fontColor=default;fontStyle=1;labelBackgroundColor=default;resizable=0;endArrow=open;endFill=0;" edge="1" parent="1" source="miVMZqAtS1C6sNfraPWD-9" target="miVMZqAtS1C6sNfraPWD-5">
          <mxGeometry relative="1" as="geometry" />
        </mxCell>
        <mxCell id="miVMZqAtS1C6sNfraPWD-8" value="&amp;lt;&amp;lt;manifest&amp;gt;&amp;gt;" style="edgeLabel;html=1;align=center;verticalAlign=middle;resizable=0;points=[];strokeColor=default;spacingLeft=5;fontFamily=Helvetica;fontSize=16;fontColor=default;fontStyle=1;labelBackgroundColor=default;fillColor=default;gradientColor=none;" vertex="1" connectable="0" parent="miVMZqAtS1C6sNfraPWD-7">
          <mxGeometry x="0.1117" y="-3" relative="1" as="geometry">
            <mxPoint x="7" y="-11" as="offset" />
          </mxGeometry>
        </mxCell>
        <mxCell id="miVMZqAtS1C6sNfraPWD-9" value="&amp;lt;&amp;lt;artifact&amp;gt;&amp;gt;&lt;div&gt;OptimizationEngine.py&lt;/div&gt;" style="html=1;align=center;verticalAlign=middle;dashed=0;whiteSpace=wrap;strokeColor=default;spacingLeft=5;fontFamily=Helvetica;fontSize=16;fontColor=default;fontStyle=1;labelBackgroundColor=default;resizable=0;fillColor=default;gradientColor=none;" vertex="1" parent="1">
          <mxGeometry x="341" y="2415" width="180" height="60" as="geometry" />
        </mxCell>
        <mxCell id="miVMZqAtS1C6sNfraPWD-10" style="edgeStyle=orthogonalEdgeStyle;shape=connector;rounded=0;orthogonalLoop=1;jettySize=auto;html=1;exitX=0;exitY=0.5;exitDx=0;exitDy=0;entryX=1;entryY=0.5;entryDx=0;entryDy=0;dashed=1;strokeColor=#000000;strokeWidth=1;align=center;verticalAlign=middle;fontFamily=Helvetica;fontSize=16;fontColor=default;fontStyle=1;labelBackgroundColor=default;resizable=0;endArrow=none;endFill=0;startArrow=open;startFill=0;" edge="1" parent="1" source="miVMZqAtS1C6sNfraPWD-12" target="miVMZqAtS1C6sNfraPWD-9">
          <mxGeometry relative="1" as="geometry">
            <mxPoint x="552" y="2445" as="targetPoint" />
          </mxGeometry>
        </mxCell>
        <mxCell id="miVMZqAtS1C6sNfraPWD-11" value="&amp;lt;&amp;lt;depends on&amp;gt;&amp;gt;" style="edgeLabel;html=1;align=center;verticalAlign=middle;resizable=0;points=[];strokeColor=default;spacingLeft=5;fontFamily=Helvetica;fontSize=16;fontColor=default;fontStyle=1;labelBackgroundColor=default;fillColor=default;gradientColor=none;" vertex="1" connectable="0" parent="miVMZqAtS1C6sNfraPWD-10">
          <mxGeometry x="0.1543" relative="1" as="geometry">
            <mxPoint x="15" y="-15" as="offset" />
          </mxGeometry>
        </mxCell>
        <mxCell id="miVMZqAtS1C6sNfraPWD-12" value="&amp;lt;&amp;lt;artifact&amp;gt;&amp;gt;&lt;div&gt;gRPC&lt;/div&gt;" style="html=1;align=center;verticalAlign=middle;dashed=0;whiteSpace=wrap;strokeColor=default;spacingLeft=5;fontFamily=Helvetica;fontSize=16;fontColor=default;fontStyle=1;labelBackgroundColor=default;resizable=0;fillColor=default;gradientColor=none;" vertex="1" parent="1">
          <mxGeometry x="671" y="2415" width="180" height="60" as="geometry" />
        </mxCell>
        <mxCell id="miVMZqAtS1C6sNfraPWD-21" value="&lt;div&gt;&lt;span&gt;&amp;lt;&amp;lt;process&amp;gt;&amp;gt;&lt;/span&gt;&lt;/div&gt;&lt;span&gt;PredictionService&lt;/span&gt;" style="html=1;dropTarget=0;whiteSpace=wrap;strokeColor=default;align=center;verticalAlign=middle;spacingLeft=5;fontFamily=Helvetica;fontSize=16;fontColor=default;fontStyle=1;labelBackgroundColor=default;resizable=0;fillColor=default;gradientColor=none;" vertex="1" parent="1">
          <mxGeometry x="40" y="2510" width="180" height="90" as="geometry" />
        </mxCell>
        <mxCell id="miVMZqAtS1C6sNfraPWD-22" value="" style="shape=module;jettyWidth=8;jettyHeight=4;strokeColor=default;align=center;verticalAlign=middle;spacingLeft=5;fontFamily=Helvetica;fontSize=16;fontColor=default;fontStyle=1;labelBackgroundColor=default;resizable=0;fillColor=default;gradientColor=none;" vertex="1" parent="miVMZqAtS1C6sNfraPWD-21">
          <mxGeometry x="1" width="20" height="20" relative="1" as="geometry">
            <mxPoint x="-27" y="7" as="offset" />
          </mxGeometry>
        </mxCell>
        <mxCell id="miVMZqAtS1C6sNfraPWD-23" style="shape=connector;rounded=0;orthogonalLoop=1;jettySize=auto;html=1;exitX=0;exitY=0.5;exitDx=0;exitDy=0;entryX=1;entryY=0.5;entryDx=0;entryDy=0;dashed=1;strokeColor=#000000;strokeWidth=1;align=center;verticalAlign=middle;fontFamily=Helvetica;fontSize=16;fontColor=default;fontStyle=1;labelBackgroundColor=default;resizable=0;endArrow=open;endFill=0;" edge="1" parent="1" source="miVMZqAtS1C6sNfraPWD-27" target="miVMZqAtS1C6sNfraPWD-21">
          <mxGeometry relative="1" as="geometry" />
        </mxCell>
        <mxCell id="miVMZqAtS1C6sNfraPWD-24" value="&amp;lt;&amp;lt;manifest&amp;gt;&amp;gt;" style="edgeLabel;html=1;align=center;verticalAlign=middle;resizable=0;points=[];strokeColor=default;spacingLeft=5;fontFamily=Helvetica;fontSize=16;fontColor=default;fontStyle=1;labelBackgroundColor=default;fillColor=default;gradientColor=none;" vertex="1" connectable="0" parent="miVMZqAtS1C6sNfraPWD-23">
          <mxGeometry x="0.1117" y="-3" relative="1" as="geometry">
            <mxPoint x="7" y="-12" as="offset" />
          </mxGeometry>
        </mxCell>
        <mxCell id="miVMZqAtS1C6sNfraPWD-25" style="shape=connector;rounded=0;orthogonalLoop=1;jettySize=auto;html=1;exitX=0;exitY=0.5;exitDx=0;exitDy=0;entryX=1;entryY=0.5;entryDx=0;entryDy=0;dashed=1;strokeColor=#000000;strokeWidth=1;align=center;verticalAlign=middle;fontFamily=Helvetica;fontSize=16;fontColor=default;fontStyle=1;labelBackgroundColor=default;resizable=0;endArrow=open;endFill=0;" edge="1" parent="1" source="miVMZqAtS1C6sNfraPWD-27" target="miVMZqAtS1C6sNfraPWD-34">
          <mxGeometry relative="1" as="geometry" />
        </mxCell>
        <mxCell id="miVMZqAtS1C6sNfraPWD-26" value="&amp;lt;&amp;lt;manifest&amp;gt;&amp;gt;" style="edgeLabel;html=1;align=center;verticalAlign=middle;resizable=0;points=[];strokeColor=default;spacingLeft=5;fontFamily=Helvetica;fontSize=16;fontColor=default;fontStyle=1;labelBackgroundColor=default;fillColor=default;gradientColor=none;" vertex="1" connectable="0" parent="miVMZqAtS1C6sNfraPWD-25">
          <mxGeometry x="-0.014" y="-3" relative="1" as="geometry">
            <mxPoint as="offset" />
          </mxGeometry>
        </mxCell>
        <mxCell id="miVMZqAtS1C6sNfraPWD-27" value="&amp;lt;&amp;lt;artifact&amp;gt;&amp;gt;&lt;div&gt;PredictionService.py&lt;/div&gt;" style="html=1;align=center;verticalAlign=middle;dashed=0;whiteSpace=wrap;strokeColor=default;spacingLeft=5;fontFamily=Helvetica;fontSize=16;fontColor=default;fontStyle=1;labelBackgroundColor=default;resizable=0;fillColor=default;gradientColor=none;" vertex="1" parent="1">
          <mxGeometry x="350" y="2565" width="180" height="60" as="geometry" />
        </mxCell>
        <mxCell id="miVMZqAtS1C6sNfraPWD-28" style="shape=connector;rounded=0;orthogonalLoop=1;jettySize=auto;html=1;exitX=0;exitY=0.5;exitDx=0;exitDy=0;entryX=1;entryY=0.5;entryDx=0;entryDy=0;dashed=1;strokeColor=#000000;strokeWidth=1;align=center;verticalAlign=middle;fontFamily=Helvetica;fontSize=16;fontColor=default;fontStyle=1;labelBackgroundColor=default;resizable=0;endArrow=none;endFill=0;startArrow=open;startFill=0;" edge="1" parent="1" source="miVMZqAtS1C6sNfraPWD-30" target="miVMZqAtS1C6sNfraPWD-27">
          <mxGeometry relative="1" as="geometry">
            <mxPoint x="561" y="2595" as="targetPoint" />
          </mxGeometry>
        </mxCell>
        <mxCell id="miVMZqAtS1C6sNfraPWD-29" value="&amp;lt;&amp;lt;depends on&amp;gt;&amp;gt;" style="edgeLabel;html=1;align=center;verticalAlign=middle;resizable=0;points=[];strokeColor=default;spacingLeft=5;fontFamily=Helvetica;fontSize=16;fontColor=default;fontStyle=1;labelBackgroundColor=default;fillColor=default;gradientColor=none;" vertex="1" connectable="0" parent="miVMZqAtS1C6sNfraPWD-28">
          <mxGeometry x="0.1543" relative="1" as="geometry">
            <mxPoint x="15" y="-15" as="offset" />
          </mxGeometry>
        </mxCell>
        <mxCell id="miVMZqAtS1C6sNfraPWD-30" value="&amp;lt;&amp;lt;artifact&amp;gt;&amp;gt;&lt;div&gt;gRPC&lt;/div&gt;" style="html=1;align=center;verticalAlign=middle;dashed=0;whiteSpace=wrap;strokeColor=default;spacingLeft=5;fontFamily=Helvetica;fontSize=16;fontColor=default;fontStyle=1;labelBackgroundColor=default;resizable=0;fillColor=default;gradientColor=none;" vertex="1" parent="1">
          <mxGeometry x="680" y="2525" width="180" height="60" as="geometry" />
        </mxCell>
        <mxCell id="miVMZqAtS1C6sNfraPWD-31" style="shape=connector;rounded=0;orthogonalLoop=1;jettySize=auto;html=1;exitX=0;exitY=0.5;exitDx=0;exitDy=0;dashed=1;strokeColor=#000000;strokeWidth=1;align=center;verticalAlign=middle;fontFamily=Helvetica;fontSize=16;fontColor=default;fontStyle=1;labelBackgroundColor=default;resizable=0;endArrow=none;endFill=0;entryX=1;entryY=0.5;entryDx=0;entryDy=0;startArrow=open;startFill=0;" edge="1" parent="1" source="miVMZqAtS1C6sNfraPWD-33" target="miVMZqAtS1C6sNfraPWD-27">
          <mxGeometry relative="1" as="geometry">
            <mxPoint x="530" y="2747" as="targetPoint" />
          </mxGeometry>
        </mxCell>
        <mxCell id="miVMZqAtS1C6sNfraPWD-32" value="&amp;lt;&amp;lt;depends on&amp;gt;&amp;gt;" style="edgeLabel;html=1;align=center;verticalAlign=middle;resizable=0;points=[];strokeColor=default;spacingLeft=5;fontFamily=Helvetica;fontSize=16;fontColor=default;fontStyle=1;labelBackgroundColor=default;fillColor=default;gradientColor=none;" vertex="1" connectable="0" parent="miVMZqAtS1C6sNfraPWD-31">
          <mxGeometry x="-0.0254" y="-1" relative="1" as="geometry">
            <mxPoint x="1" y="-9" as="offset" />
          </mxGeometry>
        </mxCell>
        <mxCell id="miVMZqAtS1C6sNfraPWD-33" value="&amp;lt;&amp;lt;artifact&amp;gt;&amp;gt;&lt;div&gt;ProphetLib&lt;/div&gt;" style="html=1;align=center;verticalAlign=middle;dashed=0;whiteSpace=wrap;strokeColor=default;spacingLeft=5;fontFamily=Helvetica;fontSize=16;fontColor=default;fontStyle=1;labelBackgroundColor=default;resizable=0;fillColor=default;gradientColor=none;" vertex="1" parent="1">
          <mxGeometry x="680" y="2600" width="180" height="60" as="geometry" />
        </mxCell>
        <mxCell id="miVMZqAtS1C6sNfraPWD-34" value="&lt;span&gt;&amp;lt;&amp;lt;process&amp;gt;&amp;gt;&lt;/span&gt;&lt;div&gt;&lt;span&gt;PredictionModel&lt;/span&gt;&lt;/div&gt;" style="html=1;dropTarget=0;whiteSpace=wrap;strokeColor=default;align=center;verticalAlign=middle;spacingLeft=5;fontFamily=Helvetica;fontSize=16;fontColor=default;fontStyle=1;labelBackgroundColor=default;resizable=0;fillColor=default;gradientColor=none;" vertex="1" parent="1">
          <mxGeometry x="40" y="2610" width="180" height="90" as="geometry" />
        </mxCell>
        <mxCell id="miVMZqAtS1C6sNfraPWD-35" value="" style="shape=module;jettyWidth=8;jettyHeight=4;strokeColor=default;align=center;verticalAlign=middle;spacingLeft=5;fontFamily=Helvetica;fontSize=16;fontColor=default;fontStyle=1;labelBackgroundColor=default;resizable=0;fillColor=default;gradientColor=none;" vertex="1" parent="miVMZqAtS1C6sNfraPWD-34">
          <mxGeometry x="1" width="20" height="20" relative="1" as="geometry">
            <mxPoint x="-30" y="15" as="offset" />
          </mxGeometry>
        </mxCell>
        <mxCell id="miVMZqAtS1C6sNfraPWD-36" value="&lt;div&gt;&lt;span&gt;&amp;lt;&amp;lt;process&amp;gt;&amp;gt;&lt;/span&gt;&lt;/div&gt;&lt;span&gt;DataService&lt;/span&gt;" style="html=1;dropTarget=0;whiteSpace=wrap;strokeColor=default;align=center;verticalAlign=middle;spacingLeft=5;fontFamily=Helvetica;fontSize=16;fontColor=default;fontStyle=1;labelBackgroundColor=default;resizable=0;fillColor=default;gradientColor=none;" vertex="1" parent="1">
          <mxGeometry x="40" y="2800" width="180" height="90" as="geometry" />
        </mxCell>
        <mxCell id="miVMZqAtS1C6sNfraPWD-37" value="" style="shape=module;jettyWidth=8;jettyHeight=4;strokeColor=default;align=center;verticalAlign=middle;spacingLeft=5;fontFamily=Helvetica;fontSize=16;fontColor=default;fontStyle=1;labelBackgroundColor=default;resizable=0;fillColor=default;gradientColor=none;" vertex="1" parent="miVMZqAtS1C6sNfraPWD-36">
          <mxGeometry x="1" width="20" height="20" relative="1" as="geometry">
            <mxPoint x="-27" y="7" as="offset" />
          </mxGeometry>
        </mxCell>
        <mxCell id="miVMZqAtS1C6sNfraPWD-38" style="shape=connector;rounded=0;orthogonalLoop=1;jettySize=auto;html=1;exitX=0;exitY=0.5;exitDx=0;exitDy=0;entryX=1;entryY=0.5;entryDx=0;entryDy=0;dashed=1;strokeColor=#000000;strokeWidth=1;align=center;verticalAlign=middle;fontFamily=Helvetica;fontSize=16;fontColor=default;fontStyle=1;labelBackgroundColor=default;resizable=0;endArrow=open;endFill=0;" edge="1" parent="1" source="miVMZqAtS1C6sNfraPWD-44" target="miVMZqAtS1C6sNfraPWD-36">
          <mxGeometry relative="1" as="geometry" />
        </mxCell>
        <mxCell id="miVMZqAtS1C6sNfraPWD-39" value="&amp;lt;&amp;lt;manifest&amp;gt;&amp;gt;" style="edgeLabel;html=1;align=center;verticalAlign=middle;resizable=0;points=[];strokeColor=default;spacingLeft=5;fontFamily=Helvetica;fontSize=16;fontColor=default;fontStyle=1;labelBackgroundColor=default;fillColor=default;gradientColor=none;" vertex="1" connectable="0" parent="miVMZqAtS1C6sNfraPWD-38">
          <mxGeometry x="0.1117" y="-3" relative="1" as="geometry">
            <mxPoint x="7" y="-12" as="offset" />
          </mxGeometry>
        </mxCell>
        <mxCell id="miVMZqAtS1C6sNfraPWD-42" style="edgeStyle=none;shape=connector;rounded=0;orthogonalLoop=1;jettySize=auto;html=1;exitX=1;exitY=0.5;exitDx=0;exitDy=0;entryX=0;entryY=0.5;entryDx=0;entryDy=0;dashed=1;strokeColor=#000000;strokeWidth=1;align=center;verticalAlign=middle;fontFamily=Helvetica;fontSize=16;fontColor=default;fontStyle=0;labelBackgroundColor=default;resizable=0;endArrow=open;endFill=0;" edge="1" parent="1" source="miVMZqAtS1C6sNfraPWD-44" target="miVMZqAtS1C6sNfraPWD-53">
          <mxGeometry relative="1" as="geometry" />
        </mxCell>
        <mxCell id="miVMZqAtS1C6sNfraPWD-43" value="&amp;lt;&amp;lt;depends on&amp;gt;&amp;gt;" style="edgeLabel;html=1;align=center;verticalAlign=middle;resizable=0;points=[];strokeColor=default;spacingLeft=5;fontFamily=Helvetica;fontSize=16;fontColor=default;fontStyle=0;labelBackgroundColor=default;fillColor=default;gradientColor=none;" vertex="1" connectable="0" parent="miVMZqAtS1C6sNfraPWD-42">
          <mxGeometry x="-0.0505" y="-6" relative="1" as="geometry">
            <mxPoint as="offset" />
          </mxGeometry>
        </mxCell>
        <mxCell id="miVMZqAtS1C6sNfraPWD-44" value="&amp;lt;&amp;lt;artifact&amp;gt;&amp;gt;&lt;div&gt;DataService.jar&lt;span style=&quot;background-color: light-dark(rgb(236, 236, 236), rgb(34, 34, 34)); color: light-dark(rgba(0, 0, 0, 0), rgb(237, 237, 237)); font-family: monospace; font-size: 0px; font-weight: 400; text-align: start; text-wrap-mode: nowrap;&quot;&gt;dd3CmxGraphModel%3E%3Croot%3E%3CmxCell%20id%3D%220%22%2F%3E%3CmxCell%20id%3D%221%22%20parent%3D%220%22%2F%3E%3CmxCell%20id%3D%222%22%20value%3D%22%26lt%3Bdiv%26gt%3B%26lt%3Bspan%26gt%3B%26amp%3Blt%3B%26amp%3Blt%3Bprocess%26amp%3Bgt%3B%26amp%3Bgt%3B%26lt%3B%2Fspan%26gt%3B%26lt%3B%2Fdiv%26gt%3B%26lt%3Bspan%26gt%3BGatewayController%26lt%3B%2Fspan%26gt%3B%22%20style%3D%22html%3D1%3BdropTarget%3D0%3BwhiteSpace%3Dwrap%3BstrokeColor%3Ddefault%3Balign%3Dcenter%3BverticalAlign%3Dmiddle%3BspacingLeft%3D5%3BfontFamily%3DHelvetica%3BfontSize%3D16%3BfontColor%3Ddefault%3BfontStyle%3D1%3BlabelBackgroundColor%3Ddefault%3Bresizable%3D0%3BfillColor%3Ddefault%3BgradientColor%3Dnone%3B%22%20vertex%3D%221%22%20parent%3D%221%22%3E%3CmxGeometry%20x%3D%2240%22%20y%3D%221360%22%20width%3D%22180%22%20height%3D%2290%22%20as%3D%22geometry%22%2F%3E%3C%2FmxCell%3E%3CmxCell%20id%3D%223%22%20value%3D%22%22%20style%3D%22shape%3Dmodule%3BjettyWidth%3D8%3BjettyHeight%3D4%3BstrokeColor%3Ddefault%3Balign%3Dcenter%3BverticalAlign%3Dmiddle%3BspacingLeft%3D5%3BfontFamily%3DHelvetica%3BfontSize%3D16%3BfontColor%3Ddefault%3BfontStyle%3D1%3BlabelBackgroundColor%3Ddefault%3Bresizable%3D0%3BfillColor%3Ddefault%3BgradientColor%3Dnone%3B%22%20vertex%3D%221%22%20parent%3D%222%22%3E%3CmxGeometry%20x%3D%221%22%20width%3D%2220%22%20height%3D%2220%22%20relative%3D%221%22%20as%3D%22geometry%22%3E%3CmxPoint%20x%3D%22-27%22%20y%3D%227%22%20as%3D%22offset%22%2F%3E%3C%2FmxGeometry%3E%3C%2FmxCell%3E%3CmxCell%20id%3D%224%22%20style%3D%22shape%3Dconnector%3Brounded%3D0%3BorthogonalLoop%3D1%3BjettySize%3Dauto%3Bhtml%3D1%3BexitX%3D0%3BexitY%3D0.5%3BexitDx%3D0%3BexitDy%3D0%3BentryX%3D1%3BentryY%3D0.5%3BentryDx%3D0%3BentryDy%3D0%3Bdashed%3D1%3BstrokeColor%3D%23000000%3BstrokeWidth%3D1%3Balign%3Dcenter%3BverticalAlign%3Dmiddle%3BfontFamily%3DHelvetica%3BfontSize%3D16%3BfontColor%3Ddefault%3BfontStyle%3D1%3BlabelBackgroundColor%3Ddefault%3Bresizable%3D0%3BendArrow%3Dopen%3BendFill%3D0%3B%22%20edge%3D%221%22%20source%3D%228%22%20target%3D%222%22%20parent%3D%221%22%3E%3CmxGeometry%20relative%3D%221%22%20as%3D%22geometry%22%2F%3E%3C%2FmxCell%3E%3CmxCell%20id%3D%225%22%20value%3D%22%26amp%3Blt%3B%26amp%3Blt%3Bmanifest%26amp%3Bgt%3B%26amp%3Bgt%3B%22%20style%3D%22edgeLabel%3Bhtml%3D1%3Balign%3Dcenter%3BverticalAlign%3Dmiddle%3Bresizable%3D0%3Bpoints%3D%5B%5D%3BstrokeColor%3Ddefault%3BspacingLeft%3D5%3BfontFamily%3DHelvetica%3BfontSize%3D16%3BfontColor%3Ddefault%3BfontStyle%3D1%3BlabelBackgroundColor%3Ddefault%3BfillColor%3Ddefault%3BgradientColor%3Dnone%3B%22%20vertex%3D%221%22%20connectable%3D%220%22%20parent%3D%224%22%3E%3CmxGeometry%20x%3D%220.1117%22%20y%3D%22-3%22%20relative%3D%221%22%20as%3D%22geometry%22%3E%3CmxPoint%20x%3D%227%22%20y%3D%22-12%22%20as%3D%22offset%22%2F%3E%3C%2FmxGeometry%3E%3C%2FmxCell%3E%3CmxCell%20id%3D%226%22%20style%3D%22shape%3Dconnector%3Brounded%3D0%3BorthogonalLoop%3D1%3BjettySize%3Dauto%3Bhtml%3D1%3BexitX%3D0%3BexitY%3D0.5%3BexitDx%3D0%3BexitDy%3D0%3BentryX%3D1%3BentryY%3D0.5%3BentryDx%3D0%3BentryDy%3D0%3Bdashed%3D1%3BstrokeColor%3D%23000000%3BstrokeWidth%3D1%3Balign%3Dcenter%3BverticalAlign%3Dmiddle%3BfontFamily%3DHelvetica%3BfontSize%3D16%3BfontColor%3Ddefault%3BfontStyle%3D1%3BlabelBackgroundColor%3Ddefault%3Bresizable%3D0%3BendArrow%3Dopen%3BendFill%3D0%3B%22%20edge%3D%221%22%20source%3D%228%22%20target%3D%2215%22%20parent%3D%221%22%3E%3CmxGeometry%20relative%3D%221%22%20as%3D%22geometry%22%2F%3E%3C%2FmxCell%3E%3CmxCell%20id%3D%227%22%20value%3D%22%26amp%3Blt%3B%26amp%3Blt%3Bmanifest%26amp%3Bgt%3B%26amp%3Bgt%3B%22%20style%3D%22edgeLabel%3Bhtml%3D1%3Balign%3Dcenter%3BverticalAlign%3Dmiddle%3Bresizable%3D0%3Bpoints%3D%5B%5D%3BstrokeColor%3Ddefault%3BspacingLeft%3D5%3BfontFamily%3DHelvetica%3BfontSize%3D16%3BfontColor%3Ddefault%3BfontStyle%3D1%3BlabelBackgroundColor%3Ddefault%3BfillColor%3Ddefault%3BgradientColor%3Dnone%3B%22%20vertex%3D%221%22%20connectable%3D%220%22%20parent%3D%226%22%3E%3CmxGeometry%20x%3D%22-0.014%22%20y%3D%22-3%22%20relative%3D%221%22%20as%3D%22geometry%22%3E%3CmxPoint%20as%3D%22offset%22%2F%3E%3C%2FmxGeometry%3E%3C%2FmxCell%3E%3CmxCell%20id%3D%228%22%20value%3D%22%26amp%3Blt%3B%26amp%3Blt%3Bartifact%26amp%3Bgt%3B%26amp%3Bgt%3B%26lt%3Bdiv%26gt%3BHomeGatewayApp.py%26lt%3B%2Fdiv%26gt%3B%22%20style%3D%22html%3D1%3Balign%3Dcenter%3BverticalAlign%3Dmiddle%3Bdashed%3D0%3BwhiteSpace%3Dwrap%3BstrokeColor%3Ddefault%3BspacingLeft%3D5%3BfontFamily%3DHelvetica%3BfontSize%3D16%3BfontColor%3Ddefault%3BfontStyle%3D1%3BlabelBackgroundColor%3Ddefault%3Bresizable%3D0%3BfillColor%3Ddefault%3BgradientColor%3Dnone%3B%22%20vertex%3D%221%22%20parent%3D%221%22%3E%3CmxGeometry%20x%3D%22350%22%20y%3D%221435%22%20width%3D%22180%22%20height%3D%2260%22%20as%3D%22geometry%22%2F%3E%3C%2FmxCell%3E%3CmxCell%20id%3D%229%22%20style%3D%22shape%3Dconnector%3Brounded%3D0%3BorthogonalLoop%3D1%3BjettySize%3Dauto%3Bhtml%3D1%3BexitX%3D0%3BexitY%3D0.5%3BexitDx%3D0%3BexitDy%3D0%3BentryX%3D1%3BentryY%3D0.5%3BentryDx%3D0%3BentryDy%3D0%3Bdashed%3D1%3BstrokeColor%3D%23000000%3BstrokeWidth%3D1%3Balign%3Dcenter%3BverticalAlign%3Dmiddle%3BfontFamily%3DHelvetica%3BfontSize%3D16%3BfontColor%3Ddefault%3BfontStyle%3D1%3BlabelBackgroundColor%3Ddefault%3Bresizable%3D0%3BendArrow%3Dnone%3BendFill%3D0%3BstartArrow%3Dopen%3BstartFill%3D0%3B%22%20edge%3D%221%22%20source%3D%2211%22%20target%3D%228%22%20parent%3D%221%22%3E%3CmxGeometry%20relative%3D%221%22%20as%3D%22geometry%22%3E%3CmxPoint%20x%3D%22561%22%20y%3D%221465%22%20as%3D%22targetPoint%22%2F%3E%3C%2FmxGeometry%3E%3C%2FmxCell%3E%3CmxCell%20id%3D%2210%22%20value%3D%22%26amp%3Blt%3B%26amp%3Blt%3Bdepends%20on%26amp%3Bgt%3B%26amp%3Bgt%3B%22%20style%3D%22edgeLabel%3Bhtml%3D1%3Balign%3Dcenter%3BverticalAlign%3Dmiddle%3Bresizable%3D0%3Bpoints%3D%5B%5D%3BstrokeColor%3Ddefault%3BspacingLeft%3D5%3BfontFamily%3DHelvetica%3BfontSize%3D16%3BfontColor%3Ddefault%3BfontStyle%3D1%3BlabelBackgroundColor%3Ddefault%3BfillColor%3Ddefault%3BgradientColor%3Dnone%3B%22%20vertex%3D%221%22%20connectable%3D%220%22%20parent%3D%229%22%3E%3CmxGeometry%20x%3D%220.1543%22%20relative%3D%221%22%20as%3D%22geometry%22%3E%3CmxPoint%20x%3D%2215%22%20y%3D%22-15%22%20as%3D%22offset%22%2F%3E%3C%2FmxGeometry%3E%3C%2FmxCell%3E%3CmxCell%20id%3D%2211%22%20value%3D%22%26amp%3Blt%3B%26amp%3Blt%3Bartifact%26amp%3Bgt%3B%26amp%3Bgt%3B%26lt%3Bdiv%26gt%3BHTTPS%26lt%3B%2Fdiv%26gt%3B%22%20style%3D%22html%3D1%3Balign%3Dcenter%3BverticalAlign%3Dmiddle%3Bdashed%3D0%3BwhiteSpace%3Dwrap%3BstrokeColor%3Ddefault%3BspacingLeft%3D5%3BfontFamily%3DHelvetica%3BfontSize%3D16%3BfontColor%3Ddefault%3BfontStyle%3D1%3BlabelBackgroundColor%3Ddefault%3Bresizable%3D0%3BfillColor%3Ddefault%3BgradientColor%3Dnone%3B%22%20vertex%3D%221%22%20parent%3D%221%22%3E%3CmxGeometry%20x%3D%22680%22%20y%3D%221370%22%20width%3D%22180%22%20height%3D%2260%22%20as%3D%22geometry%22%2F%3E%3C%2FmxCell%3E%3CmxCell%20id%3D%2212%22%20style%3D%22shape%3Dconnector%3Brounded%3D0%3BorthogonalLoop%3D1%3BjettySize%3Dauto%3Bhtml%3D1%3BexitX%3D0%3BexitY%3D0.5%3BexitDx%3D0%3BexitDy%3D0%3Bdashed%3D1%3BstrokeColor%3D%23000000%3BstrokeWidth%3D1%3Balign%3Dcenter%3BverticalAlign%3Dmiddle%3BfontFamily%3DHelvetica%3BfontSize%3D16%3BfontColor%3Ddefault%3BfontStyle%3D1%3BlabelBackgroundColor%3Ddefault%3Bresizable%3D0%3BendArrow%3Dnone%3BendFill%3D0%3BentryX%3D1%3BentryY%3D0.5%3BentryDx%3D0%3BentryDy%3D0%3BstartArrow%3Dopen%3BstartFill%3D0%3B%22%20edge%3D%221%22%20source%3D%2214%22%20target%3D%228%22%20parent%3D%221%22%3E%3CmxGeometry%20relative%3D%221%22%20as%3D%22geometry%22%3E%3CmxPoint%20x%3D%22530%22%20y%3D%221617%22%20as%3D%22targetPoint%22%2F%3E%3C%2FmxGeometry%3E%3C%2FmxCell%3E%3CmxCell%20id%3D%2213%22%20value%3D%22%26amp%3Blt%3B%26amp%3Blt%3Bdepends%20on%26amp%3Bgt%3B%26amp%3Bgt%3B%22%20style%3D%22edgeLabel%3Bhtml%3D1%3Balign%3Dcenter%3BverticalAlign%3Dmiddle%3Bresizable%3D0%3Bpoints%3D%5B%5D%3BstrokeColor%3Ddefault%3BspacingLeft%3D5%3BfontFamily%3DHelvetica%3BfontSize%3D16%3BfontColor%3Ddefault%3BfontStyle%3D1%3BlabelBackgroundColor%3Ddefault%3BfillColor%3Ddefault%3BgradientColor%3Dnone%3B%22%20vertex%3D%221%22%20connectable%3D%220%22%20parent%3D%2212%22%3E%3CmxGeometry%20x%3D%22-0.0254%22%20y%3D%22-1%22%20relative%3D%221%22%20as%3D%22geometry%22%3E%3CmxPoint%20x%3D%221%22%20y%3D%22-9%22%20as%3D%22offset%22%2F%3E%3C%2FmxGeometry%3E%3C%2FmxCell%3E%3CmxCell%20id%3D%2214%22%20value%3D%22%26amp%3Blt%3B%26amp%3Blt%3Bartifact%26amp%3Bgt%3B%26amp%3Bgt%3B%26lt%3Bdiv%26gt%3BMQTT%26lt%3B%2Fdiv%26gt%3B%22%20style%3D%22html%3D1%3Balign%3Dcenter%3BverticalAlign%3Dmiddle%3Bdashed%3D0%3BwhiteSpace%3Dwrap%3BstrokeColor%3Ddefault%3BspacingLeft%3D5%3BfontFamily%3DHelvetica%3BfontSize%3D16%3BfontColor%3Ddefault%3BfontStyle%3D1%3BlabelBackgroundColor%3Ddefault%3Bresizable%3D0%3BfillColor%3Ddefault%3BgradientColor%3Dnone%3B%22%20vertex%3D%221%22%20parent%3D%221%22%3E%3CmxGeometry%20x%3D%22680%22%20y%3D%221495%22%20width%3D%22180%22%20height%3D%2260%22%20as%3D%22geometry%22%2F%3E%3C%2FmxCell%3E%3CmxCell%20id%3D%2215%22%20value%3D%22%26lt%3Bspan%26gt%3B%26amp%3Blt%3B%26amp%3Blt%3Bdata%20store%26amp%3Bgt%3B%26amp%3Bgt%3B%26lt%3B%2Fspan%26gt%3B%26lt%3Bdiv%26gt%3B%26lt%3Bspan%26gt%3BLocalMemory%26lt%3B%2Fspan%26gt%3B%26lt%3B%2Fdiv%26gt%3B%22%20style%3D%22html%3D1%3BdropTarget%3D0%3BwhiteSpace%3Dwrap%3BstrokeColor%3Ddefault%3Balign%3Dcenter%3BverticalAlign%3Dmiddle%3BspacingLeft%3D5%3BfontFamily%3DHelvetica%3BfontSize%3D16%3BfontColor%3Ddefault%3BfontStyle%3D1%3BlabelBackgroundColor%3Ddefault%3Bresizable%3D0%3BfillColor%3Ddefault%3BgradientColor%3Dnone%3B%22%20vertex%3D%221%22%20parent%3D%221%22%3E%3CmxGeometry%20x%3D%2240%22%20y%3D%221495%22%20width%3D%22180%22%20height%3D%2290%22%20as%3D%22geometry%22%2F%3E%3C%2FmxCell%3E%3CmxCell%20id%3D%2216%22%20value%3D%22%22%20style%3D%22shape%3Dmodule%3BjettyWidth%3D8%3BjettyHeight%3D4%3BstrokeColor%3Ddefault%3Balign%3Dcenter%3BverticalAlign%3Dmiddle%3BspacingLeft%3D5%3BfontFamily%3DHelvetica%3BfontSize%3D16%3BfontColor%3Ddefault%3BfontStyle%3D1%3BlabelBackgroundColor%3Ddefault%3Bresizable%3D0%3BfillColor%3Ddefault%3BgradientColor%3Dnone%3B%22%20vertex%3D%221%22%20parent%3D%2215%22%3E%3CmxGeometry%20x%3D%221%22%20width%3D%2220%22%20height%3D%2220%22%20relative%3D%221%22%20as%3D%22geometry%22%3E%3CmxPoint%20x%3D%22-30%22%20y%3D%2215%22%20as%3D%22offset%22%2F%3E%3C%2FmxGeometry%3E%3C%2FmxCell%3E%3C%2Froot%3E%3C%2FmxGraphModel%3E&lt;/span&gt;&lt;/div&gt;" style="html=1;align=center;verticalAlign=middle;dashed=0;whiteSpace=wrap;strokeColor=default;spacingLeft=5;fontFamily=Helvetica;fontSize=16;fontColor=default;fontStyle=1;labelBackgroundColor=default;resizable=0;fillColor=default;gradientColor=none;" vertex="1" parent="1">
          <mxGeometry x="350" y="2815" width="180" height="60" as="geometry" />
        </mxCell>
        <mxCell id="miVMZqAtS1C6sNfraPWD-45" style="shape=connector;rounded=0;orthogonalLoop=1;jettySize=auto;html=1;exitX=0;exitY=0.5;exitDx=0;exitDy=0;entryX=1;entryY=0.5;entryDx=0;entryDy=0;dashed=1;strokeColor=#000000;strokeWidth=1;align=center;verticalAlign=middle;fontFamily=Helvetica;fontSize=16;fontColor=default;fontStyle=1;labelBackgroundColor=default;resizable=0;endArrow=none;endFill=0;startArrow=open;startFill=0;" edge="1" parent="1" source="miVMZqAtS1C6sNfraPWD-47" target="miVMZqAtS1C6sNfraPWD-44">
          <mxGeometry relative="1" as="geometry">
            <mxPoint x="561" y="2845" as="targetPoint" />
          </mxGeometry>
        </mxCell>
        <mxCell id="miVMZqAtS1C6sNfraPWD-46" value="&amp;lt;&amp;lt;depends on&amp;gt;&amp;gt;" style="edgeLabel;html=1;align=center;verticalAlign=middle;resizable=0;points=[];strokeColor=default;spacingLeft=5;fontFamily=Helvetica;fontSize=16;fontColor=default;fontStyle=1;labelBackgroundColor=default;fillColor=default;gradientColor=none;" vertex="1" connectable="0" parent="miVMZqAtS1C6sNfraPWD-45">
          <mxGeometry x="0.1543" relative="1" as="geometry">
            <mxPoint x="15" y="-15" as="offset" />
          </mxGeometry>
        </mxCell>
        <mxCell id="miVMZqAtS1C6sNfraPWD-47" value="&amp;lt;&amp;lt;artifact&amp;gt;&amp;gt;&lt;div&gt;JDBC&lt;/div&gt;" style="html=1;align=center;verticalAlign=middle;dashed=0;whiteSpace=wrap;strokeColor=default;spacingLeft=5;fontFamily=Helvetica;fontSize=16;fontColor=default;fontStyle=1;labelBackgroundColor=default;resizable=0;fillColor=default;gradientColor=none;" vertex="1" parent="1">
          <mxGeometry x="680" y="2740" width="180" height="60" as="geometry" />
        </mxCell>
        <mxCell id="miVMZqAtS1C6sNfraPWD-48" style="shape=connector;rounded=0;orthogonalLoop=1;jettySize=auto;html=1;exitX=0;exitY=0.5;exitDx=0;exitDy=0;dashed=1;strokeColor=#000000;strokeWidth=1;align=center;verticalAlign=middle;fontFamily=Helvetica;fontSize=16;fontColor=default;fontStyle=1;labelBackgroundColor=default;resizable=0;endArrow=none;endFill=0;entryX=1;entryY=0.5;entryDx=0;entryDy=0;startArrow=open;startFill=0;" edge="1" parent="1" source="miVMZqAtS1C6sNfraPWD-50" target="miVMZqAtS1C6sNfraPWD-44">
          <mxGeometry relative="1" as="geometry">
            <mxPoint x="530" y="2997" as="targetPoint" />
          </mxGeometry>
        </mxCell>
        <mxCell id="miVMZqAtS1C6sNfraPWD-49" value="&amp;lt;&amp;lt;depends on&amp;gt;&amp;gt;" style="edgeLabel;html=1;align=center;verticalAlign=middle;resizable=0;points=[];strokeColor=default;spacingLeft=5;fontFamily=Helvetica;fontSize=16;fontColor=default;fontStyle=1;labelBackgroundColor=default;fillColor=default;gradientColor=none;" vertex="1" connectable="0" parent="miVMZqAtS1C6sNfraPWD-48">
          <mxGeometry x="-0.0254" y="-1" relative="1" as="geometry">
            <mxPoint x="1" y="-9" as="offset" />
          </mxGeometry>
        </mxCell>
        <mxCell id="miVMZqAtS1C6sNfraPWD-50" value="&amp;lt;&amp;lt;artifact&amp;gt;&amp;gt;&lt;div&gt;Redis&lt;/div&gt;" style="html=1;align=center;verticalAlign=middle;dashed=0;whiteSpace=wrap;strokeColor=default;spacingLeft=5;fontFamily=Helvetica;fontSize=16;fontColor=default;fontStyle=1;labelBackgroundColor=default;resizable=0;fillColor=default;gradientColor=none;" vertex="1" parent="1">
          <mxGeometry x="680" y="2815" width="180" height="60" as="geometry" />
        </mxCell>
        <mxCell id="miVMZqAtS1C6sNfraPWD-53" value="&amp;lt;&amp;lt;artifact&amp;gt;&amp;gt;&lt;div&gt;gRPC&lt;/div&gt;" style="html=1;align=center;verticalAlign=middle;dashed=0;whiteSpace=wrap;strokeColor=default;spacingLeft=5;fontFamily=Helvetica;fontSize=16;fontColor=default;fontStyle=1;labelBackgroundColor=default;resizable=0;fillColor=default;gradientColor=none;" vertex="1" parent="1">
          <mxGeometry x="680" y="2890" width="180" height="60" as="geometry" />
        </mxCell>
        <mxCell id="miVMZqAtS1C6sNfraPWD-68" value="&lt;div&gt;&amp;lt;&amp;lt;process&amp;gt;&amp;gt;&lt;/div&gt;&lt;span&gt;NotificationService&lt;/span&gt;" style="html=1;dropTarget=0;whiteSpace=wrap;strokeColor=default;align=center;verticalAlign=middle;spacingLeft=5;fontFamily=Helvetica;fontSize=16;fontColor=default;fontStyle=1;labelBackgroundColor=default;resizable=0;fillColor=default;gradientColor=none;" vertex="1" parent="1">
          <mxGeometry x="34.5" y="3034.5" width="180" height="90" as="geometry" />
        </mxCell>
        <mxCell id="miVMZqAtS1C6sNfraPWD-69" value="" style="shape=module;jettyWidth=8;jettyHeight=4;strokeColor=default;align=center;verticalAlign=middle;spacingLeft=5;fontFamily=Helvetica;fontSize=16;fontColor=default;fontStyle=1;labelBackgroundColor=default;resizable=0;fillColor=default;gradientColor=none;" vertex="1" parent="miVMZqAtS1C6sNfraPWD-68">
          <mxGeometry x="1" width="20" height="20" relative="1" as="geometry">
            <mxPoint x="-27" y="7" as="offset" />
          </mxGeometry>
        </mxCell>
        <mxCell id="miVMZqAtS1C6sNfraPWD-70" style="edgeStyle=orthogonalEdgeStyle;shape=connector;rounded=0;orthogonalLoop=1;jettySize=auto;html=1;exitX=0;exitY=0.5;exitDx=0;exitDy=0;entryX=1;entryY=0.5;entryDx=0;entryDy=0;dashed=1;strokeColor=#000000;strokeWidth=1;align=center;verticalAlign=middle;fontFamily=Helvetica;fontSize=16;fontColor=default;fontStyle=1;labelBackgroundColor=default;resizable=0;endArrow=open;endFill=0;" edge="1" parent="1" source="miVMZqAtS1C6sNfraPWD-74" target="miVMZqAtS1C6sNfraPWD-68">
          <mxGeometry relative="1" as="geometry" />
        </mxCell>
        <mxCell id="miVMZqAtS1C6sNfraPWD-71" value="&amp;lt;&amp;lt;manifest&amp;gt;&amp;gt;" style="edgeLabel;html=1;align=center;verticalAlign=middle;resizable=0;points=[];strokeColor=default;spacingLeft=5;fontFamily=Helvetica;fontSize=16;fontColor=default;fontStyle=1;labelBackgroundColor=default;fillColor=default;gradientColor=none;" vertex="1" connectable="0" parent="miVMZqAtS1C6sNfraPWD-70">
          <mxGeometry x="0.1117" y="-3" relative="1" as="geometry">
            <mxPoint x="7" y="-11" as="offset" />
          </mxGeometry>
        </mxCell>
        <mxCell id="miVMZqAtS1C6sNfraPWD-72" style="shape=connector;rounded=0;orthogonalLoop=1;jettySize=auto;html=1;exitX=1;exitY=0.5;exitDx=0;exitDy=0;entryX=0;entryY=0.5;entryDx=0;entryDy=0;dashed=1;strokeColor=#000000;strokeWidth=1;align=center;verticalAlign=middle;fontFamily=Helvetica;fontSize=16;fontColor=default;fontStyle=0;labelBackgroundColor=default;resizable=0;endArrow=open;endFill=0;" edge="1" parent="1" source="miVMZqAtS1C6sNfraPWD-74" target="miVMZqAtS1C6sNfraPWD-78">
          <mxGeometry relative="1" as="geometry" />
        </mxCell>
        <mxCell id="miVMZqAtS1C6sNfraPWD-73" value="&amp;lt;&amp;lt;depends on&amp;gt;&amp;gt;" style="edgeLabel;html=1;align=center;verticalAlign=middle;resizable=0;points=[];strokeColor=default;spacingLeft=5;fontFamily=Helvetica;fontSize=16;fontColor=default;fontStyle=0;labelBackgroundColor=default;fillColor=default;gradientColor=none;" vertex="1" connectable="0" parent="miVMZqAtS1C6sNfraPWD-72">
          <mxGeometry x="-0.0252" y="2" relative="1" as="geometry">
            <mxPoint as="offset" />
          </mxGeometry>
        </mxCell>
        <mxCell id="miVMZqAtS1C6sNfraPWD-74" value="&amp;lt;&amp;lt;artifact&amp;gt;&amp;gt;&lt;div&gt;NotificationService.jar&lt;/div&gt;" style="html=1;align=center;verticalAlign=middle;dashed=0;whiteSpace=wrap;strokeColor=default;spacingLeft=5;fontFamily=Helvetica;fontSize=16;fontColor=default;fontStyle=1;labelBackgroundColor=default;resizable=0;fillColor=default;gradientColor=none;" vertex="1" parent="1">
          <mxGeometry x="335.5" y="3049.5" width="180" height="60" as="geometry" />
        </mxCell>
        <mxCell id="miVMZqAtS1C6sNfraPWD-75" style="shape=connector;rounded=0;orthogonalLoop=1;jettySize=auto;html=1;exitX=0;exitY=0.5;exitDx=0;exitDy=0;entryX=1;entryY=0.5;entryDx=0;entryDy=0;dashed=1;strokeColor=#000000;strokeWidth=1;align=center;verticalAlign=middle;fontFamily=Helvetica;fontSize=16;fontColor=default;fontStyle=1;labelBackgroundColor=default;resizable=0;endArrow=none;endFill=0;startArrow=open;startFill=0;" edge="1" parent="1" source="miVMZqAtS1C6sNfraPWD-77" target="miVMZqAtS1C6sNfraPWD-74">
          <mxGeometry relative="1" as="geometry">
            <mxPoint x="546.5" y="3079.5" as="targetPoint" />
          </mxGeometry>
        </mxCell>
        <mxCell id="miVMZqAtS1C6sNfraPWD-76" value="&amp;lt;&amp;lt;depends on&amp;gt;&amp;gt;" style="edgeLabel;html=1;align=center;verticalAlign=middle;resizable=0;points=[];strokeColor=default;spacingLeft=5;fontFamily=Helvetica;fontSize=16;fontColor=default;fontStyle=1;labelBackgroundColor=default;fillColor=default;gradientColor=none;" vertex="1" connectable="0" parent="miVMZqAtS1C6sNfraPWD-75">
          <mxGeometry x="0.1543" relative="1" as="geometry">
            <mxPoint x="15" y="-15" as="offset" />
          </mxGeometry>
        </mxCell>
        <mxCell id="miVMZqAtS1C6sNfraPWD-77" value="&amp;lt;&amp;lt;artifact&amp;gt;&amp;gt;&lt;div&gt;gRPC&lt;/div&gt;" style="html=1;align=center;verticalAlign=middle;dashed=0;whiteSpace=wrap;strokeColor=default;spacingLeft=5;fontFamily=Helvetica;fontSize=16;fontColor=default;fontStyle=1;labelBackgroundColor=default;resizable=0;fillColor=default;gradientColor=none;" vertex="1" parent="1">
          <mxGeometry x="665.5" y="3010" width="180" height="60" as="geometry" />
        </mxCell>
        <mxCell id="miVMZqAtS1C6sNfraPWD-78" value="&amp;lt;&amp;lt;artifact&amp;gt;&amp;gt;&lt;div&gt;SMS API&lt;/div&gt;" style="html=1;align=center;verticalAlign=middle;dashed=0;whiteSpace=wrap;strokeColor=default;spacingLeft=5;fontFamily=Helvetica;fontSize=16;fontColor=default;fontStyle=1;labelBackgroundColor=default;resizable=0;fillColor=default;gradientColor=none;" vertex="1" parent="1">
          <mxGeometry x="665.5" y="3074.5" width="180" height="60" as="geometry" />
        </mxCell>
        <mxCell id="miVMZqAtS1C6sNfraPWD-79" value="&lt;div&gt;&lt;span&gt;&amp;lt;&amp;lt;process&amp;gt;&amp;gt;&lt;/span&gt;&lt;/div&gt;&lt;span&gt;HeartbeatMonitor&lt;/span&gt;" style="html=1;dropTarget=0;whiteSpace=wrap;strokeColor=default;align=center;verticalAlign=middle;spacingLeft=5;fontFamily=Helvetica;fontSize=16;fontColor=default;fontStyle=1;labelBackgroundColor=default;resizable=0;fillColor=default;gradientColor=none;" vertex="1" parent="1">
          <mxGeometry x="34.5" y="3190" width="180" height="90" as="geometry" />
        </mxCell>
        <mxCell id="miVMZqAtS1C6sNfraPWD-80" value="" style="shape=module;jettyWidth=8;jettyHeight=4;strokeColor=default;align=center;verticalAlign=middle;spacingLeft=5;fontFamily=Helvetica;fontSize=16;fontColor=default;fontStyle=1;labelBackgroundColor=default;resizable=0;fillColor=default;gradientColor=none;" vertex="1" parent="miVMZqAtS1C6sNfraPWD-79">
          <mxGeometry x="1" width="20" height="20" relative="1" as="geometry">
            <mxPoint x="-27" y="7" as="offset" />
          </mxGeometry>
        </mxCell>
        <mxCell id="miVMZqAtS1C6sNfraPWD-81" style="edgeStyle=orthogonalEdgeStyle;shape=connector;rounded=0;orthogonalLoop=1;jettySize=auto;html=1;exitX=0;exitY=0.5;exitDx=0;exitDy=0;entryX=1;entryY=0.5;entryDx=0;entryDy=0;dashed=1;strokeColor=#000000;strokeWidth=1;align=center;verticalAlign=middle;fontFamily=Helvetica;fontSize=16;fontColor=default;fontStyle=1;labelBackgroundColor=default;resizable=0;endArrow=open;endFill=0;" edge="1" parent="1" source="miVMZqAtS1C6sNfraPWD-83" target="miVMZqAtS1C6sNfraPWD-79">
          <mxGeometry relative="1" as="geometry" />
        </mxCell>
        <mxCell id="miVMZqAtS1C6sNfraPWD-82" value="&amp;lt;&amp;lt;manifest&amp;gt;&amp;gt;" style="edgeLabel;html=1;align=center;verticalAlign=middle;resizable=0;points=[];strokeColor=default;spacingLeft=5;fontFamily=Helvetica;fontSize=16;fontColor=default;fontStyle=1;labelBackgroundColor=default;fillColor=default;gradientColor=none;" vertex="1" connectable="0" parent="miVMZqAtS1C6sNfraPWD-81">
          <mxGeometry x="0.1117" y="-3" relative="1" as="geometry">
            <mxPoint x="7" y="-11" as="offset" />
          </mxGeometry>
        </mxCell>
        <mxCell id="miVMZqAtS1C6sNfraPWD-83" value="&amp;lt;&amp;lt;artifact&amp;gt;&amp;gt;&lt;br&gt;&lt;div&gt;&lt;span style=&quot;background-color: light-dark(#ffffff, var(--ge-dark-color, #121212)); color: light-dark(rgb(0, 0, 0), rgb(255, 255, 255));&quot;&gt;HeartbeatMonitor.jar&lt;/span&gt;&lt;/div&gt;" style="html=1;align=center;verticalAlign=middle;dashed=0;whiteSpace=wrap;strokeColor=default;spacingLeft=5;fontFamily=Helvetica;fontSize=16;fontColor=default;fontStyle=1;labelBackgroundColor=default;resizable=0;fillColor=default;gradientColor=none;" vertex="1" parent="1">
          <mxGeometry x="335.5" y="3205" width="180" height="60" as="geometry" />
        </mxCell>
        <mxCell id="miVMZqAtS1C6sNfraPWD-84" style="edgeStyle=orthogonalEdgeStyle;shape=connector;rounded=0;orthogonalLoop=1;jettySize=auto;html=1;exitX=0;exitY=0.5;exitDx=0;exitDy=0;entryX=1;entryY=0.5;entryDx=0;entryDy=0;dashed=1;strokeColor=#000000;strokeWidth=1;align=center;verticalAlign=middle;fontFamily=Helvetica;fontSize=16;fontColor=default;fontStyle=1;labelBackgroundColor=default;resizable=0;endArrow=none;endFill=0;startArrow=open;startFill=0;" edge="1" parent="1" source="miVMZqAtS1C6sNfraPWD-86" target="miVMZqAtS1C6sNfraPWD-83">
          <mxGeometry relative="1" as="geometry">
            <mxPoint x="546.5" y="3235" as="targetPoint" />
          </mxGeometry>
        </mxCell>
        <mxCell id="miVMZqAtS1C6sNfraPWD-85" value="&amp;lt;&amp;lt;depends on&amp;gt;&amp;gt;" style="edgeLabel;html=1;align=center;verticalAlign=middle;resizable=0;points=[];strokeColor=default;spacingLeft=5;fontFamily=Helvetica;fontSize=16;fontColor=default;fontStyle=1;labelBackgroundColor=default;fillColor=default;gradientColor=none;" vertex="1" connectable="0" parent="miVMZqAtS1C6sNfraPWD-84">
          <mxGeometry x="0.1543" relative="1" as="geometry">
            <mxPoint x="15" y="-15" as="offset" />
          </mxGeometry>
        </mxCell>
        <mxCell id="miVMZqAtS1C6sNfraPWD-86" value="&amp;lt;&amp;lt;artifact&amp;gt;&amp;gt;&lt;div&gt;gRPC&lt;/div&gt;" style="html=1;align=center;verticalAlign=middle;dashed=0;whiteSpace=wrap;strokeColor=default;spacingLeft=5;fontFamily=Helvetica;fontSize=16;fontColor=default;fontStyle=1;labelBackgroundColor=default;resizable=0;fillColor=default;gradientColor=none;" vertex="1" parent="1">
          <mxGeometry x="665.5" y="3205" width="180" height="60" as="geometry" />
        </mxCell>
        <mxCell id="miVMZqAtS1C6sNfraPWD-87" value="&lt;div&gt;&lt;span&gt;&amp;lt;&amp;lt;data store&amp;gt;&amp;gt;&lt;/span&gt;&lt;/div&gt;MasterDB" style="html=1;dropTarget=0;whiteSpace=wrap;strokeColor=default;align=center;verticalAlign=middle;spacingLeft=5;fontFamily=Helvetica;fontSize=16;fontColor=default;fontStyle=1;labelBackgroundColor=default;resizable=0;fillColor=default;gradientColor=none;" vertex="1" parent="1">
          <mxGeometry x="34.5" y="3360" width="180" height="90" as="geometry" />
        </mxCell>
        <mxCell id="miVMZqAtS1C6sNfraPWD-88" value="" style="shape=module;jettyWidth=8;jettyHeight=4;strokeColor=default;align=center;verticalAlign=middle;spacingLeft=5;fontFamily=Helvetica;fontSize=16;fontColor=default;fontStyle=1;labelBackgroundColor=default;resizable=0;fillColor=default;gradientColor=none;" vertex="1" parent="miVMZqAtS1C6sNfraPWD-87">
          <mxGeometry x="1" width="20" height="20" relative="1" as="geometry">
            <mxPoint x="-27" y="7" as="offset" />
          </mxGeometry>
        </mxCell>
        <mxCell id="miVMZqAtS1C6sNfraPWD-89" style="shape=connector;rounded=0;orthogonalLoop=1;jettySize=auto;html=1;exitX=0;exitY=0.5;exitDx=0;exitDy=0;entryX=1;entryY=0.5;entryDx=0;entryDy=0;dashed=1;strokeColor=#000000;strokeWidth=1;align=center;verticalAlign=middle;fontFamily=Helvetica;fontSize=16;fontColor=default;fontStyle=1;labelBackgroundColor=default;resizable=0;endArrow=open;endFill=0;" edge="1" parent="1" source="miVMZqAtS1C6sNfraPWD-93" target="miVMZqAtS1C6sNfraPWD-87">
          <mxGeometry relative="1" as="geometry" />
        </mxCell>
        <mxCell id="miVMZqAtS1C6sNfraPWD-90" value="&amp;lt;&amp;lt;manifest&amp;gt;&amp;gt;" style="edgeLabel;html=1;align=center;verticalAlign=middle;resizable=0;points=[];strokeColor=default;spacingLeft=5;fontFamily=Helvetica;fontSize=16;fontColor=default;fontStyle=1;labelBackgroundColor=default;fillColor=default;gradientColor=none;" vertex="1" connectable="0" parent="miVMZqAtS1C6sNfraPWD-89">
          <mxGeometry x="0.1117" y="-3" relative="1" as="geometry">
            <mxPoint x="7" y="-12" as="offset" />
          </mxGeometry>
        </mxCell>
        <mxCell id="miVMZqAtS1C6sNfraPWD-91" style="shape=connector;rounded=0;orthogonalLoop=1;jettySize=auto;html=1;exitX=0;exitY=0.5;exitDx=0;exitDy=0;entryX=1;entryY=0.5;entryDx=0;entryDy=0;dashed=1;strokeColor=#000000;strokeWidth=1;align=center;verticalAlign=middle;fontFamily=Helvetica;fontSize=16;fontColor=default;fontStyle=1;labelBackgroundColor=default;resizable=0;endArrow=open;endFill=0;" edge="1" parent="1" source="miVMZqAtS1C6sNfraPWD-93" target="miVMZqAtS1C6sNfraPWD-97">
          <mxGeometry relative="1" as="geometry" />
        </mxCell>
        <mxCell id="miVMZqAtS1C6sNfraPWD-92" value="&amp;lt;&amp;lt;manifest&amp;gt;&amp;gt;" style="edgeLabel;html=1;align=center;verticalAlign=middle;resizable=0;points=[];strokeColor=default;spacingLeft=5;fontFamily=Helvetica;fontSize=16;fontColor=default;fontStyle=1;labelBackgroundColor=default;fillColor=default;gradientColor=none;" vertex="1" connectable="0" parent="miVMZqAtS1C6sNfraPWD-91">
          <mxGeometry x="-0.014" y="-3" relative="1" as="geometry">
            <mxPoint as="offset" />
          </mxGeometry>
        </mxCell>
        <mxCell id="miVMZqAtS1C6sNfraPWD-93" value="&amp;lt;&amp;lt;artifact&amp;gt;&amp;gt;&lt;div&gt;MainDBSchema.sql&lt;/div&gt;" style="html=1;align=center;verticalAlign=middle;dashed=0;whiteSpace=wrap;strokeColor=default;spacingLeft=5;fontFamily=Helvetica;fontSize=16;fontColor=default;fontStyle=1;labelBackgroundColor=default;resizable=0;fillColor=default;gradientColor=none;" vertex="1" parent="1">
          <mxGeometry x="344.5" y="3425" width="180" height="60" as="geometry" />
        </mxCell>
        <mxCell id="miVMZqAtS1C6sNfraPWD-94" style="shape=connector;rounded=0;orthogonalLoop=1;jettySize=auto;html=1;exitX=0;exitY=0.5;exitDx=0;exitDy=0;entryX=1;entryY=0.5;entryDx=0;entryDy=0;dashed=1;strokeColor=#000000;strokeWidth=1;align=center;verticalAlign=middle;fontFamily=Helvetica;fontSize=16;fontColor=default;fontStyle=1;labelBackgroundColor=default;resizable=0;endArrow=none;endFill=0;startArrow=open;startFill=0;" edge="1" parent="1" target="miVMZqAtS1C6sNfraPWD-93">
          <mxGeometry relative="1" as="geometry">
            <mxPoint x="555.5" y="3455" as="targetPoint" />
            <mxPoint x="674.5" y="3454.9999999999995" as="sourcePoint" />
          </mxGeometry>
        </mxCell>
        <mxCell id="miVMZqAtS1C6sNfraPWD-95" value="&amp;lt;&amp;lt;depends on&amp;gt;&amp;gt;" style="edgeLabel;html=1;align=center;verticalAlign=middle;resizable=0;points=[];strokeColor=default;spacingLeft=5;fontFamily=Helvetica;fontSize=16;fontColor=default;fontStyle=1;labelBackgroundColor=default;fillColor=default;gradientColor=none;" vertex="1" connectable="0" parent="miVMZqAtS1C6sNfraPWD-94">
          <mxGeometry x="0.1543" relative="1" as="geometry">
            <mxPoint x="7" y="-15" as="offset" />
          </mxGeometry>
        </mxCell>
        <mxCell id="miVMZqAtS1C6sNfraPWD-96" value="&amp;lt;&amp;lt;artifact&amp;gt;&amp;gt;&lt;div&gt;JDBC&lt;/div&gt;" style="html=1;align=center;verticalAlign=middle;dashed=0;whiteSpace=wrap;strokeColor=default;spacingLeft=5;fontFamily=Helvetica;fontSize=16;fontColor=default;fontStyle=1;labelBackgroundColor=default;resizable=0;fillColor=default;gradientColor=none;" vertex="1" parent="1">
          <mxGeometry x="665.5" y="3425" width="180" height="60" as="geometry" />
        </mxCell>
        <mxCell id="miVMZqAtS1C6sNfraPWD-97" value="&amp;lt;&amp;lt;data store&amp;gt;&amp;gt;&lt;div&gt;SlaveDB&lt;/div&gt;" style="html=1;dropTarget=0;whiteSpace=wrap;strokeColor=default;align=center;verticalAlign=middle;spacingLeft=5;fontFamily=Helvetica;fontSize=16;fontColor=default;fontStyle=1;labelBackgroundColor=default;resizable=0;fillColor=default;gradientColor=none;" vertex="1" parent="1">
          <mxGeometry x="34.5" y="3460" width="180" height="90" as="geometry" />
        </mxCell>
        <mxCell id="miVMZqAtS1C6sNfraPWD-98" value="" style="shape=module;jettyWidth=8;jettyHeight=4;strokeColor=default;align=center;verticalAlign=middle;spacingLeft=5;fontFamily=Helvetica;fontSize=16;fontColor=default;fontStyle=1;labelBackgroundColor=default;resizable=0;fillColor=default;gradientColor=none;" vertex="1" parent="miVMZqAtS1C6sNfraPWD-97">
          <mxGeometry x="1" width="20" height="20" relative="1" as="geometry">
            <mxPoint x="-30" y="15" as="offset" />
          </mxGeometry>
        </mxCell>
        <mxCell id="miVMZqAtS1C6sNfraPWD-99" value="&lt;div&gt;&lt;span&gt;&amp;lt;&amp;lt;connector&amp;gt;&amp;gt;&lt;/span&gt;&lt;/div&gt;&lt;div&gt;MQTT Broker(Pub/sub)&lt;/div&gt;" style="html=1;dropTarget=0;whiteSpace=wrap;strokeColor=default;align=center;verticalAlign=middle;spacingLeft=5;fontFamily=Helvetica;fontSize=16;fontColor=default;fontStyle=1;labelBackgroundColor=default;resizable=0;fillColor=default;gradientColor=none;" vertex="1" parent="1">
          <mxGeometry x="34.5" y="3590" width="180" height="90" as="geometry" />
        </mxCell>
        <mxCell id="miVMZqAtS1C6sNfraPWD-100" value="" style="shape=module;jettyWidth=8;jettyHeight=4;strokeColor=default;align=center;verticalAlign=middle;spacingLeft=5;fontFamily=Helvetica;fontSize=16;fontColor=default;fontStyle=1;labelBackgroundColor=default;resizable=0;fillColor=default;gradientColor=none;" vertex="1" parent="miVMZqAtS1C6sNfraPWD-99">
          <mxGeometry x="1" width="20" height="20" relative="1" as="geometry">
            <mxPoint x="-27" y="7" as="offset" />
          </mxGeometry>
        </mxCell>
        <mxCell id="miVMZqAtS1C6sNfraPWD-101" style="edgeStyle=orthogonalEdgeStyle;shape=connector;rounded=0;orthogonalLoop=1;jettySize=auto;html=1;exitX=0;exitY=0.5;exitDx=0;exitDy=0;entryX=1;entryY=0.5;entryDx=0;entryDy=0;dashed=1;strokeColor=#000000;strokeWidth=1;align=center;verticalAlign=middle;fontFamily=Helvetica;fontSize=16;fontColor=default;fontStyle=1;labelBackgroundColor=default;resizable=0;endArrow=open;endFill=0;" edge="1" parent="1" source="miVMZqAtS1C6sNfraPWD-103" target="miVMZqAtS1C6sNfraPWD-99">
          <mxGeometry relative="1" as="geometry" />
        </mxCell>
        <mxCell id="miVMZqAtS1C6sNfraPWD-102" value="&amp;lt;&amp;lt;manifest&amp;gt;&amp;gt;" style="edgeLabel;html=1;align=center;verticalAlign=middle;resizable=0;points=[];strokeColor=default;spacingLeft=5;fontFamily=Helvetica;fontSize=16;fontColor=default;fontStyle=1;labelBackgroundColor=default;fillColor=default;gradientColor=none;" vertex="1" connectable="0" parent="miVMZqAtS1C6sNfraPWD-101">
          <mxGeometry x="0.1117" y="-3" relative="1" as="geometry">
            <mxPoint x="7" y="-11" as="offset" />
          </mxGeometry>
        </mxCell>
        <mxCell id="miVMZqAtS1C6sNfraPWD-103" value="&amp;lt;&amp;lt;artifact&amp;gt;&amp;gt;&lt;br&gt;&lt;div&gt;&lt;span style=&quot;background-color: light-dark(#ffffff, var(--ge-dark-color, #121212)); color: light-dark(rgb(0, 0, 0), rgb(255, 255, 255));&quot;&gt;MQTT-Broker-config.yaml&lt;/span&gt;&lt;/div&gt;" style="html=1;align=center;verticalAlign=middle;dashed=0;whiteSpace=wrap;strokeColor=default;spacingLeft=5;fontFamily=Helvetica;fontSize=16;fontColor=default;fontStyle=1;labelBackgroundColor=default;resizable=0;fillColor=default;gradientColor=none;" vertex="1" parent="1">
          <mxGeometry x="335.5" y="3605" width="180" height="60" as="geometry" />
        </mxCell>
        <mxCell id="miVMZqAtS1C6sNfraPWD-104" style="edgeStyle=orthogonalEdgeStyle;shape=connector;rounded=0;orthogonalLoop=1;jettySize=auto;html=1;exitX=0;exitY=0.5;exitDx=0;exitDy=0;entryX=1;entryY=0.5;entryDx=0;entryDy=0;dashed=1;strokeColor=#000000;strokeWidth=1;align=center;verticalAlign=middle;fontFamily=Helvetica;fontSize=16;fontColor=default;fontStyle=1;labelBackgroundColor=default;resizable=0;endArrow=none;endFill=0;startArrow=open;startFill=0;" edge="1" parent="1" source="miVMZqAtS1C6sNfraPWD-106" target="miVMZqAtS1C6sNfraPWD-103">
          <mxGeometry relative="1" as="geometry">
            <mxPoint x="546.5" y="3635" as="targetPoint" />
          </mxGeometry>
        </mxCell>
        <mxCell id="miVMZqAtS1C6sNfraPWD-105" value="&amp;lt;&amp;lt;depends on&amp;gt;&amp;gt;" style="edgeLabel;html=1;align=center;verticalAlign=middle;resizable=0;points=[];strokeColor=default;spacingLeft=5;fontFamily=Helvetica;fontSize=16;fontColor=default;fontStyle=1;labelBackgroundColor=default;fillColor=default;gradientColor=none;" vertex="1" connectable="0" parent="miVMZqAtS1C6sNfraPWD-104">
          <mxGeometry x="0.1543" relative="1" as="geometry">
            <mxPoint x="15" y="-15" as="offset" />
          </mxGeometry>
        </mxCell>
        <mxCell id="miVMZqAtS1C6sNfraPWD-106" value="&amp;lt;&amp;lt;artifact&amp;gt;&amp;gt;&lt;div&gt;MQTT&lt;/div&gt;" style="html=1;align=center;verticalAlign=middle;dashed=0;whiteSpace=wrap;strokeColor=default;spacingLeft=5;fontFamily=Helvetica;fontSize=16;fontColor=default;fontStyle=1;labelBackgroundColor=default;resizable=0;fillColor=default;gradientColor=none;" vertex="1" parent="1">
          <mxGeometry x="665.5" y="3605" width="180" height="60" as="geometry" />
        </mxCell>
        <mxCell id="miVMZqAtS1C6sNfraPWD-107" value="&lt;div&gt;&lt;span&gt;&amp;lt;&amp;lt;data store&amp;gt;&amp;gt;&lt;/span&gt;&lt;/div&gt;&lt;div&gt;In-memory Cache&lt;/div&gt;" style="html=1;dropTarget=0;whiteSpace=wrap;strokeColor=default;align=center;verticalAlign=middle;spacingLeft=5;fontFamily=Helvetica;fontSize=16;fontColor=default;fontStyle=1;labelBackgroundColor=default;resizable=0;fillColor=default;gradientColor=none;" vertex="1" parent="1">
          <mxGeometry x="34.5" y="3710" width="180" height="90" as="geometry" />
        </mxCell>
        <mxCell id="miVMZqAtS1C6sNfraPWD-108" value="" style="shape=module;jettyWidth=8;jettyHeight=4;strokeColor=default;align=center;verticalAlign=middle;spacingLeft=5;fontFamily=Helvetica;fontSize=16;fontColor=default;fontStyle=1;labelBackgroundColor=default;resizable=0;fillColor=default;gradientColor=none;" vertex="1" parent="miVMZqAtS1C6sNfraPWD-107">
          <mxGeometry x="1" width="20" height="20" relative="1" as="geometry">
            <mxPoint x="-27" y="7" as="offset" />
          </mxGeometry>
        </mxCell>
        <mxCell id="miVMZqAtS1C6sNfraPWD-109" style="edgeStyle=orthogonalEdgeStyle;shape=connector;rounded=0;orthogonalLoop=1;jettySize=auto;html=1;exitX=0;exitY=0.5;exitDx=0;exitDy=0;entryX=1;entryY=0.5;entryDx=0;entryDy=0;dashed=1;strokeColor=#000000;strokeWidth=1;align=center;verticalAlign=middle;fontFamily=Helvetica;fontSize=16;fontColor=default;fontStyle=1;labelBackgroundColor=default;resizable=0;endArrow=open;endFill=0;" edge="1" parent="1" source="miVMZqAtS1C6sNfraPWD-111" target="miVMZqAtS1C6sNfraPWD-107">
          <mxGeometry relative="1" as="geometry" />
        </mxCell>
        <mxCell id="miVMZqAtS1C6sNfraPWD-110" value="&amp;lt;&amp;lt;manifest&amp;gt;&amp;gt;" style="edgeLabel;html=1;align=center;verticalAlign=middle;resizable=0;points=[];strokeColor=default;spacingLeft=5;fontFamily=Helvetica;fontSize=16;fontColor=default;fontStyle=1;labelBackgroundColor=default;fillColor=default;gradientColor=none;" vertex="1" connectable="0" parent="miVMZqAtS1C6sNfraPWD-109">
          <mxGeometry x="0.1117" y="-3" relative="1" as="geometry">
            <mxPoint x="7" y="-11" as="offset" />
          </mxGeometry>
        </mxCell>
        <mxCell id="miVMZqAtS1C6sNfraPWD-111" value="&amp;lt;&amp;lt;artifact&amp;gt;&amp;gt;&lt;br&gt;&lt;div&gt;&lt;span style=&quot;background-color: light-dark(#ffffff, var(--ge-dark-color, #121212)); color: light-dark(rgb(0, 0, 0), rgb(255, 255, 255));&quot;&gt;Redis-config.conf&lt;/span&gt;&lt;/div&gt;" style="html=1;align=center;verticalAlign=middle;dashed=0;whiteSpace=wrap;strokeColor=default;spacingLeft=5;fontFamily=Helvetica;fontSize=16;fontColor=default;fontStyle=1;labelBackgroundColor=default;resizable=0;fillColor=default;gradientColor=none;" vertex="1" parent="1">
          <mxGeometry x="335.5" y="3725" width="180" height="60" as="geometry" />
        </mxCell>
        <mxCell id="miVMZqAtS1C6sNfraPWD-112" style="edgeStyle=orthogonalEdgeStyle;shape=connector;rounded=0;orthogonalLoop=1;jettySize=auto;html=1;exitX=0;exitY=0.5;exitDx=0;exitDy=0;entryX=1;entryY=0.5;entryDx=0;entryDy=0;dashed=1;strokeColor=#000000;strokeWidth=1;align=center;verticalAlign=middle;fontFamily=Helvetica;fontSize=16;fontColor=default;fontStyle=1;labelBackgroundColor=default;resizable=0;endArrow=none;endFill=0;startArrow=open;startFill=0;" edge="1" parent="1" source="miVMZqAtS1C6sNfraPWD-114" target="miVMZqAtS1C6sNfraPWD-111">
          <mxGeometry relative="1" as="geometry">
            <mxPoint x="546.5" y="3755" as="targetPoint" />
          </mxGeometry>
        </mxCell>
        <mxCell id="miVMZqAtS1C6sNfraPWD-113" value="&amp;lt;&amp;lt;depends on&amp;gt;&amp;gt;" style="edgeLabel;html=1;align=center;verticalAlign=middle;resizable=0;points=[];strokeColor=default;spacingLeft=5;fontFamily=Helvetica;fontSize=16;fontColor=default;fontStyle=1;labelBackgroundColor=default;fillColor=default;gradientColor=none;" vertex="1" connectable="0" parent="miVMZqAtS1C6sNfraPWD-112">
          <mxGeometry x="0.1543" relative="1" as="geometry">
            <mxPoint x="15" y="-15" as="offset" />
          </mxGeometry>
        </mxCell>
        <mxCell id="miVMZqAtS1C6sNfraPWD-114" value="&amp;lt;&amp;lt;artifact&amp;gt;&amp;gt;&lt;div&gt;Redis&lt;/div&gt;" style="html=1;align=center;verticalAlign=middle;dashed=0;whiteSpace=wrap;strokeColor=default;spacingLeft=5;fontFamily=Helvetica;fontSize=16;fontColor=default;fontStyle=1;labelBackgroundColor=default;resizable=0;fillColor=default;gradientColor=none;" vertex="1" parent="1">
          <mxGeometry x="665.5" y="3725" width="180" height="60" as="geometry" />
        </mxCell>
        <mxCell id="Dvpz7da0sY5vyX2HiQid-19" style="edgeStyle=none;shape=connector;rounded=0;orthogonalLoop=1;jettySize=auto;html=1;exitX=0;exitY=0.5;exitDx=0;exitDy=0;entryX=1;entryY=0.5;entryDx=0;entryDy=0;dashed=1;strokeColor=#000000;strokeWidth=1;align=center;verticalAlign=middle;fontFamily=Helvetica;fontSize=16;fontColor=default;fontStyle=0;labelBackgroundColor=default;resizable=0;endArrow=open;endFill=0;" edge="1" parent="1" source="Dvpz7da0sY5vyX2HiQid-3" target="Dvpz7da0sY5vyX2HiQid-13">
          <mxGeometry relative="1" as="geometry" />
        </mxCell>
        <mxCell id="Dvpz7da0sY5vyX2HiQid-37" value="&amp;lt;&amp;lt;manifest&amp;gt;&amp;gt;" style="edgeLabel;html=1;align=center;verticalAlign=middle;resizable=0;points=[];strokeColor=default;spacingLeft=5;fontFamily=Helvetica;fontSize=16;fontColor=default;fontStyle=0;labelBackgroundColor=default;fillColor=default;gradientColor=none;" vertex="1" connectable="0" parent="Dvpz7da0sY5vyX2HiQid-19">
          <mxGeometry x="-0.0298" y="-2" relative="1" as="geometry">
            <mxPoint y="-9" as="offset" />
          </mxGeometry>
        </mxCell>
        <mxCell id="Dvpz7da0sY5vyX2HiQid-3" value="&amp;lt;&amp;lt;artifact&amp;gt;&amp;gt;&lt;div&gt;HTTPS&lt;/div&gt;" style="html=1;align=center;verticalAlign=middle;dashed=0;whiteSpace=wrap;strokeColor=default;spacingLeft=5;fontFamily=Helvetica;fontSize=16;fontColor=default;fontStyle=1;labelBackgroundColor=default;resizable=0;fillColor=default;gradientColor=none;" vertex="1" parent="1">
          <mxGeometry x="1360" y="220" width="180" height="60" as="geometry" />
        </mxCell>
        <mxCell id="Dvpz7da0sY5vyX2HiQid-20" style="edgeStyle=none;shape=connector;rounded=0;orthogonalLoop=1;jettySize=auto;html=1;exitX=0;exitY=0.5;exitDx=0;exitDy=0;dashed=1;strokeColor=#000000;strokeWidth=1;align=center;verticalAlign=middle;fontFamily=Helvetica;fontSize=16;fontColor=default;fontStyle=0;labelBackgroundColor=default;resizable=0;endArrow=open;endFill=0;" edge="1" parent="1" source="Dvpz7da0sY5vyX2HiQid-6" target="Dvpz7da0sY5vyX2HiQid-17">
          <mxGeometry relative="1" as="geometry" />
        </mxCell>
        <mxCell id="Dvpz7da0sY5vyX2HiQid-38" value="&amp;lt;&amp;lt;manifest&amp;gt;&amp;gt;" style="edgeLabel;html=1;align=center;verticalAlign=middle;resizable=0;points=[];strokeColor=default;spacingLeft=5;fontFamily=Helvetica;fontSize=16;fontColor=default;fontStyle=0;labelBackgroundColor=default;fillColor=default;gradientColor=none;" vertex="1" connectable="0" parent="Dvpz7da0sY5vyX2HiQid-20">
          <mxGeometry x="-0.0129" y="-3" relative="1" as="geometry">
            <mxPoint y="-10" as="offset" />
          </mxGeometry>
        </mxCell>
        <mxCell id="Dvpz7da0sY5vyX2HiQid-6" value="&amp;lt;&amp;lt;artifact&amp;gt;&amp;gt;&lt;div&gt;MQTT&lt;/div&gt;" style="html=1;align=center;verticalAlign=middle;dashed=0;whiteSpace=wrap;strokeColor=default;spacingLeft=5;fontFamily=Helvetica;fontSize=16;fontColor=default;fontStyle=1;labelBackgroundColor=default;resizable=0;fillColor=default;gradientColor=none;" vertex="1" parent="1">
          <mxGeometry x="1360" y="325" width="180" height="60" as="geometry" />
        </mxCell>
        <mxCell id="Dvpz7da0sY5vyX2HiQid-13" value="&lt;span&gt;&amp;lt;&amp;lt;connector&amp;gt;&amp;gt;&lt;/span&gt;&lt;div&gt;&lt;span&gt;HTTPS&lt;/span&gt;&lt;/div&gt;" style="html=1;dropTarget=0;whiteSpace=wrap;strokeColor=default;align=center;verticalAlign=middle;spacingLeft=5;fontFamily=Helvetica;fontSize=16;fontColor=default;fontStyle=1;labelBackgroundColor=default;resizable=0;fillColor=default;gradientColor=none;" vertex="1" parent="1">
          <mxGeometry x="1040" y="205" width="180" height="90" as="geometry" />
        </mxCell>
        <mxCell id="Dvpz7da0sY5vyX2HiQid-14" value="" style="shape=module;jettyWidth=8;jettyHeight=4;strokeColor=default;align=center;verticalAlign=middle;spacingLeft=5;fontFamily=Helvetica;fontSize=16;fontColor=default;fontStyle=1;labelBackgroundColor=default;resizable=0;fillColor=default;gradientColor=none;" vertex="1" parent="Dvpz7da0sY5vyX2HiQid-13">
          <mxGeometry x="1" width="20" height="20" relative="1" as="geometry">
            <mxPoint x="-27" y="7" as="offset" />
          </mxGeometry>
        </mxCell>
        <mxCell id="Dvpz7da0sY5vyX2HiQid-17" value="&lt;span&gt;&amp;lt;&amp;lt;connector&amp;gt;&amp;gt;&lt;/span&gt;&lt;div&gt;&lt;span&gt;MQTT&lt;/span&gt;&lt;/div&gt;" style="html=1;dropTarget=0;whiteSpace=wrap;strokeColor=default;align=center;verticalAlign=middle;spacingLeft=5;fontFamily=Helvetica;fontSize=16;fontColor=default;fontStyle=1;labelBackgroundColor=default;resizable=0;fillColor=default;gradientColor=none;" vertex="1" parent="1">
          <mxGeometry x="1040" y="310" width="180" height="90" as="geometry" />
        </mxCell>
        <mxCell id="Dvpz7da0sY5vyX2HiQid-18" value="" style="shape=module;jettyWidth=8;jettyHeight=4;strokeColor=default;align=center;verticalAlign=middle;spacingLeft=5;fontFamily=Helvetica;fontSize=16;fontColor=default;fontStyle=1;labelBackgroundColor=default;resizable=0;fillColor=default;gradientColor=none;" vertex="1" parent="Dvpz7da0sY5vyX2HiQid-17">
          <mxGeometry x="1" width="20" height="20" relative="1" as="geometry">
            <mxPoint x="-30" y="15" as="offset" />
          </mxGeometry>
        </mxCell>
        <mxCell id="Dvpz7da0sY5vyX2HiQid-21" style="edgeStyle=none;shape=connector;rounded=0;orthogonalLoop=1;jettySize=auto;html=1;exitX=0;exitY=0.5;exitDx=0;exitDy=0;dashed=1;strokeColor=#000000;strokeWidth=1;align=center;verticalAlign=middle;fontFamily=Helvetica;fontSize=16;fontColor=default;fontStyle=0;labelBackgroundColor=default;resizable=0;endArrow=open;endFill=0;" edge="1" parent="1" source="Dvpz7da0sY5vyX2HiQid-22" target="Dvpz7da0sY5vyX2HiQid-23">
          <mxGeometry relative="1" as="geometry" />
        </mxCell>
        <mxCell id="Dvpz7da0sY5vyX2HiQid-39" value="&amp;lt;&amp;lt;manifest&amp;gt;&amp;gt;" style="edgeLabel;html=1;align=center;verticalAlign=middle;resizable=0;points=[];strokeColor=default;spacingLeft=5;fontFamily=Helvetica;fontSize=16;fontColor=default;fontStyle=0;labelBackgroundColor=default;fillColor=default;gradientColor=none;" vertex="1" connectable="0" parent="Dvpz7da0sY5vyX2HiQid-21">
          <mxGeometry x="0.0039" y="3" relative="1" as="geometry">
            <mxPoint y="-16" as="offset" />
          </mxGeometry>
        </mxCell>
        <mxCell id="Dvpz7da0sY5vyX2HiQid-22" value="&amp;lt;&amp;lt;artifact&amp;gt;&amp;gt;&lt;div&gt;Redis&lt;/div&gt;" style="html=1;align=center;verticalAlign=middle;dashed=0;whiteSpace=wrap;strokeColor=default;spacingLeft=5;fontFamily=Helvetica;fontSize=16;fontColor=default;fontStyle=1;labelBackgroundColor=default;resizable=0;fillColor=default;gradientColor=none;" vertex="1" parent="1">
          <mxGeometry x="1360" y="430" width="180" height="60" as="geometry" />
        </mxCell>
        <mxCell id="Dvpz7da0sY5vyX2HiQid-23" value="&lt;span&gt;&amp;lt;&amp;lt;connector&amp;gt;&amp;gt;&lt;/span&gt;&lt;div&gt;&lt;span&gt;Redis&lt;/span&gt;&lt;/div&gt;" style="html=1;dropTarget=0;whiteSpace=wrap;strokeColor=default;align=center;verticalAlign=middle;spacingLeft=5;fontFamily=Helvetica;fontSize=16;fontColor=default;fontStyle=1;labelBackgroundColor=default;resizable=0;fillColor=default;gradientColor=none;" vertex="1" parent="1">
          <mxGeometry x="1040" y="415" width="180" height="90" as="geometry" />
        </mxCell>
        <mxCell id="Dvpz7da0sY5vyX2HiQid-24" value="" style="shape=module;jettyWidth=8;jettyHeight=4;strokeColor=default;align=center;verticalAlign=middle;spacingLeft=5;fontFamily=Helvetica;fontSize=16;fontColor=default;fontStyle=1;labelBackgroundColor=default;resizable=0;fillColor=default;gradientColor=none;" vertex="1" parent="Dvpz7da0sY5vyX2HiQid-23">
          <mxGeometry x="1" width="20" height="20" relative="1" as="geometry">
            <mxPoint x="-30" y="15" as="offset" />
          </mxGeometry>
        </mxCell>
        <mxCell id="Dvpz7da0sY5vyX2HiQid-25" style="edgeStyle=none;shape=connector;rounded=0;orthogonalLoop=1;jettySize=auto;html=1;exitX=0;exitY=0.5;exitDx=0;exitDy=0;entryX=1;entryY=0.5;entryDx=0;entryDy=0;dashed=1;strokeColor=#000000;strokeWidth=1;align=center;verticalAlign=middle;fontFamily=Helvetica;fontSize=16;fontColor=default;fontStyle=0;labelBackgroundColor=default;resizable=0;endArrow=open;endFill=0;" edge="1" parent="1" source="Dvpz7da0sY5vyX2HiQid-26" target="Dvpz7da0sY5vyX2HiQid-29">
          <mxGeometry relative="1" as="geometry" />
        </mxCell>
        <mxCell id="Dvpz7da0sY5vyX2HiQid-40" value="&amp;lt;&amp;lt;manifest&amp;gt;&amp;gt;" style="edgeLabel;html=1;align=center;verticalAlign=middle;resizable=0;points=[];strokeColor=default;spacingLeft=5;fontFamily=Helvetica;fontSize=16;fontColor=default;fontStyle=0;labelBackgroundColor=default;fillColor=default;gradientColor=none;" vertex="1" connectable="0" parent="Dvpz7da0sY5vyX2HiQid-25">
          <mxGeometry x="0.0123" y="4" relative="1" as="geometry">
            <mxPoint y="-19" as="offset" />
          </mxGeometry>
        </mxCell>
        <mxCell id="Dvpz7da0sY5vyX2HiQid-26" value="&amp;lt;&amp;lt;artifact&amp;gt;&amp;gt;&lt;div&gt;JDBC&lt;/div&gt;" style="html=1;align=center;verticalAlign=middle;dashed=0;whiteSpace=wrap;strokeColor=default;spacingLeft=5;fontFamily=Helvetica;fontSize=16;fontColor=default;fontStyle=1;labelBackgroundColor=default;resizable=0;fillColor=default;gradientColor=none;" vertex="1" parent="1">
          <mxGeometry x="1870" y="215" width="180" height="60" as="geometry" />
        </mxCell>
        <mxCell id="Dvpz7da0sY5vyX2HiQid-27" style="edgeStyle=none;shape=connector;rounded=0;orthogonalLoop=1;jettySize=auto;html=1;exitX=0;exitY=0.5;exitDx=0;exitDy=0;dashed=1;strokeColor=#000000;strokeWidth=1;align=center;verticalAlign=middle;fontFamily=Helvetica;fontSize=16;fontColor=default;fontStyle=0;labelBackgroundColor=default;resizable=0;endArrow=open;endFill=0;" edge="1" parent="1" source="Dvpz7da0sY5vyX2HiQid-28" target="Dvpz7da0sY5vyX2HiQid-31">
          <mxGeometry relative="1" as="geometry" />
        </mxCell>
        <mxCell id="Dvpz7da0sY5vyX2HiQid-41" value="&amp;lt;&amp;lt;manifest&amp;gt;&amp;gt;" style="edgeLabel;html=1;align=center;verticalAlign=middle;resizable=0;points=[];strokeColor=default;spacingLeft=5;fontFamily=Helvetica;fontSize=16;fontColor=default;fontStyle=0;labelBackgroundColor=default;fillColor=default;gradientColor=none;" vertex="1" connectable="0" parent="Dvpz7da0sY5vyX2HiQid-27">
          <mxGeometry x="-0.055" y="2" relative="1" as="geometry">
            <mxPoint x="-4" y="-12" as="offset" />
          </mxGeometry>
        </mxCell>
        <mxCell id="Dvpz7da0sY5vyX2HiQid-28" value="&amp;lt;&amp;lt;artifact&amp;gt;&amp;gt;&lt;div&gt;gRPC&lt;/div&gt;" style="html=1;align=center;verticalAlign=middle;dashed=0;whiteSpace=wrap;strokeColor=default;spacingLeft=5;fontFamily=Helvetica;fontSize=16;fontColor=default;fontStyle=1;labelBackgroundColor=default;resizable=0;fillColor=default;gradientColor=none;" vertex="1" parent="1">
          <mxGeometry x="1870" y="320" width="180" height="60" as="geometry" />
        </mxCell>
        <mxCell id="Dvpz7da0sY5vyX2HiQid-29" value="&lt;span&gt;&amp;lt;&amp;lt;connector&amp;gt;&amp;gt;&lt;/span&gt;&lt;div&gt;&lt;span&gt;JDBC&lt;/span&gt;&lt;/div&gt;" style="html=1;dropTarget=0;whiteSpace=wrap;strokeColor=default;align=center;verticalAlign=middle;spacingLeft=5;fontFamily=Helvetica;fontSize=16;fontColor=default;fontStyle=1;labelBackgroundColor=default;resizable=0;fillColor=default;gradientColor=none;" vertex="1" parent="1">
          <mxGeometry x="1550" y="200" width="180" height="90" as="geometry" />
        </mxCell>
        <mxCell id="Dvpz7da0sY5vyX2HiQid-30" value="" style="shape=module;jettyWidth=8;jettyHeight=4;strokeColor=default;align=center;verticalAlign=middle;spacingLeft=5;fontFamily=Helvetica;fontSize=16;fontColor=default;fontStyle=1;labelBackgroundColor=default;resizable=0;fillColor=default;gradientColor=none;" vertex="1" parent="Dvpz7da0sY5vyX2HiQid-29">
          <mxGeometry x="1" width="20" height="20" relative="1" as="geometry">
            <mxPoint x="-27" y="7" as="offset" />
          </mxGeometry>
        </mxCell>
        <mxCell id="Dvpz7da0sY5vyX2HiQid-31" value="&lt;span&gt;&amp;lt;&amp;lt;connector&amp;gt;&amp;gt;&lt;/span&gt;&lt;div&gt;&lt;span&gt;gRPC&lt;/span&gt;&lt;/div&gt;" style="html=1;dropTarget=0;whiteSpace=wrap;strokeColor=default;align=center;verticalAlign=middle;spacingLeft=5;fontFamily=Helvetica;fontSize=16;fontColor=default;fontStyle=1;labelBackgroundColor=default;resizable=0;fillColor=default;gradientColor=none;" vertex="1" parent="1">
          <mxGeometry x="1550" y="305" width="180" height="90" as="geometry" />
        </mxCell>
        <mxCell id="Dvpz7da0sY5vyX2HiQid-32" value="" style="shape=module;jettyWidth=8;jettyHeight=4;strokeColor=default;align=center;verticalAlign=middle;spacingLeft=5;fontFamily=Helvetica;fontSize=16;fontColor=default;fontStyle=1;labelBackgroundColor=default;resizable=0;fillColor=default;gradientColor=none;" vertex="1" parent="Dvpz7da0sY5vyX2HiQid-31">
          <mxGeometry x="1" width="20" height="20" relative="1" as="geometry">
            <mxPoint x="-30" y="15" as="offset" />
          </mxGeometry>
        </mxCell>
        <mxCell id="Dvpz7da0sY5vyX2HiQid-33" style="edgeStyle=none;shape=connector;rounded=0;orthogonalLoop=1;jettySize=auto;html=1;exitX=0;exitY=0.5;exitDx=0;exitDy=0;dashed=1;strokeColor=#000000;strokeWidth=1;align=center;verticalAlign=middle;fontFamily=Helvetica;fontSize=16;fontColor=default;fontStyle=0;labelBackgroundColor=default;resizable=0;endArrow=open;endFill=0;" edge="1" parent="1" source="Dvpz7da0sY5vyX2HiQid-34" target="Dvpz7da0sY5vyX2HiQid-35">
          <mxGeometry relative="1" as="geometry" />
        </mxCell>
        <mxCell id="Dvpz7da0sY5vyX2HiQid-42" value="&amp;lt;&amp;lt;manifest&amp;gt;&amp;gt;" style="edgeLabel;html=1;align=center;verticalAlign=middle;resizable=0;points=[];strokeColor=default;spacingLeft=5;fontFamily=Helvetica;fontSize=16;fontColor=default;fontStyle=0;labelBackgroundColor=default;fillColor=default;gradientColor=none;" vertex="1" connectable="0" parent="Dvpz7da0sY5vyX2HiQid-33">
          <mxGeometry x="-0.0718" relative="1" as="geometry">
            <mxPoint y="-15" as="offset" />
          </mxGeometry>
        </mxCell>
        <mxCell id="Dvpz7da0sY5vyX2HiQid-34" value="&amp;lt;&amp;lt;artifact&amp;gt;&amp;gt;&lt;div&gt;SMS API&lt;/div&gt;" style="html=1;align=center;verticalAlign=middle;dashed=0;whiteSpace=wrap;strokeColor=default;spacingLeft=5;fontFamily=Helvetica;fontSize=16;fontColor=default;fontStyle=1;labelBackgroundColor=default;resizable=0;fillColor=default;gradientColor=none;" vertex="1" parent="1">
          <mxGeometry x="1870" y="425" width="180" height="60" as="geometry" />
        </mxCell>
        <mxCell id="Dvpz7da0sY5vyX2HiQid-35" value="&lt;span&gt;&amp;lt;&amp;lt;connector&amp;gt;&amp;gt;&lt;/span&gt;&lt;div&gt;&lt;span&gt;SMS&lt;/span&gt;&lt;/div&gt;" style="html=1;dropTarget=0;whiteSpace=wrap;strokeColor=default;align=center;verticalAlign=middle;spacingLeft=5;fontFamily=Helvetica;fontSize=16;fontColor=default;fontStyle=1;labelBackgroundColor=default;resizable=0;fillColor=default;gradientColor=none;" vertex="1" parent="1">
          <mxGeometry x="1550" y="410" width="180" height="90" as="geometry" />
        </mxCell>
        <mxCell id="Dvpz7da0sY5vyX2HiQid-36" value="" style="shape=module;jettyWidth=8;jettyHeight=4;strokeColor=default;align=center;verticalAlign=middle;spacingLeft=5;fontFamily=Helvetica;fontSize=16;fontColor=default;fontStyle=1;labelBackgroundColor=default;resizable=0;fillColor=default;gradientColor=none;" vertex="1" parent="Dvpz7da0sY5vyX2HiQid-35">
          <mxGeometry x="1" width="20" height="20" relative="1" as="geometry">
            <mxPoint x="-30" y="15" as="offset" />
          </mxGeometry>
        </mxCell>
      </root>
    </mxGraphModel>
  </diagram>
</mxfile>
